%TF.GenerationSoftware,KiCad,Pcbnew,10.0.2*%
%TF.CreationDate,2026-05-16T20:56:20-04:00*%
%TF.ProjectId,usbPaddleKicad,75736250-6164-4646-9c65-4b696361642e,rev?*%
%TF.SameCoordinates,Original*%
%TF.FileFunction,Legend,Bot*%
%TF.FilePolarity,Positive*%
%FSLAX46Y46*%
G04 Gerber Fmt 4.6, Leading zero omitted, Abs format (unit mm)*
G04 Created by KiCad (PCBNEW 10.0.2) date 2026-05-16 20:56:20*
%MOMM*%
%LPD*%
G01*
G04 APERTURE LIST*
G04 Aperture macros list*
%AMRoundRect*
0 Rectangle with rounded corners*
0 $1 Rounding radius*
0 $2 $3 $4 $5 $6 $7 $8 $9 X,Y pos of 4 corners*
0 Add a 4 corners polygon primitive as box body*
4,1,4,$2,$3,$4,$5,$6,$7,$8,$9,$2,$3,0*
0 Add four circle primitives for the rounded corners*
1,1,$1+$1,$2,$3*
1,1,$1+$1,$4,$5*
1,1,$1+$1,$6,$7*
1,1,$1+$1,$8,$9*
0 Add four rect primitives between the rounded corners*
20,1,$1+$1,$2,$3,$4,$5,0*
20,1,$1+$1,$4,$5,$6,$7,0*
20,1,$1+$1,$6,$7,$8,$9,0*
20,1,$1+$1,$8,$9,$2,$3,0*%
G04 Aperture macros list end*
%ADD10C,0.100000*%
%ADD11C,1.600000*%
%ADD12RoundRect,0.102000X-0.754000X-0.754000X0.754000X-0.754000X0.754000X0.754000X-0.754000X0.754000X0*%
%ADD13C,1.712000*%
%ADD14C,3.500000*%
%ADD15C,3.200000*%
%ADD16RoundRect,0.102000X-0.704000X-0.704000X0.704000X-0.704000X0.704000X0.704000X-0.704000X0.704000X0*%
%ADD17C,1.612000*%
G04 APERTURE END LIST*
D10*
X102186353Y-89597419D02*
X101948258Y-90597419D01*
X101948258Y-90597419D02*
X101757782Y-89883133D01*
X101757782Y-89883133D02*
X101567306Y-90597419D01*
X101567306Y-90597419D02*
X101329211Y-89597419D01*
X100519687Y-90597419D02*
X100519687Y-90073609D01*
X100519687Y-90073609D02*
X100567306Y-89978371D01*
X100567306Y-89978371D02*
X100662544Y-89930752D01*
X100662544Y-89930752D02*
X100853020Y-89930752D01*
X100853020Y-89930752D02*
X100948258Y-89978371D01*
X100519687Y-90549800D02*
X100614925Y-90597419D01*
X100614925Y-90597419D02*
X100853020Y-90597419D01*
X100853020Y-90597419D02*
X100948258Y-90549800D01*
X100948258Y-90549800D02*
X100995877Y-90454561D01*
X100995877Y-90454561D02*
X100995877Y-90359323D01*
X100995877Y-90359323D02*
X100948258Y-90264085D01*
X100948258Y-90264085D02*
X100853020Y-90216466D01*
X100853020Y-90216466D02*
X100614925Y-90216466D01*
X100614925Y-90216466D02*
X100519687Y-90168847D01*
X100138734Y-89930752D02*
X99900639Y-90597419D01*
X99662544Y-89930752D02*
X99900639Y-90597419D01*
X99900639Y-90597419D02*
X99995877Y-90835514D01*
X99995877Y-90835514D02*
X100043496Y-90883133D01*
X100043496Y-90883133D02*
X100138734Y-90930752D01*
X99376829Y-89597419D02*
X99138734Y-90597419D01*
X99138734Y-90597419D02*
X98948258Y-89883133D01*
X98948258Y-89883133D02*
X98757782Y-90597419D01*
X98757782Y-90597419D02*
X98519687Y-89597419D01*
X97710163Y-90597419D02*
X97710163Y-90073609D01*
X97710163Y-90073609D02*
X97757782Y-89978371D01*
X97757782Y-89978371D02*
X97853020Y-89930752D01*
X97853020Y-89930752D02*
X98043496Y-89930752D01*
X98043496Y-89930752D02*
X98138734Y-89978371D01*
X97710163Y-90549800D02*
X97805401Y-90597419D01*
X97805401Y-90597419D02*
X98043496Y-90597419D01*
X98043496Y-90597419D02*
X98138734Y-90549800D01*
X98138734Y-90549800D02*
X98186353Y-90454561D01*
X98186353Y-90454561D02*
X98186353Y-90359323D01*
X98186353Y-90359323D02*
X98138734Y-90264085D01*
X98138734Y-90264085D02*
X98043496Y-90216466D01*
X98043496Y-90216466D02*
X97805401Y-90216466D01*
X97805401Y-90216466D02*
X97710163Y-90168847D01*
X97329210Y-89930752D02*
X97091115Y-90597419D01*
X96853020Y-89930752D02*
X97091115Y-90597419D01*
X97091115Y-90597419D02*
X97186353Y-90835514D01*
X97186353Y-90835514D02*
X97233972Y-90883133D01*
X97233972Y-90883133D02*
X97329210Y-90930752D01*
X96567305Y-89597419D02*
X96329210Y-90597419D01*
X96329210Y-90597419D02*
X96138734Y-89883133D01*
X96138734Y-89883133D02*
X95948258Y-90597419D01*
X95948258Y-90597419D02*
X95710163Y-89597419D01*
X94900639Y-90597419D02*
X94900639Y-90073609D01*
X94900639Y-90073609D02*
X94948258Y-89978371D01*
X94948258Y-89978371D02*
X95043496Y-89930752D01*
X95043496Y-89930752D02*
X95233972Y-89930752D01*
X95233972Y-89930752D02*
X95329210Y-89978371D01*
X94900639Y-90549800D02*
X94995877Y-90597419D01*
X94995877Y-90597419D02*
X95233972Y-90597419D01*
X95233972Y-90597419D02*
X95329210Y-90549800D01*
X95329210Y-90549800D02*
X95376829Y-90454561D01*
X95376829Y-90454561D02*
X95376829Y-90359323D01*
X95376829Y-90359323D02*
X95329210Y-90264085D01*
X95329210Y-90264085D02*
X95233972Y-90216466D01*
X95233972Y-90216466D02*
X94995877Y-90216466D01*
X94995877Y-90216466D02*
X94900639Y-90168847D01*
X94519686Y-89930752D02*
X94281591Y-90597419D01*
X94043496Y-89930752D02*
X94281591Y-90597419D01*
X94281591Y-90597419D02*
X94376829Y-90835514D01*
X94376829Y-90835514D02*
X94424448Y-90883133D01*
X94424448Y-90883133D02*
X94519686Y-90930752D01*
X107257782Y-88073609D02*
X107114925Y-88121228D01*
X107114925Y-88121228D02*
X107067306Y-88168847D01*
X107067306Y-88168847D02*
X107019687Y-88264085D01*
X107019687Y-88264085D02*
X107019687Y-88406942D01*
X107019687Y-88406942D02*
X107067306Y-88502180D01*
X107067306Y-88502180D02*
X107114925Y-88549800D01*
X107114925Y-88549800D02*
X107210163Y-88597419D01*
X107210163Y-88597419D02*
X107591115Y-88597419D01*
X107591115Y-88597419D02*
X107591115Y-87597419D01*
X107591115Y-87597419D02*
X107257782Y-87597419D01*
X107257782Y-87597419D02*
X107162544Y-87645038D01*
X107162544Y-87645038D02*
X107114925Y-87692657D01*
X107114925Y-87692657D02*
X107067306Y-87787895D01*
X107067306Y-87787895D02*
X107067306Y-87883133D01*
X107067306Y-87883133D02*
X107114925Y-87978371D01*
X107114925Y-87978371D02*
X107162544Y-88025990D01*
X107162544Y-88025990D02*
X107257782Y-88073609D01*
X107257782Y-88073609D02*
X107591115Y-88073609D01*
X106733972Y-87597419D02*
X106162544Y-87597419D01*
X106448258Y-88597419D02*
X106448258Y-87597419D01*
X105829210Y-88597419D02*
X105829210Y-87597419D01*
X105829210Y-87597419D02*
X105257782Y-88597419D01*
X105257782Y-88597419D02*
X105257782Y-87597419D01*
X108817306Y-94145038D02*
X108912544Y-94097419D01*
X108912544Y-94097419D02*
X109055401Y-94097419D01*
X109055401Y-94097419D02*
X109198258Y-94145038D01*
X109198258Y-94145038D02*
X109293496Y-94240276D01*
X109293496Y-94240276D02*
X109341115Y-94335514D01*
X109341115Y-94335514D02*
X109388734Y-94525990D01*
X109388734Y-94525990D02*
X109388734Y-94668847D01*
X109388734Y-94668847D02*
X109341115Y-94859323D01*
X109341115Y-94859323D02*
X109293496Y-94954561D01*
X109293496Y-94954561D02*
X109198258Y-95049800D01*
X109198258Y-95049800D02*
X109055401Y-95097419D01*
X109055401Y-95097419D02*
X108960163Y-95097419D01*
X108960163Y-95097419D02*
X108817306Y-95049800D01*
X108817306Y-95049800D02*
X108769687Y-95002180D01*
X108769687Y-95002180D02*
X108769687Y-94668847D01*
X108769687Y-94668847D02*
X108960163Y-94668847D01*
X108341115Y-95097419D02*
X108341115Y-94097419D01*
X108341115Y-94097419D02*
X107769687Y-95097419D01*
X107769687Y-95097419D02*
X107769687Y-94097419D01*
X107293496Y-95097419D02*
X107293496Y-94097419D01*
X107293496Y-94097419D02*
X107055401Y-94097419D01*
X107055401Y-94097419D02*
X106912544Y-94145038D01*
X106912544Y-94145038D02*
X106817306Y-94240276D01*
X106817306Y-94240276D02*
X106769687Y-94335514D01*
X106769687Y-94335514D02*
X106722068Y-94525990D01*
X106722068Y-94525990D02*
X106722068Y-94668847D01*
X106722068Y-94668847D02*
X106769687Y-94859323D01*
X106769687Y-94859323D02*
X106817306Y-94954561D01*
X106817306Y-94954561D02*
X106912544Y-95049800D01*
X106912544Y-95049800D02*
X107055401Y-95097419D01*
X107055401Y-95097419D02*
X107293496Y-95097419D01*
X111591115Y-88597419D02*
X111591115Y-87597419D01*
X111591115Y-87597419D02*
X111210163Y-87597419D01*
X111210163Y-87597419D02*
X111114925Y-87645038D01*
X111114925Y-87645038D02*
X111067306Y-87692657D01*
X111067306Y-87692657D02*
X111019687Y-87787895D01*
X111019687Y-87787895D02*
X111019687Y-87930752D01*
X111019687Y-87930752D02*
X111067306Y-88025990D01*
X111067306Y-88025990D02*
X111114925Y-88073609D01*
X111114925Y-88073609D02*
X111210163Y-88121228D01*
X111210163Y-88121228D02*
X111591115Y-88121228D01*
X110400639Y-87597419D02*
X110210163Y-87597419D01*
X110210163Y-87597419D02*
X110114925Y-87645038D01*
X110114925Y-87645038D02*
X110019687Y-87740276D01*
X110019687Y-87740276D02*
X109972068Y-87930752D01*
X109972068Y-87930752D02*
X109972068Y-88264085D01*
X109972068Y-88264085D02*
X110019687Y-88454561D01*
X110019687Y-88454561D02*
X110114925Y-88549800D01*
X110114925Y-88549800D02*
X110210163Y-88597419D01*
X110210163Y-88597419D02*
X110400639Y-88597419D01*
X110400639Y-88597419D02*
X110495877Y-88549800D01*
X110495877Y-88549800D02*
X110591115Y-88454561D01*
X110591115Y-88454561D02*
X110638734Y-88264085D01*
X110638734Y-88264085D02*
X110638734Y-87930752D01*
X110638734Y-87930752D02*
X110591115Y-87740276D01*
X110591115Y-87740276D02*
X110495877Y-87645038D01*
X110495877Y-87645038D02*
X110400639Y-87597419D01*
X109686353Y-87597419D02*
X109114925Y-87597419D01*
X109400639Y-88597419D02*
X109400639Y-87597419D01*
X112983972Y-94097419D02*
X112650639Y-95097419D01*
X112650639Y-95097419D02*
X112317306Y-94097419D01*
X111412544Y-95002180D02*
X111460163Y-95049800D01*
X111460163Y-95049800D02*
X111603020Y-95097419D01*
X111603020Y-95097419D02*
X111698258Y-95097419D01*
X111698258Y-95097419D02*
X111841115Y-95049800D01*
X111841115Y-95049800D02*
X111936353Y-94954561D01*
X111936353Y-94954561D02*
X111983972Y-94859323D01*
X111983972Y-94859323D02*
X112031591Y-94668847D01*
X112031591Y-94668847D02*
X112031591Y-94525990D01*
X112031591Y-94525990D02*
X111983972Y-94335514D01*
X111983972Y-94335514D02*
X111936353Y-94240276D01*
X111936353Y-94240276D02*
X111841115Y-94145038D01*
X111841115Y-94145038D02*
X111698258Y-94097419D01*
X111698258Y-94097419D02*
X111603020Y-94097419D01*
X111603020Y-94097419D02*
X111460163Y-94145038D01*
X111460163Y-94145038D02*
X111412544Y-94192657D01*
X110412544Y-95002180D02*
X110460163Y-95049800D01*
X110460163Y-95049800D02*
X110603020Y-95097419D01*
X110603020Y-95097419D02*
X110698258Y-95097419D01*
X110698258Y-95097419D02*
X110841115Y-95049800D01*
X110841115Y-95049800D02*
X110936353Y-94954561D01*
X110936353Y-94954561D02*
X110983972Y-94859323D01*
X110983972Y-94859323D02*
X111031591Y-94668847D01*
X111031591Y-94668847D02*
X111031591Y-94525990D01*
X111031591Y-94525990D02*
X110983972Y-94335514D01*
X110983972Y-94335514D02*
X110936353Y-94240276D01*
X110936353Y-94240276D02*
X110841115Y-94145038D01*
X110841115Y-94145038D02*
X110698258Y-94097419D01*
X110698258Y-94097419D02*
X110603020Y-94097419D01*
X110603020Y-94097419D02*
X110460163Y-94145038D01*
X110460163Y-94145038D02*
X110412544Y-94192657D01*
X125257782Y-88073609D02*
X125114925Y-88121228D01*
X125114925Y-88121228D02*
X125067306Y-88168847D01*
X125067306Y-88168847D02*
X125019687Y-88264085D01*
X125019687Y-88264085D02*
X125019687Y-88406942D01*
X125019687Y-88406942D02*
X125067306Y-88502180D01*
X125067306Y-88502180D02*
X125114925Y-88549800D01*
X125114925Y-88549800D02*
X125210163Y-88597419D01*
X125210163Y-88597419D02*
X125591115Y-88597419D01*
X125591115Y-88597419D02*
X125591115Y-87597419D01*
X125591115Y-87597419D02*
X125257782Y-87597419D01*
X125257782Y-87597419D02*
X125162544Y-87645038D01*
X125162544Y-87645038D02*
X125114925Y-87692657D01*
X125114925Y-87692657D02*
X125067306Y-87787895D01*
X125067306Y-87787895D02*
X125067306Y-87883133D01*
X125067306Y-87883133D02*
X125114925Y-87978371D01*
X125114925Y-87978371D02*
X125162544Y-88025990D01*
X125162544Y-88025990D02*
X125257782Y-88073609D01*
X125257782Y-88073609D02*
X125591115Y-88073609D01*
X124733972Y-87597419D02*
X124162544Y-87597419D01*
X124448258Y-88597419D02*
X124448258Y-87597419D01*
X123829210Y-88597419D02*
X123829210Y-87597419D01*
X123829210Y-87597419D02*
X123257782Y-88597419D01*
X123257782Y-88597419D02*
X123257782Y-87597419D01*
X126817306Y-94145038D02*
X126912544Y-94097419D01*
X126912544Y-94097419D02*
X127055401Y-94097419D01*
X127055401Y-94097419D02*
X127198258Y-94145038D01*
X127198258Y-94145038D02*
X127293496Y-94240276D01*
X127293496Y-94240276D02*
X127341115Y-94335514D01*
X127341115Y-94335514D02*
X127388734Y-94525990D01*
X127388734Y-94525990D02*
X127388734Y-94668847D01*
X127388734Y-94668847D02*
X127341115Y-94859323D01*
X127341115Y-94859323D02*
X127293496Y-94954561D01*
X127293496Y-94954561D02*
X127198258Y-95049800D01*
X127198258Y-95049800D02*
X127055401Y-95097419D01*
X127055401Y-95097419D02*
X126960163Y-95097419D01*
X126960163Y-95097419D02*
X126817306Y-95049800D01*
X126817306Y-95049800D02*
X126769687Y-95002180D01*
X126769687Y-95002180D02*
X126769687Y-94668847D01*
X126769687Y-94668847D02*
X126960163Y-94668847D01*
X126341115Y-95097419D02*
X126341115Y-94097419D01*
X126341115Y-94097419D02*
X125769687Y-95097419D01*
X125769687Y-95097419D02*
X125769687Y-94097419D01*
X125293496Y-95097419D02*
X125293496Y-94097419D01*
X125293496Y-94097419D02*
X125055401Y-94097419D01*
X125055401Y-94097419D02*
X124912544Y-94145038D01*
X124912544Y-94145038D02*
X124817306Y-94240276D01*
X124817306Y-94240276D02*
X124769687Y-94335514D01*
X124769687Y-94335514D02*
X124722068Y-94525990D01*
X124722068Y-94525990D02*
X124722068Y-94668847D01*
X124722068Y-94668847D02*
X124769687Y-94859323D01*
X124769687Y-94859323D02*
X124817306Y-94954561D01*
X124817306Y-94954561D02*
X124912544Y-95049800D01*
X124912544Y-95049800D02*
X125055401Y-95097419D01*
X125055401Y-95097419D02*
X125293496Y-95097419D01*
X129591115Y-88597419D02*
X129591115Y-87597419D01*
X129591115Y-87597419D02*
X129210163Y-87597419D01*
X129210163Y-87597419D02*
X129114925Y-87645038D01*
X129114925Y-87645038D02*
X129067306Y-87692657D01*
X129067306Y-87692657D02*
X129019687Y-87787895D01*
X129019687Y-87787895D02*
X129019687Y-87930752D01*
X129019687Y-87930752D02*
X129067306Y-88025990D01*
X129067306Y-88025990D02*
X129114925Y-88073609D01*
X129114925Y-88073609D02*
X129210163Y-88121228D01*
X129210163Y-88121228D02*
X129591115Y-88121228D01*
X128400639Y-87597419D02*
X128210163Y-87597419D01*
X128210163Y-87597419D02*
X128114925Y-87645038D01*
X128114925Y-87645038D02*
X128019687Y-87740276D01*
X128019687Y-87740276D02*
X127972068Y-87930752D01*
X127972068Y-87930752D02*
X127972068Y-88264085D01*
X127972068Y-88264085D02*
X128019687Y-88454561D01*
X128019687Y-88454561D02*
X128114925Y-88549800D01*
X128114925Y-88549800D02*
X128210163Y-88597419D01*
X128210163Y-88597419D02*
X128400639Y-88597419D01*
X128400639Y-88597419D02*
X128495877Y-88549800D01*
X128495877Y-88549800D02*
X128591115Y-88454561D01*
X128591115Y-88454561D02*
X128638734Y-88264085D01*
X128638734Y-88264085D02*
X128638734Y-87930752D01*
X128638734Y-87930752D02*
X128591115Y-87740276D01*
X128591115Y-87740276D02*
X128495877Y-87645038D01*
X128495877Y-87645038D02*
X128400639Y-87597419D01*
X127686353Y-87597419D02*
X127114925Y-87597419D01*
X127400639Y-88597419D02*
X127400639Y-87597419D01*
X130983972Y-94097419D02*
X130650639Y-95097419D01*
X130650639Y-95097419D02*
X130317306Y-94097419D01*
X129412544Y-95002180D02*
X129460163Y-95049800D01*
X129460163Y-95049800D02*
X129603020Y-95097419D01*
X129603020Y-95097419D02*
X129698258Y-95097419D01*
X129698258Y-95097419D02*
X129841115Y-95049800D01*
X129841115Y-95049800D02*
X129936353Y-94954561D01*
X129936353Y-94954561D02*
X129983972Y-94859323D01*
X129983972Y-94859323D02*
X130031591Y-94668847D01*
X130031591Y-94668847D02*
X130031591Y-94525990D01*
X130031591Y-94525990D02*
X129983972Y-94335514D01*
X129983972Y-94335514D02*
X129936353Y-94240276D01*
X129936353Y-94240276D02*
X129841115Y-94145038D01*
X129841115Y-94145038D02*
X129698258Y-94097419D01*
X129698258Y-94097419D02*
X129603020Y-94097419D01*
X129603020Y-94097419D02*
X129460163Y-94145038D01*
X129460163Y-94145038D02*
X129412544Y-94192657D01*
X128412544Y-95002180D02*
X128460163Y-95049800D01*
X128460163Y-95049800D02*
X128603020Y-95097419D01*
X128603020Y-95097419D02*
X128698258Y-95097419D01*
X128698258Y-95097419D02*
X128841115Y-95049800D01*
X128841115Y-95049800D02*
X128936353Y-94954561D01*
X128936353Y-94954561D02*
X128983972Y-94859323D01*
X128983972Y-94859323D02*
X129031591Y-94668847D01*
X129031591Y-94668847D02*
X129031591Y-94525990D01*
X129031591Y-94525990D02*
X128983972Y-94335514D01*
X128983972Y-94335514D02*
X128936353Y-94240276D01*
X128936353Y-94240276D02*
X128841115Y-94145038D01*
X128841115Y-94145038D02*
X128698258Y-94097419D01*
X128698258Y-94097419D02*
X128603020Y-94097419D01*
X128603020Y-94097419D02*
X128460163Y-94145038D01*
X128460163Y-94145038D02*
X128412544Y-94192657D01*
X143257782Y-88073609D02*
X143114925Y-88121228D01*
X143114925Y-88121228D02*
X143067306Y-88168847D01*
X143067306Y-88168847D02*
X143019687Y-88264085D01*
X143019687Y-88264085D02*
X143019687Y-88406942D01*
X143019687Y-88406942D02*
X143067306Y-88502180D01*
X143067306Y-88502180D02*
X143114925Y-88549800D01*
X143114925Y-88549800D02*
X143210163Y-88597419D01*
X143210163Y-88597419D02*
X143591115Y-88597419D01*
X143591115Y-88597419D02*
X143591115Y-87597419D01*
X143591115Y-87597419D02*
X143257782Y-87597419D01*
X143257782Y-87597419D02*
X143162544Y-87645038D01*
X143162544Y-87645038D02*
X143114925Y-87692657D01*
X143114925Y-87692657D02*
X143067306Y-87787895D01*
X143067306Y-87787895D02*
X143067306Y-87883133D01*
X143067306Y-87883133D02*
X143114925Y-87978371D01*
X143114925Y-87978371D02*
X143162544Y-88025990D01*
X143162544Y-88025990D02*
X143257782Y-88073609D01*
X143257782Y-88073609D02*
X143591115Y-88073609D01*
X142733972Y-87597419D02*
X142162544Y-87597419D01*
X142448258Y-88597419D02*
X142448258Y-87597419D01*
X141829210Y-88597419D02*
X141829210Y-87597419D01*
X141829210Y-87597419D02*
X141257782Y-88597419D01*
X141257782Y-88597419D02*
X141257782Y-87597419D01*
X144817306Y-94145038D02*
X144912544Y-94097419D01*
X144912544Y-94097419D02*
X145055401Y-94097419D01*
X145055401Y-94097419D02*
X145198258Y-94145038D01*
X145198258Y-94145038D02*
X145293496Y-94240276D01*
X145293496Y-94240276D02*
X145341115Y-94335514D01*
X145341115Y-94335514D02*
X145388734Y-94525990D01*
X145388734Y-94525990D02*
X145388734Y-94668847D01*
X145388734Y-94668847D02*
X145341115Y-94859323D01*
X145341115Y-94859323D02*
X145293496Y-94954561D01*
X145293496Y-94954561D02*
X145198258Y-95049800D01*
X145198258Y-95049800D02*
X145055401Y-95097419D01*
X145055401Y-95097419D02*
X144960163Y-95097419D01*
X144960163Y-95097419D02*
X144817306Y-95049800D01*
X144817306Y-95049800D02*
X144769687Y-95002180D01*
X144769687Y-95002180D02*
X144769687Y-94668847D01*
X144769687Y-94668847D02*
X144960163Y-94668847D01*
X144341115Y-95097419D02*
X144341115Y-94097419D01*
X144341115Y-94097419D02*
X143769687Y-95097419D01*
X143769687Y-95097419D02*
X143769687Y-94097419D01*
X143293496Y-95097419D02*
X143293496Y-94097419D01*
X143293496Y-94097419D02*
X143055401Y-94097419D01*
X143055401Y-94097419D02*
X142912544Y-94145038D01*
X142912544Y-94145038D02*
X142817306Y-94240276D01*
X142817306Y-94240276D02*
X142769687Y-94335514D01*
X142769687Y-94335514D02*
X142722068Y-94525990D01*
X142722068Y-94525990D02*
X142722068Y-94668847D01*
X142722068Y-94668847D02*
X142769687Y-94859323D01*
X142769687Y-94859323D02*
X142817306Y-94954561D01*
X142817306Y-94954561D02*
X142912544Y-95049800D01*
X142912544Y-95049800D02*
X143055401Y-95097419D01*
X143055401Y-95097419D02*
X143293496Y-95097419D01*
X147591115Y-88597419D02*
X147591115Y-87597419D01*
X147591115Y-87597419D02*
X147210163Y-87597419D01*
X147210163Y-87597419D02*
X147114925Y-87645038D01*
X147114925Y-87645038D02*
X147067306Y-87692657D01*
X147067306Y-87692657D02*
X147019687Y-87787895D01*
X147019687Y-87787895D02*
X147019687Y-87930752D01*
X147019687Y-87930752D02*
X147067306Y-88025990D01*
X147067306Y-88025990D02*
X147114925Y-88073609D01*
X147114925Y-88073609D02*
X147210163Y-88121228D01*
X147210163Y-88121228D02*
X147591115Y-88121228D01*
X146400639Y-87597419D02*
X146210163Y-87597419D01*
X146210163Y-87597419D02*
X146114925Y-87645038D01*
X146114925Y-87645038D02*
X146019687Y-87740276D01*
X146019687Y-87740276D02*
X145972068Y-87930752D01*
X145972068Y-87930752D02*
X145972068Y-88264085D01*
X145972068Y-88264085D02*
X146019687Y-88454561D01*
X146019687Y-88454561D02*
X146114925Y-88549800D01*
X146114925Y-88549800D02*
X146210163Y-88597419D01*
X146210163Y-88597419D02*
X146400639Y-88597419D01*
X146400639Y-88597419D02*
X146495877Y-88549800D01*
X146495877Y-88549800D02*
X146591115Y-88454561D01*
X146591115Y-88454561D02*
X146638734Y-88264085D01*
X146638734Y-88264085D02*
X146638734Y-87930752D01*
X146638734Y-87930752D02*
X146591115Y-87740276D01*
X146591115Y-87740276D02*
X146495877Y-87645038D01*
X146495877Y-87645038D02*
X146400639Y-87597419D01*
X145686353Y-87597419D02*
X145114925Y-87597419D01*
X145400639Y-88597419D02*
X145400639Y-87597419D01*
X148983972Y-94097419D02*
X148650639Y-95097419D01*
X148650639Y-95097419D02*
X148317306Y-94097419D01*
X147412544Y-95002180D02*
X147460163Y-95049800D01*
X147460163Y-95049800D02*
X147603020Y-95097419D01*
X147603020Y-95097419D02*
X147698258Y-95097419D01*
X147698258Y-95097419D02*
X147841115Y-95049800D01*
X147841115Y-95049800D02*
X147936353Y-94954561D01*
X147936353Y-94954561D02*
X147983972Y-94859323D01*
X147983972Y-94859323D02*
X148031591Y-94668847D01*
X148031591Y-94668847D02*
X148031591Y-94525990D01*
X148031591Y-94525990D02*
X147983972Y-94335514D01*
X147983972Y-94335514D02*
X147936353Y-94240276D01*
X147936353Y-94240276D02*
X147841115Y-94145038D01*
X147841115Y-94145038D02*
X147698258Y-94097419D01*
X147698258Y-94097419D02*
X147603020Y-94097419D01*
X147603020Y-94097419D02*
X147460163Y-94145038D01*
X147460163Y-94145038D02*
X147412544Y-94192657D01*
X146412544Y-95002180D02*
X146460163Y-95049800D01*
X146460163Y-95049800D02*
X146603020Y-95097419D01*
X146603020Y-95097419D02*
X146698258Y-95097419D01*
X146698258Y-95097419D02*
X146841115Y-95049800D01*
X146841115Y-95049800D02*
X146936353Y-94954561D01*
X146936353Y-94954561D02*
X146983972Y-94859323D01*
X146983972Y-94859323D02*
X147031591Y-94668847D01*
X147031591Y-94668847D02*
X147031591Y-94525990D01*
X147031591Y-94525990D02*
X146983972Y-94335514D01*
X146983972Y-94335514D02*
X146936353Y-94240276D01*
X146936353Y-94240276D02*
X146841115Y-94145038D01*
X146841115Y-94145038D02*
X146698258Y-94097419D01*
X146698258Y-94097419D02*
X146603020Y-94097419D01*
X146603020Y-94097419D02*
X146460163Y-94145038D01*
X146460163Y-94145038D02*
X146412544Y-94192657D01*
X161257782Y-88073609D02*
X161114925Y-88121228D01*
X161114925Y-88121228D02*
X161067306Y-88168847D01*
X161067306Y-88168847D02*
X161019687Y-88264085D01*
X161019687Y-88264085D02*
X161019687Y-88406942D01*
X161019687Y-88406942D02*
X161067306Y-88502180D01*
X161067306Y-88502180D02*
X161114925Y-88549800D01*
X161114925Y-88549800D02*
X161210163Y-88597419D01*
X161210163Y-88597419D02*
X161591115Y-88597419D01*
X161591115Y-88597419D02*
X161591115Y-87597419D01*
X161591115Y-87597419D02*
X161257782Y-87597419D01*
X161257782Y-87597419D02*
X161162544Y-87645038D01*
X161162544Y-87645038D02*
X161114925Y-87692657D01*
X161114925Y-87692657D02*
X161067306Y-87787895D01*
X161067306Y-87787895D02*
X161067306Y-87883133D01*
X161067306Y-87883133D02*
X161114925Y-87978371D01*
X161114925Y-87978371D02*
X161162544Y-88025990D01*
X161162544Y-88025990D02*
X161257782Y-88073609D01*
X161257782Y-88073609D02*
X161591115Y-88073609D01*
X160733972Y-87597419D02*
X160162544Y-87597419D01*
X160448258Y-88597419D02*
X160448258Y-87597419D01*
X159829210Y-88597419D02*
X159829210Y-87597419D01*
X159829210Y-87597419D02*
X159257782Y-88597419D01*
X159257782Y-88597419D02*
X159257782Y-87597419D01*
X162817306Y-94145038D02*
X162912544Y-94097419D01*
X162912544Y-94097419D02*
X163055401Y-94097419D01*
X163055401Y-94097419D02*
X163198258Y-94145038D01*
X163198258Y-94145038D02*
X163293496Y-94240276D01*
X163293496Y-94240276D02*
X163341115Y-94335514D01*
X163341115Y-94335514D02*
X163388734Y-94525990D01*
X163388734Y-94525990D02*
X163388734Y-94668847D01*
X163388734Y-94668847D02*
X163341115Y-94859323D01*
X163341115Y-94859323D02*
X163293496Y-94954561D01*
X163293496Y-94954561D02*
X163198258Y-95049800D01*
X163198258Y-95049800D02*
X163055401Y-95097419D01*
X163055401Y-95097419D02*
X162960163Y-95097419D01*
X162960163Y-95097419D02*
X162817306Y-95049800D01*
X162817306Y-95049800D02*
X162769687Y-95002180D01*
X162769687Y-95002180D02*
X162769687Y-94668847D01*
X162769687Y-94668847D02*
X162960163Y-94668847D01*
X162341115Y-95097419D02*
X162341115Y-94097419D01*
X162341115Y-94097419D02*
X161769687Y-95097419D01*
X161769687Y-95097419D02*
X161769687Y-94097419D01*
X161293496Y-95097419D02*
X161293496Y-94097419D01*
X161293496Y-94097419D02*
X161055401Y-94097419D01*
X161055401Y-94097419D02*
X160912544Y-94145038D01*
X160912544Y-94145038D02*
X160817306Y-94240276D01*
X160817306Y-94240276D02*
X160769687Y-94335514D01*
X160769687Y-94335514D02*
X160722068Y-94525990D01*
X160722068Y-94525990D02*
X160722068Y-94668847D01*
X160722068Y-94668847D02*
X160769687Y-94859323D01*
X160769687Y-94859323D02*
X160817306Y-94954561D01*
X160817306Y-94954561D02*
X160912544Y-95049800D01*
X160912544Y-95049800D02*
X161055401Y-95097419D01*
X161055401Y-95097419D02*
X161293496Y-95097419D01*
X165591115Y-88597419D02*
X165591115Y-87597419D01*
X165591115Y-87597419D02*
X165210163Y-87597419D01*
X165210163Y-87597419D02*
X165114925Y-87645038D01*
X165114925Y-87645038D02*
X165067306Y-87692657D01*
X165067306Y-87692657D02*
X165019687Y-87787895D01*
X165019687Y-87787895D02*
X165019687Y-87930752D01*
X165019687Y-87930752D02*
X165067306Y-88025990D01*
X165067306Y-88025990D02*
X165114925Y-88073609D01*
X165114925Y-88073609D02*
X165210163Y-88121228D01*
X165210163Y-88121228D02*
X165591115Y-88121228D01*
X164400639Y-87597419D02*
X164210163Y-87597419D01*
X164210163Y-87597419D02*
X164114925Y-87645038D01*
X164114925Y-87645038D02*
X164019687Y-87740276D01*
X164019687Y-87740276D02*
X163972068Y-87930752D01*
X163972068Y-87930752D02*
X163972068Y-88264085D01*
X163972068Y-88264085D02*
X164019687Y-88454561D01*
X164019687Y-88454561D02*
X164114925Y-88549800D01*
X164114925Y-88549800D02*
X164210163Y-88597419D01*
X164210163Y-88597419D02*
X164400639Y-88597419D01*
X164400639Y-88597419D02*
X164495877Y-88549800D01*
X164495877Y-88549800D02*
X164591115Y-88454561D01*
X164591115Y-88454561D02*
X164638734Y-88264085D01*
X164638734Y-88264085D02*
X164638734Y-87930752D01*
X164638734Y-87930752D02*
X164591115Y-87740276D01*
X164591115Y-87740276D02*
X164495877Y-87645038D01*
X164495877Y-87645038D02*
X164400639Y-87597419D01*
X163686353Y-87597419D02*
X163114925Y-87597419D01*
X163400639Y-88597419D02*
X163400639Y-87597419D01*
X166983972Y-94097419D02*
X166650639Y-95097419D01*
X166650639Y-95097419D02*
X166317306Y-94097419D01*
X165412544Y-95002180D02*
X165460163Y-95049800D01*
X165460163Y-95049800D02*
X165603020Y-95097419D01*
X165603020Y-95097419D02*
X165698258Y-95097419D01*
X165698258Y-95097419D02*
X165841115Y-95049800D01*
X165841115Y-95049800D02*
X165936353Y-94954561D01*
X165936353Y-94954561D02*
X165983972Y-94859323D01*
X165983972Y-94859323D02*
X166031591Y-94668847D01*
X166031591Y-94668847D02*
X166031591Y-94525990D01*
X166031591Y-94525990D02*
X165983972Y-94335514D01*
X165983972Y-94335514D02*
X165936353Y-94240276D01*
X165936353Y-94240276D02*
X165841115Y-94145038D01*
X165841115Y-94145038D02*
X165698258Y-94097419D01*
X165698258Y-94097419D02*
X165603020Y-94097419D01*
X165603020Y-94097419D02*
X165460163Y-94145038D01*
X165460163Y-94145038D02*
X165412544Y-94192657D01*
X164412544Y-95002180D02*
X164460163Y-95049800D01*
X164460163Y-95049800D02*
X164603020Y-95097419D01*
X164603020Y-95097419D02*
X164698258Y-95097419D01*
X164698258Y-95097419D02*
X164841115Y-95049800D01*
X164841115Y-95049800D02*
X164936353Y-94954561D01*
X164936353Y-94954561D02*
X164983972Y-94859323D01*
X164983972Y-94859323D02*
X165031591Y-94668847D01*
X165031591Y-94668847D02*
X165031591Y-94525990D01*
X165031591Y-94525990D02*
X164983972Y-94335514D01*
X164983972Y-94335514D02*
X164936353Y-94240276D01*
X164936353Y-94240276D02*
X164841115Y-94145038D01*
X164841115Y-94145038D02*
X164698258Y-94097419D01*
X164698258Y-94097419D02*
X164603020Y-94097419D01*
X164603020Y-94097419D02*
X164460163Y-94145038D01*
X164460163Y-94145038D02*
X164412544Y-94192657D01*
%LPC*%
D11*
X122645000Y-67975000D03*
X125145000Y-67975000D03*
D12*
X144265000Y-57815000D03*
D13*
X144265000Y-60355000D03*
X144265000Y-62895000D03*
X144265000Y-65435000D03*
X144265000Y-67975000D03*
X144265000Y-70515000D03*
X144265000Y-73055000D03*
X144265000Y-75595000D03*
X144265000Y-78135000D03*
X141725000Y-78135000D03*
X139185000Y-78135000D03*
X136645000Y-78135000D03*
X134105000Y-78135000D03*
X131565000Y-78135000D03*
X129025000Y-78135000D03*
X129025000Y-75595000D03*
X129025000Y-73055000D03*
X129025000Y-70515000D03*
X129025000Y-67975000D03*
X129025000Y-65435000D03*
X129025000Y-62895000D03*
X129025000Y-60355000D03*
X129025000Y-57815000D03*
D11*
X122645000Y-63975000D03*
X125145000Y-63975000D03*
X122645000Y-75975000D03*
X125145000Y-75975000D03*
D14*
X95645000Y-94975000D03*
X177645000Y-94975000D03*
D15*
X103145000Y-94873000D03*
X115145000Y-94873000D03*
D16*
X108645000Y-92475000D03*
D17*
X107645000Y-89975000D03*
X110645000Y-92475000D03*
X109645000Y-89975000D03*
D11*
X168995000Y-58975000D03*
X156295000Y-58975000D03*
D14*
X95645000Y-59975000D03*
D11*
X169295000Y-70975000D03*
X156595000Y-70975000D03*
D15*
X121145000Y-94873000D03*
X133145000Y-94873000D03*
D16*
X126645000Y-92475000D03*
D17*
X125645000Y-89975000D03*
X128645000Y-92475000D03*
X127645000Y-89975000D03*
D15*
X139145000Y-94873000D03*
X151145000Y-94873000D03*
D16*
X144645000Y-92475000D03*
D17*
X143645000Y-89975000D03*
X146645000Y-92475000D03*
X145645000Y-89975000D03*
D11*
X169295000Y-64975000D03*
X156595000Y-64975000D03*
X122645000Y-71975000D03*
X125145000Y-71975000D03*
D14*
X177645000Y-59975000D03*
D11*
X169295000Y-76975000D03*
X156595000Y-76975000D03*
D15*
X157145000Y-94873000D03*
X169145000Y-94873000D03*
D16*
X162645000Y-92475000D03*
D17*
X161645000Y-89975000D03*
X164645000Y-92475000D03*
X163645000Y-89975000D03*
%LPD*%
M02*
