M48
; DRILL file KiCad 10.0.2 date 2026-05-16T20:56:23
; FORMAT={-:-/ absolute / metric / decimal}
; #@! TF.CreationDate,2026-05-16T20:56:23-04:00
; #@! TF.GenerationSoftware,Kicad,Pcbnew,10.0.2
; #@! TF.FileFunction,Plated,1,2,PTH
FMAT,2
METRIC
; #@! TA.AperFunction,Plated,PTH,ViaDrill
T1C0.300
; #@! TA.AperFunction,Plated,PTH,ComponentDrill
T2C0.800
; #@! TA.AperFunction,Plated,PTH,ComponentDrill
T3C0.900
; #@! TA.AperFunction,Plated,PTH,ComponentDrill
T4C1.000
%
G90
G05
T1
X106.145Y-92.475
X106.395Y-94.475
X108.395Y-95.975
X109.645Y-87.475
X112.145Y-87.975
X113.895Y-89.225
X118.895Y-66.725
X120.145Y-74.475
X120.145Y-77.475
X120.645Y-70.975
X121.145Y-89.475
X121.645Y-78.975
X121.895Y-59.725
X122.645Y-69.975
X122.645Y-88.475
X123.645Y-92.475
X125.145Y-94.975
X126.145Y-60.225
X128.645Y-94.975
X132.145Y-60.725
X135.145Y-60.725
X140.645Y-61.975
X141.145Y-91.475
X142.145Y-94.475
X145.645Y-95.475
X146.645Y-61.975
X146.645Y-69.975
X146.645Y-74.975
X146.645Y-77.975
X146.645Y-80.975
X153.645Y-77.975
X156.645Y-79.975
X158.645Y-81.975
X159.145Y-90.475
X160.645Y-93.975
X163.645Y-94.975
T2
X122.645Y-63.975
X122.645Y-67.975
X122.645Y-71.975
X122.645Y-75.975
X125.145Y-63.975
X125.145Y-67.975
X125.145Y-71.975
X125.145Y-75.975
X156.295Y-58.975
X156.595Y-64.975
X156.595Y-70.975
X156.595Y-76.975
X168.995Y-58.975
X169.295Y-64.975
X169.295Y-70.975
X169.295Y-76.975
T3
X107.645Y-89.975
X108.645Y-92.475
X109.645Y-89.975
X110.645Y-92.475
X125.645Y-89.975
X126.645Y-92.475
X127.645Y-89.975
X128.645Y-92.475
X143.645Y-89.975
X144.645Y-92.475
X145.645Y-89.975
X146.645Y-92.475
X161.645Y-89.975
X162.645Y-92.475
X163.645Y-89.975
X164.645Y-92.475
T4
X129.025Y-57.815
X129.025Y-60.355
X129.025Y-62.895
X129.025Y-65.435
X129.025Y-67.975
X129.025Y-70.515
X129.025Y-73.055
X129.025Y-75.595
X129.025Y-78.135
X131.565Y-78.135
X134.105Y-78.135
X136.645Y-78.135
X139.185Y-78.135
X141.725Y-78.135
X144.265Y-57.815
X144.265Y-60.355
X144.265Y-62.895
X144.265Y-65.435
X144.265Y-67.975
X144.265Y-70.515
X144.265Y-73.055
X144.265Y-75.595
X144.265Y-78.135
M30
