%TF.GenerationSoftware,KiCad,Pcbnew,10.0.2*%
%TF.CreationDate,2026-05-16T20:56:20-04:00*%
%TF.ProjectId,usbPaddleKicad,75736250-6164-4646-9c65-4b696361642e,rev?*%
%TF.SameCoordinates,Original*%
%TF.FileFunction,Legend,Top*%
%TF.FilePolarity,Positive*%
%FSLAX46Y46*%
G04 Gerber Fmt 4.6, Leading zero omitted, Abs format (unit mm)*
G04 Created by KiCad (PCBNEW 10.0.2) date 2026-05-16 20:56:20*
%MOMM*%
%LPD*%
G01*
G04 APERTURE LIST*
G04 Aperture macros list*
%AMRoundRect*
0 Rectangle with rounded corners*
0 $1 Rounding radius*
0 $2 $3 $4 $5 $6 $7 $8 $9 X,Y pos of 4 corners*
0 Add a 4 corners polygon primitive as box body*
4,1,4,$2,$3,$4,$5,$6,$7,$8,$9,$2,$3,0*
0 Add four circle primitives for the rounded corners*
1,1,$1+$1,$2,$3*
1,1,$1+$1,$4,$5*
1,1,$1+$1,$6,$7*
1,1,$1+$1,$8,$9*
0 Add four rect primitives between the rounded corners*
20,1,$1+$1,$2,$3,$4,$5,0*
20,1,$1+$1,$4,$5,$6,$7,0*
20,1,$1+$1,$6,$7,$8,$9,0*
20,1,$1+$1,$8,$9,$2,$3,0*%
G04 Aperture macros list end*
%ADD10C,0.000000*%
%ADD11C,0.100000*%
%ADD12C,0.300000*%
%ADD13C,0.150000*%
%ADD14C,0.120000*%
%ADD15C,0.127000*%
%ADD16C,0.200000*%
%ADD17C,1.600000*%
%ADD18RoundRect,0.102000X-0.754000X-0.754000X0.754000X-0.754000X0.754000X0.754000X-0.754000X0.754000X0*%
%ADD19C,1.712000*%
%ADD20C,3.500000*%
%ADD21C,3.200000*%
%ADD22RoundRect,0.102000X-0.704000X-0.704000X0.704000X-0.704000X0.704000X0.704000X-0.704000X0.704000X0*%
%ADD23C,1.612000*%
G04 APERTURE END LIST*
D10*
G36*
X177176165Y-78320524D02*
G01*
X176081993Y-78320524D01*
X176081993Y-77882854D01*
X177176165Y-77882854D01*
X177176165Y-78320524D01*
G37*
G36*
X176957331Y-75256833D02*
G01*
X176738497Y-75256833D01*
X176738497Y-74819172D01*
X176957331Y-74819172D01*
X176957331Y-75256833D01*
G37*
G36*
X176519660Y-82697220D02*
G01*
X176738497Y-82697220D01*
X176738497Y-82916051D01*
X176081993Y-82916051D01*
X176081993Y-82478385D01*
X176519660Y-82478385D01*
X176519660Y-82697220D01*
G37*
G36*
X176519660Y-84229061D02*
G01*
X176738497Y-84229061D01*
X176738497Y-84447894D01*
X176081993Y-84447894D01*
X176081993Y-84010228D01*
X176519660Y-84010228D01*
X176519660Y-84229061D01*
G37*
G36*
X176519660Y-85760903D02*
G01*
X176738497Y-85760903D01*
X176738497Y-85979736D01*
X176081993Y-85979736D01*
X176081993Y-85542068D01*
X176519660Y-85542068D01*
X176519660Y-85760903D01*
G37*
G36*
X177176165Y-82916051D02*
G01*
X176957331Y-82916051D01*
X176957331Y-82697220D01*
X176738497Y-82697220D01*
X176738497Y-82478385D01*
X177176165Y-82478385D01*
X177176165Y-82916051D01*
G37*
G36*
X177176165Y-84447894D02*
G01*
X176957331Y-84447894D01*
X176957331Y-84229061D01*
X176738497Y-84229061D01*
X176738497Y-84010228D01*
X177176165Y-84010228D01*
X177176165Y-84447894D01*
G37*
G36*
X177176165Y-85979735D02*
G01*
X176957331Y-85979735D01*
X176957331Y-85760903D01*
X176738497Y-85760903D01*
X176738497Y-85542068D01*
X177176165Y-85542068D01*
X177176165Y-85979735D01*
G37*
G36*
X177176164Y-67997472D02*
G01*
X177885099Y-67997472D01*
X177885099Y-86941556D01*
X175384313Y-86941556D01*
X175384313Y-85323235D01*
X175863155Y-85323235D01*
X175863155Y-86198574D01*
X176081993Y-86198574D01*
X176081993Y-86417410D01*
X177176165Y-86417410D01*
X177176165Y-86198574D01*
X177395000Y-86198574D01*
X177395000Y-85323235D01*
X177176165Y-85323235D01*
X177176165Y-85104401D01*
X176081993Y-85104401D01*
X176081993Y-85323235D01*
X175863155Y-85323235D01*
X175384313Y-85323235D01*
X175384313Y-83791394D01*
X175863155Y-83791394D01*
X175863155Y-84666727D01*
X176081993Y-84666727D01*
X176081993Y-84885566D01*
X177176165Y-84885566D01*
X177176165Y-84666730D01*
X177395000Y-84666730D01*
X177395000Y-83791394D01*
X177176165Y-83791394D01*
X177176165Y-83572556D01*
X176081993Y-83572556D01*
X176081993Y-83791394D01*
X175863155Y-83791394D01*
X175384313Y-83791394D01*
X175384313Y-82259552D01*
X175863155Y-82259552D01*
X175863155Y-83134886D01*
X176081993Y-83134886D01*
X176081993Y-83353723D01*
X177176165Y-83353723D01*
X177176165Y-83134886D01*
X177395000Y-83134886D01*
X177395000Y-82259552D01*
X177176165Y-82259552D01*
X177176165Y-82040711D01*
X176081993Y-82040711D01*
X176081993Y-82259552D01*
X175863155Y-82259552D01*
X175384313Y-82259552D01*
X175384313Y-80727707D01*
X175863155Y-80727707D01*
X175863155Y-81603045D01*
X176081993Y-81603045D01*
X176081993Y-81821879D01*
X176519660Y-81821879D01*
X176519660Y-81603045D01*
X176738497Y-81603045D01*
X176738497Y-81821879D01*
X177176165Y-81821879D01*
X177176165Y-81603045D01*
X177395000Y-81603045D01*
X177395000Y-80727707D01*
X177176164Y-80727707D01*
X177176164Y-80508872D01*
X176957330Y-80508872D01*
X176957330Y-80946547D01*
X177176164Y-80946547D01*
X177176164Y-81384208D01*
X176738496Y-81384208D01*
X176738496Y-80946547D01*
X176519660Y-80946547D01*
X176519660Y-81384208D01*
X176081993Y-81384208D01*
X176081993Y-80946547D01*
X176300824Y-80946547D01*
X176300824Y-80508872D01*
X176081993Y-80508872D01*
X176081993Y-80727707D01*
X175863155Y-80727707D01*
X175384313Y-80727707D01*
X175384313Y-79414701D01*
X175863155Y-79414701D01*
X176300824Y-79414701D01*
X176300824Y-79852368D01*
X175863155Y-79852368D01*
X175863155Y-80290039D01*
X176300825Y-80290039D01*
X176300825Y-80071203D01*
X176519660Y-80071203D01*
X176519660Y-79852368D01*
X176738497Y-79852368D01*
X176738497Y-80071203D01*
X176957331Y-80071203D01*
X176957331Y-80290039D01*
X177176164Y-80290039D01*
X177395000Y-80290039D01*
X177395000Y-79852368D01*
X176957331Y-79852368D01*
X176957331Y-79414701D01*
X177395000Y-79414701D01*
X177395000Y-78977033D01*
X176957330Y-78977033D01*
X176957330Y-79195866D01*
X176738496Y-79195866D01*
X176738496Y-79414701D01*
X176519660Y-79414701D01*
X176519660Y-79195866D01*
X176300824Y-79195866D01*
X176300824Y-78977033D01*
X175863155Y-78977033D01*
X175863155Y-79414701D01*
X175384313Y-79414701D01*
X175384313Y-77664020D01*
X175863155Y-77664020D01*
X175863155Y-78539359D01*
X176081993Y-78539359D01*
X176081993Y-78758194D01*
X176957330Y-78758194D01*
X177176165Y-78758194D01*
X177176165Y-78539359D01*
X177395000Y-78539359D01*
X177395000Y-77664020D01*
X177176165Y-77664020D01*
X177176165Y-77445190D01*
X176081993Y-77445190D01*
X176081993Y-77664020D01*
X175863155Y-77664020D01*
X175384313Y-77664020D01*
X175384313Y-76351016D01*
X175863155Y-76351016D01*
X175863155Y-76788681D01*
X176081993Y-76788681D01*
X176081993Y-77007518D01*
X176300824Y-77007518D01*
X176300824Y-77226352D01*
X177176165Y-77226352D01*
X177395000Y-77226352D01*
X177395000Y-76788681D01*
X176300824Y-76788681D01*
X176300824Y-76351016D01*
X177395000Y-76351016D01*
X177395000Y-75913343D01*
X176300824Y-75913343D01*
X176300824Y-76132178D01*
X176081993Y-76132178D01*
X176081993Y-76351016D01*
X175863155Y-76351016D01*
X175384313Y-76351016D01*
X175384313Y-74381500D01*
X175863155Y-74381500D01*
X175863155Y-74819174D01*
X176519660Y-74819174D01*
X176519660Y-75256840D01*
X175863155Y-75256840D01*
X175863155Y-75694511D01*
X176300824Y-75694511D01*
X176957331Y-75694511D01*
X176957331Y-75475675D01*
X177176165Y-75475675D01*
X177176165Y-75256840D01*
X177395000Y-75256840D01*
X177395000Y-74819172D01*
X177176165Y-74819178D01*
X177176165Y-74600337D01*
X176957331Y-74600337D01*
X176957331Y-74381500D01*
X175863155Y-74381500D01*
X175384313Y-74381500D01*
X175384313Y-73068497D01*
X175863155Y-73068497D01*
X176738497Y-73068497D01*
X176738497Y-73287329D01*
X176519660Y-73287329D01*
X176519660Y-73506160D01*
X176738497Y-73506160D01*
X176738497Y-73725000D01*
X175863155Y-73725000D01*
X175863155Y-74162666D01*
X176957331Y-74162666D01*
X177395000Y-74162666D01*
X177395000Y-73725000D01*
X177176165Y-73725000D01*
X177176165Y-73506160D01*
X176957331Y-73506160D01*
X176957331Y-73287329D01*
X177176165Y-73287329D01*
X177176165Y-73068497D01*
X177395000Y-73068497D01*
X177395000Y-72630828D01*
X175863155Y-72630828D01*
X175863155Y-73068497D01*
X175384313Y-73068497D01*
X175384313Y-72411992D01*
X175863155Y-72411992D01*
X176081993Y-72411992D01*
X176081993Y-72193151D01*
X177176165Y-72193151D01*
X177176165Y-72411992D01*
X177395000Y-72411992D01*
X177395000Y-71536648D01*
X177176165Y-71536648D01*
X177176165Y-71755489D01*
X176081993Y-71755489D01*
X176081993Y-71536648D01*
X175863155Y-71536648D01*
X175863155Y-72411992D01*
X175384313Y-72411992D01*
X175384313Y-70442478D01*
X175863155Y-70442478D01*
X176519660Y-70442478D01*
X176519660Y-70880153D01*
X175863155Y-70880153D01*
X175863155Y-71317817D01*
X177176165Y-71317817D01*
X177395000Y-71317817D01*
X177395000Y-70880153D01*
X176738496Y-70880153D01*
X176738496Y-70442478D01*
X177395000Y-70442478D01*
X177395000Y-70004811D01*
X175863155Y-70004811D01*
X175863155Y-70442478D01*
X175384313Y-70442478D01*
X175384313Y-68691800D01*
X175863155Y-68691800D01*
X175863155Y-69567138D01*
X176081993Y-69567138D01*
X176081993Y-69785971D01*
X176519660Y-69785971D01*
X176519660Y-69567138D01*
X176738497Y-69567138D01*
X176738497Y-68910630D01*
X177176165Y-68910630D01*
X177176165Y-69348308D01*
X176957331Y-69348308D01*
X176957331Y-69785971D01*
X177176165Y-69785971D01*
X177176165Y-69567138D01*
X177395000Y-69567138D01*
X177395000Y-68691800D01*
X177176164Y-68691799D01*
X177176164Y-68472967D01*
X176738496Y-68472967D01*
X176738496Y-68691800D01*
X176519660Y-68691800D01*
X176519660Y-69348308D01*
X176081993Y-69348308D01*
X176081993Y-68910630D01*
X176300824Y-68910630D01*
X176300824Y-68472967D01*
X176081993Y-68472967D01*
X176081993Y-68691800D01*
X175863155Y-68691800D01*
X175384313Y-68691800D01*
X175384313Y-67997472D01*
X177176164Y-67997472D01*
G37*
D11*
X93698884Y-77767587D02*
X93698884Y-76767587D01*
X93698884Y-76767587D02*
X94079836Y-76767587D01*
X94079836Y-76767587D02*
X94175074Y-76815206D01*
X94175074Y-76815206D02*
X94222693Y-76862825D01*
X94222693Y-76862825D02*
X94270312Y-76958063D01*
X94270312Y-76958063D02*
X94270312Y-77100920D01*
X94270312Y-77100920D02*
X94222693Y-77196158D01*
X94222693Y-77196158D02*
X94175074Y-77243777D01*
X94175074Y-77243777D02*
X94079836Y-77291396D01*
X94079836Y-77291396D02*
X93698884Y-77291396D01*
X95127455Y-77767587D02*
X95127455Y-77243777D01*
X95127455Y-77243777D02*
X95079836Y-77148539D01*
X95079836Y-77148539D02*
X94984598Y-77100920D01*
X94984598Y-77100920D02*
X94794122Y-77100920D01*
X94794122Y-77100920D02*
X94698884Y-77148539D01*
X95127455Y-77719968D02*
X95032217Y-77767587D01*
X95032217Y-77767587D02*
X94794122Y-77767587D01*
X94794122Y-77767587D02*
X94698884Y-77719968D01*
X94698884Y-77719968D02*
X94651265Y-77624729D01*
X94651265Y-77624729D02*
X94651265Y-77529491D01*
X94651265Y-77529491D02*
X94698884Y-77434253D01*
X94698884Y-77434253D02*
X94794122Y-77386634D01*
X94794122Y-77386634D02*
X95032217Y-77386634D01*
X95032217Y-77386634D02*
X95127455Y-77339015D01*
X96032217Y-77767587D02*
X96032217Y-76767587D01*
X96032217Y-77719968D02*
X95936979Y-77767587D01*
X95936979Y-77767587D02*
X95746503Y-77767587D01*
X95746503Y-77767587D02*
X95651265Y-77719968D01*
X95651265Y-77719968D02*
X95603646Y-77672348D01*
X95603646Y-77672348D02*
X95556027Y-77577110D01*
X95556027Y-77577110D02*
X95556027Y-77291396D01*
X95556027Y-77291396D02*
X95603646Y-77196158D01*
X95603646Y-77196158D02*
X95651265Y-77148539D01*
X95651265Y-77148539D02*
X95746503Y-77100920D01*
X95746503Y-77100920D02*
X95936979Y-77100920D01*
X95936979Y-77100920D02*
X96032217Y-77148539D01*
X96936979Y-77767587D02*
X96936979Y-76767587D01*
X96936979Y-77719968D02*
X96841741Y-77767587D01*
X96841741Y-77767587D02*
X96651265Y-77767587D01*
X96651265Y-77767587D02*
X96556027Y-77719968D01*
X96556027Y-77719968D02*
X96508408Y-77672348D01*
X96508408Y-77672348D02*
X96460789Y-77577110D01*
X96460789Y-77577110D02*
X96460789Y-77291396D01*
X96460789Y-77291396D02*
X96508408Y-77196158D01*
X96508408Y-77196158D02*
X96556027Y-77148539D01*
X96556027Y-77148539D02*
X96651265Y-77100920D01*
X96651265Y-77100920D02*
X96841741Y-77100920D01*
X96841741Y-77100920D02*
X96936979Y-77148539D01*
X97556027Y-77767587D02*
X97460789Y-77719968D01*
X97460789Y-77719968D02*
X97413170Y-77624729D01*
X97413170Y-77624729D02*
X97413170Y-76767587D01*
X98317932Y-77719968D02*
X98222694Y-77767587D01*
X98222694Y-77767587D02*
X98032218Y-77767587D01*
X98032218Y-77767587D02*
X97936980Y-77719968D01*
X97936980Y-77719968D02*
X97889361Y-77624729D01*
X97889361Y-77624729D02*
X97889361Y-77243777D01*
X97889361Y-77243777D02*
X97936980Y-77148539D01*
X97936980Y-77148539D02*
X98032218Y-77100920D01*
X98032218Y-77100920D02*
X98222694Y-77100920D01*
X98222694Y-77100920D02*
X98317932Y-77148539D01*
X98317932Y-77148539D02*
X98365551Y-77243777D01*
X98365551Y-77243777D02*
X98365551Y-77339015D01*
X98365551Y-77339015D02*
X97889361Y-77434253D01*
X100127456Y-77672348D02*
X100079837Y-77719968D01*
X100079837Y-77719968D02*
X99936980Y-77767587D01*
X99936980Y-77767587D02*
X99841742Y-77767587D01*
X99841742Y-77767587D02*
X99698885Y-77719968D01*
X99698885Y-77719968D02*
X99603647Y-77624729D01*
X99603647Y-77624729D02*
X99556028Y-77529491D01*
X99556028Y-77529491D02*
X99508409Y-77339015D01*
X99508409Y-77339015D02*
X99508409Y-77196158D01*
X99508409Y-77196158D02*
X99556028Y-77005682D01*
X99556028Y-77005682D02*
X99603647Y-76910444D01*
X99603647Y-76910444D02*
X99698885Y-76815206D01*
X99698885Y-76815206D02*
X99841742Y-76767587D01*
X99841742Y-76767587D02*
X99936980Y-76767587D01*
X99936980Y-76767587D02*
X100079837Y-76815206D01*
X100079837Y-76815206D02*
X100127456Y-76862825D01*
X100698885Y-77767587D02*
X100603647Y-77719968D01*
X100603647Y-77719968D02*
X100556028Y-77672348D01*
X100556028Y-77672348D02*
X100508409Y-77577110D01*
X100508409Y-77577110D02*
X100508409Y-77291396D01*
X100508409Y-77291396D02*
X100556028Y-77196158D01*
X100556028Y-77196158D02*
X100603647Y-77148539D01*
X100603647Y-77148539D02*
X100698885Y-77100920D01*
X100698885Y-77100920D02*
X100841742Y-77100920D01*
X100841742Y-77100920D02*
X100936980Y-77148539D01*
X100936980Y-77148539D02*
X100984599Y-77196158D01*
X100984599Y-77196158D02*
X101032218Y-77291396D01*
X101032218Y-77291396D02*
X101032218Y-77577110D01*
X101032218Y-77577110D02*
X100984599Y-77672348D01*
X100984599Y-77672348D02*
X100936980Y-77719968D01*
X100936980Y-77719968D02*
X100841742Y-77767587D01*
X100841742Y-77767587D02*
X100698885Y-77767587D01*
X101460790Y-77100920D02*
X101460790Y-77767587D01*
X101460790Y-77196158D02*
X101508409Y-77148539D01*
X101508409Y-77148539D02*
X101603647Y-77100920D01*
X101603647Y-77100920D02*
X101746504Y-77100920D01*
X101746504Y-77100920D02*
X101841742Y-77148539D01*
X101841742Y-77148539D02*
X101889361Y-77243777D01*
X101889361Y-77243777D02*
X101889361Y-77767587D01*
X102222695Y-77100920D02*
X102603647Y-77100920D01*
X102365552Y-76767587D02*
X102365552Y-77624729D01*
X102365552Y-77624729D02*
X102413171Y-77719968D01*
X102413171Y-77719968D02*
X102508409Y-77767587D01*
X102508409Y-77767587D02*
X102603647Y-77767587D01*
X102936981Y-77767587D02*
X102936981Y-77100920D01*
X102936981Y-77291396D02*
X102984600Y-77196158D01*
X102984600Y-77196158D02*
X103032219Y-77148539D01*
X103032219Y-77148539D02*
X103127457Y-77100920D01*
X103127457Y-77100920D02*
X103222695Y-77100920D01*
X103698886Y-77767587D02*
X103603648Y-77719968D01*
X103603648Y-77719968D02*
X103556029Y-77672348D01*
X103556029Y-77672348D02*
X103508410Y-77577110D01*
X103508410Y-77577110D02*
X103508410Y-77291396D01*
X103508410Y-77291396D02*
X103556029Y-77196158D01*
X103556029Y-77196158D02*
X103603648Y-77148539D01*
X103603648Y-77148539D02*
X103698886Y-77100920D01*
X103698886Y-77100920D02*
X103841743Y-77100920D01*
X103841743Y-77100920D02*
X103936981Y-77148539D01*
X103936981Y-77148539D02*
X103984600Y-77196158D01*
X103984600Y-77196158D02*
X104032219Y-77291396D01*
X104032219Y-77291396D02*
X104032219Y-77577110D01*
X104032219Y-77577110D02*
X103984600Y-77672348D01*
X103984600Y-77672348D02*
X103936981Y-77719968D01*
X103936981Y-77719968D02*
X103841743Y-77767587D01*
X103841743Y-77767587D02*
X103698886Y-77767587D01*
X104603648Y-77767587D02*
X104508410Y-77719968D01*
X104508410Y-77719968D02*
X104460791Y-77624729D01*
X104460791Y-77624729D02*
X104460791Y-76767587D01*
X105127458Y-77767587D02*
X105032220Y-77719968D01*
X105032220Y-77719968D02*
X104984601Y-77624729D01*
X104984601Y-77624729D02*
X104984601Y-76767587D01*
X105889363Y-77719968D02*
X105794125Y-77767587D01*
X105794125Y-77767587D02*
X105603649Y-77767587D01*
X105603649Y-77767587D02*
X105508411Y-77719968D01*
X105508411Y-77719968D02*
X105460792Y-77624729D01*
X105460792Y-77624729D02*
X105460792Y-77243777D01*
X105460792Y-77243777D02*
X105508411Y-77148539D01*
X105508411Y-77148539D02*
X105603649Y-77100920D01*
X105603649Y-77100920D02*
X105794125Y-77100920D01*
X105794125Y-77100920D02*
X105889363Y-77148539D01*
X105889363Y-77148539D02*
X105936982Y-77243777D01*
X105936982Y-77243777D02*
X105936982Y-77339015D01*
X105936982Y-77339015D02*
X105460792Y-77434253D01*
X106365554Y-77767587D02*
X106365554Y-77100920D01*
X106365554Y-77291396D02*
X106413173Y-77196158D01*
X106413173Y-77196158D02*
X106460792Y-77148539D01*
X106460792Y-77148539D02*
X106556030Y-77100920D01*
X106556030Y-77100920D02*
X106651268Y-77100920D01*
X108079840Y-77243777D02*
X108222697Y-77291396D01*
X108222697Y-77291396D02*
X108270316Y-77339015D01*
X108270316Y-77339015D02*
X108317935Y-77434253D01*
X108317935Y-77434253D02*
X108317935Y-77577110D01*
X108317935Y-77577110D02*
X108270316Y-77672348D01*
X108270316Y-77672348D02*
X108222697Y-77719968D01*
X108222697Y-77719968D02*
X108127459Y-77767587D01*
X108127459Y-77767587D02*
X107746507Y-77767587D01*
X107746507Y-77767587D02*
X107746507Y-76767587D01*
X107746507Y-76767587D02*
X108079840Y-76767587D01*
X108079840Y-76767587D02*
X108175078Y-76815206D01*
X108175078Y-76815206D02*
X108222697Y-76862825D01*
X108222697Y-76862825D02*
X108270316Y-76958063D01*
X108270316Y-76958063D02*
X108270316Y-77053301D01*
X108270316Y-77053301D02*
X108222697Y-77148539D01*
X108222697Y-77148539D02*
X108175078Y-77196158D01*
X108175078Y-77196158D02*
X108079840Y-77243777D01*
X108079840Y-77243777D02*
X107746507Y-77243777D01*
X109175078Y-77767587D02*
X109175078Y-77243777D01*
X109175078Y-77243777D02*
X109127459Y-77148539D01*
X109127459Y-77148539D02*
X109032221Y-77100920D01*
X109032221Y-77100920D02*
X108841745Y-77100920D01*
X108841745Y-77100920D02*
X108746507Y-77148539D01*
X109175078Y-77719968D02*
X109079840Y-77767587D01*
X109079840Y-77767587D02*
X108841745Y-77767587D01*
X108841745Y-77767587D02*
X108746507Y-77719968D01*
X108746507Y-77719968D02*
X108698888Y-77624729D01*
X108698888Y-77624729D02*
X108698888Y-77529491D01*
X108698888Y-77529491D02*
X108746507Y-77434253D01*
X108746507Y-77434253D02*
X108841745Y-77386634D01*
X108841745Y-77386634D02*
X109079840Y-77386634D01*
X109079840Y-77386634D02*
X109175078Y-77339015D01*
X109603650Y-77719968D02*
X109698888Y-77767587D01*
X109698888Y-77767587D02*
X109889364Y-77767587D01*
X109889364Y-77767587D02*
X109984602Y-77719968D01*
X109984602Y-77719968D02*
X110032221Y-77624729D01*
X110032221Y-77624729D02*
X110032221Y-77577110D01*
X110032221Y-77577110D02*
X109984602Y-77481872D01*
X109984602Y-77481872D02*
X109889364Y-77434253D01*
X109889364Y-77434253D02*
X109746507Y-77434253D01*
X109746507Y-77434253D02*
X109651269Y-77386634D01*
X109651269Y-77386634D02*
X109603650Y-77291396D01*
X109603650Y-77291396D02*
X109603650Y-77243777D01*
X109603650Y-77243777D02*
X109651269Y-77148539D01*
X109651269Y-77148539D02*
X109746507Y-77100920D01*
X109746507Y-77100920D02*
X109889364Y-77100920D01*
X109889364Y-77100920D02*
X109984602Y-77148539D01*
X110841745Y-77719968D02*
X110746507Y-77767587D01*
X110746507Y-77767587D02*
X110556031Y-77767587D01*
X110556031Y-77767587D02*
X110460793Y-77719968D01*
X110460793Y-77719968D02*
X110413174Y-77624729D01*
X110413174Y-77624729D02*
X110413174Y-77243777D01*
X110413174Y-77243777D02*
X110460793Y-77148539D01*
X110460793Y-77148539D02*
X110556031Y-77100920D01*
X110556031Y-77100920D02*
X110746507Y-77100920D01*
X110746507Y-77100920D02*
X110841745Y-77148539D01*
X110841745Y-77148539D02*
X110889364Y-77243777D01*
X110889364Y-77243777D02*
X110889364Y-77339015D01*
X110889364Y-77339015D02*
X110413174Y-77434253D01*
X112079841Y-76767587D02*
X112079841Y-77577110D01*
X112079841Y-77577110D02*
X112127460Y-77672348D01*
X112127460Y-77672348D02*
X112175079Y-77719968D01*
X112175079Y-77719968D02*
X112270317Y-77767587D01*
X112270317Y-77767587D02*
X112460793Y-77767587D01*
X112460793Y-77767587D02*
X112556031Y-77719968D01*
X112556031Y-77719968D02*
X112603650Y-77672348D01*
X112603650Y-77672348D02*
X112651269Y-77577110D01*
X112651269Y-77577110D02*
X112651269Y-76767587D01*
X113127460Y-77100920D02*
X113127460Y-77767587D01*
X113127460Y-77196158D02*
X113175079Y-77148539D01*
X113175079Y-77148539D02*
X113270317Y-77100920D01*
X113270317Y-77100920D02*
X113413174Y-77100920D01*
X113413174Y-77100920D02*
X113508412Y-77148539D01*
X113508412Y-77148539D02*
X113556031Y-77243777D01*
X113556031Y-77243777D02*
X113556031Y-77767587D01*
X114032222Y-77767587D02*
X114032222Y-77100920D01*
X114032222Y-76767587D02*
X113984603Y-76815206D01*
X113984603Y-76815206D02*
X114032222Y-76862825D01*
X114032222Y-76862825D02*
X114079841Y-76815206D01*
X114079841Y-76815206D02*
X114032222Y-76767587D01*
X114032222Y-76767587D02*
X114032222Y-76862825D01*
X114365555Y-77100920D02*
X114746507Y-77100920D01*
X114508412Y-76767587D02*
X114508412Y-77624729D01*
X114508412Y-77624729D02*
X114556031Y-77719968D01*
X114556031Y-77719968D02*
X114651269Y-77767587D01*
X114651269Y-77767587D02*
X114746507Y-77767587D01*
X93603646Y-78710864D02*
X93841741Y-79377531D01*
X93841741Y-79377531D02*
X94079836Y-78710864D01*
X94841741Y-79329912D02*
X94746503Y-79377531D01*
X94746503Y-79377531D02*
X94556027Y-79377531D01*
X94556027Y-79377531D02*
X94460789Y-79329912D01*
X94460789Y-79329912D02*
X94413170Y-79234673D01*
X94413170Y-79234673D02*
X94413170Y-78853721D01*
X94413170Y-78853721D02*
X94460789Y-78758483D01*
X94460789Y-78758483D02*
X94556027Y-78710864D01*
X94556027Y-78710864D02*
X94746503Y-78710864D01*
X94746503Y-78710864D02*
X94841741Y-78758483D01*
X94841741Y-78758483D02*
X94889360Y-78853721D01*
X94889360Y-78853721D02*
X94889360Y-78948959D01*
X94889360Y-78948959D02*
X94413170Y-79044197D01*
X95317932Y-79377531D02*
X95317932Y-78710864D01*
X95317932Y-78901340D02*
X95365551Y-78806102D01*
X95365551Y-78806102D02*
X95413170Y-78758483D01*
X95413170Y-78758483D02*
X95508408Y-78710864D01*
X95508408Y-78710864D02*
X95603646Y-78710864D01*
X95889361Y-79329912D02*
X95984599Y-79377531D01*
X95984599Y-79377531D02*
X96175075Y-79377531D01*
X96175075Y-79377531D02*
X96270313Y-79329912D01*
X96270313Y-79329912D02*
X96317932Y-79234673D01*
X96317932Y-79234673D02*
X96317932Y-79187054D01*
X96317932Y-79187054D02*
X96270313Y-79091816D01*
X96270313Y-79091816D02*
X96175075Y-79044197D01*
X96175075Y-79044197D02*
X96032218Y-79044197D01*
X96032218Y-79044197D02*
X95936980Y-78996578D01*
X95936980Y-78996578D02*
X95889361Y-78901340D01*
X95889361Y-78901340D02*
X95889361Y-78853721D01*
X95889361Y-78853721D02*
X95936980Y-78758483D01*
X95936980Y-78758483D02*
X96032218Y-78710864D01*
X96032218Y-78710864D02*
X96175075Y-78710864D01*
X96175075Y-78710864D02*
X96270313Y-78758483D01*
X96746504Y-79377531D02*
X96746504Y-78710864D01*
X96746504Y-78377531D02*
X96698885Y-78425150D01*
X96698885Y-78425150D02*
X96746504Y-78472769D01*
X96746504Y-78472769D02*
X96794123Y-78425150D01*
X96794123Y-78425150D02*
X96746504Y-78377531D01*
X96746504Y-78377531D02*
X96746504Y-78472769D01*
X97365551Y-79377531D02*
X97270313Y-79329912D01*
X97270313Y-79329912D02*
X97222694Y-79282292D01*
X97222694Y-79282292D02*
X97175075Y-79187054D01*
X97175075Y-79187054D02*
X97175075Y-78901340D01*
X97175075Y-78901340D02*
X97222694Y-78806102D01*
X97222694Y-78806102D02*
X97270313Y-78758483D01*
X97270313Y-78758483D02*
X97365551Y-78710864D01*
X97365551Y-78710864D02*
X97508408Y-78710864D01*
X97508408Y-78710864D02*
X97603646Y-78758483D01*
X97603646Y-78758483D02*
X97651265Y-78806102D01*
X97651265Y-78806102D02*
X97698884Y-78901340D01*
X97698884Y-78901340D02*
X97698884Y-79187054D01*
X97698884Y-79187054D02*
X97651265Y-79282292D01*
X97651265Y-79282292D02*
X97603646Y-79329912D01*
X97603646Y-79329912D02*
X97508408Y-79377531D01*
X97508408Y-79377531D02*
X97365551Y-79377531D01*
X98127456Y-78710864D02*
X98127456Y-79377531D01*
X98127456Y-78806102D02*
X98175075Y-78758483D01*
X98175075Y-78758483D02*
X98270313Y-78710864D01*
X98270313Y-78710864D02*
X98413170Y-78710864D01*
X98413170Y-78710864D02*
X98508408Y-78758483D01*
X98508408Y-78758483D02*
X98556027Y-78853721D01*
X98556027Y-78853721D02*
X98556027Y-79377531D01*
X100317932Y-79377531D02*
X99746504Y-79377531D01*
X100032218Y-79377531D02*
X100032218Y-78377531D01*
X100032218Y-78377531D02*
X99936980Y-78520388D01*
X99936980Y-78520388D02*
X99841742Y-78615626D01*
X99841742Y-78615626D02*
X99746504Y-78663245D01*
X100746504Y-79282292D02*
X100794123Y-79329912D01*
X100794123Y-79329912D02*
X100746504Y-79377531D01*
X100746504Y-79377531D02*
X100698885Y-79329912D01*
X100698885Y-79329912D02*
X100746504Y-79282292D01*
X100746504Y-79282292D02*
X100746504Y-79377531D01*
X101413170Y-78377531D02*
X101508408Y-78377531D01*
X101508408Y-78377531D02*
X101603646Y-78425150D01*
X101603646Y-78425150D02*
X101651265Y-78472769D01*
X101651265Y-78472769D02*
X101698884Y-78568007D01*
X101698884Y-78568007D02*
X101746503Y-78758483D01*
X101746503Y-78758483D02*
X101746503Y-78996578D01*
X101746503Y-78996578D02*
X101698884Y-79187054D01*
X101698884Y-79187054D02*
X101651265Y-79282292D01*
X101651265Y-79282292D02*
X101603646Y-79329912D01*
X101603646Y-79329912D02*
X101508408Y-79377531D01*
X101508408Y-79377531D02*
X101413170Y-79377531D01*
X101413170Y-79377531D02*
X101317932Y-79329912D01*
X101317932Y-79329912D02*
X101270313Y-79282292D01*
X101270313Y-79282292D02*
X101222694Y-79187054D01*
X101222694Y-79187054D02*
X101175075Y-78996578D01*
X101175075Y-78996578D02*
X101175075Y-78758483D01*
X101175075Y-78758483D02*
X101222694Y-78568007D01*
X101222694Y-78568007D02*
X101270313Y-78472769D01*
X101270313Y-78472769D02*
X101317932Y-78425150D01*
X101317932Y-78425150D02*
X101413170Y-78377531D01*
X93698884Y-80987475D02*
X93698884Y-79987475D01*
X93698884Y-79987475D02*
X93936979Y-79987475D01*
X93936979Y-79987475D02*
X94079836Y-80035094D01*
X94079836Y-80035094D02*
X94175074Y-80130332D01*
X94175074Y-80130332D02*
X94222693Y-80225570D01*
X94222693Y-80225570D02*
X94270312Y-80416046D01*
X94270312Y-80416046D02*
X94270312Y-80558903D01*
X94270312Y-80558903D02*
X94222693Y-80749379D01*
X94222693Y-80749379D02*
X94175074Y-80844617D01*
X94175074Y-80844617D02*
X94079836Y-80939856D01*
X94079836Y-80939856D02*
X93936979Y-80987475D01*
X93936979Y-80987475D02*
X93698884Y-80987475D01*
X95127455Y-80987475D02*
X95127455Y-80463665D01*
X95127455Y-80463665D02*
X95079836Y-80368427D01*
X95079836Y-80368427D02*
X94984598Y-80320808D01*
X94984598Y-80320808D02*
X94794122Y-80320808D01*
X94794122Y-80320808D02*
X94698884Y-80368427D01*
X95127455Y-80939856D02*
X95032217Y-80987475D01*
X95032217Y-80987475D02*
X94794122Y-80987475D01*
X94794122Y-80987475D02*
X94698884Y-80939856D01*
X94698884Y-80939856D02*
X94651265Y-80844617D01*
X94651265Y-80844617D02*
X94651265Y-80749379D01*
X94651265Y-80749379D02*
X94698884Y-80654141D01*
X94698884Y-80654141D02*
X94794122Y-80606522D01*
X94794122Y-80606522D02*
X95032217Y-80606522D01*
X95032217Y-80606522D02*
X95127455Y-80558903D01*
X95603646Y-80320808D02*
X95603646Y-80987475D01*
X95603646Y-80416046D02*
X95651265Y-80368427D01*
X95651265Y-80368427D02*
X95746503Y-80320808D01*
X95746503Y-80320808D02*
X95889360Y-80320808D01*
X95889360Y-80320808D02*
X95984598Y-80368427D01*
X95984598Y-80368427D02*
X96032217Y-80463665D01*
X96032217Y-80463665D02*
X96032217Y-80987475D01*
X97222694Y-80939856D02*
X97365551Y-80987475D01*
X97365551Y-80987475D02*
X97603646Y-80987475D01*
X97603646Y-80987475D02*
X97698884Y-80939856D01*
X97698884Y-80939856D02*
X97746503Y-80892236D01*
X97746503Y-80892236D02*
X97794122Y-80796998D01*
X97794122Y-80796998D02*
X97794122Y-80701760D01*
X97794122Y-80701760D02*
X97746503Y-80606522D01*
X97746503Y-80606522D02*
X97698884Y-80558903D01*
X97698884Y-80558903D02*
X97603646Y-80511284D01*
X97603646Y-80511284D02*
X97413170Y-80463665D01*
X97413170Y-80463665D02*
X97317932Y-80416046D01*
X97317932Y-80416046D02*
X97270313Y-80368427D01*
X97270313Y-80368427D02*
X97222694Y-80273189D01*
X97222694Y-80273189D02*
X97222694Y-80177951D01*
X97222694Y-80177951D02*
X97270313Y-80082713D01*
X97270313Y-80082713D02*
X97317932Y-80035094D01*
X97317932Y-80035094D02*
X97413170Y-79987475D01*
X97413170Y-79987475D02*
X97651265Y-79987475D01*
X97651265Y-79987475D02*
X97794122Y-80035094D01*
X98222694Y-80987475D02*
X98222694Y-79987475D01*
X98651265Y-80987475D02*
X98651265Y-80463665D01*
X98651265Y-80463665D02*
X98603646Y-80368427D01*
X98603646Y-80368427D02*
X98508408Y-80320808D01*
X98508408Y-80320808D02*
X98365551Y-80320808D01*
X98365551Y-80320808D02*
X98270313Y-80368427D01*
X98270313Y-80368427D02*
X98222694Y-80416046D01*
X99127456Y-80987475D02*
X99127456Y-80320808D01*
X99127456Y-79987475D02*
X99079837Y-80035094D01*
X99079837Y-80035094D02*
X99127456Y-80082713D01*
X99127456Y-80082713D02*
X99175075Y-80035094D01*
X99175075Y-80035094D02*
X99127456Y-79987475D01*
X99127456Y-79987475D02*
X99127456Y-80082713D01*
X99603646Y-80987475D02*
X99603646Y-80320808D01*
X99603646Y-80416046D02*
X99651265Y-80368427D01*
X99651265Y-80368427D02*
X99746503Y-80320808D01*
X99746503Y-80320808D02*
X99889360Y-80320808D01*
X99889360Y-80320808D02*
X99984598Y-80368427D01*
X99984598Y-80368427D02*
X100032217Y-80463665D01*
X100032217Y-80463665D02*
X100032217Y-80987475D01*
X100032217Y-80463665D02*
X100079836Y-80368427D01*
X100079836Y-80368427D02*
X100175074Y-80320808D01*
X100175074Y-80320808D02*
X100317931Y-80320808D01*
X100317931Y-80320808D02*
X100413170Y-80368427D01*
X100413170Y-80368427D02*
X100460789Y-80463665D01*
X100460789Y-80463665D02*
X100460789Y-80987475D01*
X100936979Y-80987475D02*
X100936979Y-80320808D01*
X100936979Y-80416046D02*
X100984598Y-80368427D01*
X100984598Y-80368427D02*
X101079836Y-80320808D01*
X101079836Y-80320808D02*
X101222693Y-80320808D01*
X101222693Y-80320808D02*
X101317931Y-80368427D01*
X101317931Y-80368427D02*
X101365550Y-80463665D01*
X101365550Y-80463665D02*
X101365550Y-80987475D01*
X101365550Y-80463665D02*
X101413169Y-80368427D01*
X101413169Y-80368427D02*
X101508407Y-80320808D01*
X101508407Y-80320808D02*
X101651264Y-80320808D01*
X101651264Y-80320808D02*
X101746503Y-80368427D01*
X101746503Y-80368427D02*
X101794122Y-80463665D01*
X101794122Y-80463665D02*
X101794122Y-80987475D01*
X102175074Y-80320808D02*
X102413169Y-80987475D01*
X102651264Y-80320808D02*
X102413169Y-80987475D01*
X102413169Y-80987475D02*
X102317931Y-81225570D01*
X102317931Y-81225570D02*
X102270312Y-81273189D01*
X102270312Y-81273189D02*
X102175074Y-81320808D01*
X103175074Y-80987475D02*
X103079836Y-80939856D01*
X103079836Y-80939856D02*
X103032217Y-80892236D01*
X103032217Y-80892236D02*
X102984598Y-80796998D01*
X102984598Y-80796998D02*
X102984598Y-80511284D01*
X102984598Y-80511284D02*
X103032217Y-80416046D01*
X103032217Y-80416046D02*
X103079836Y-80368427D01*
X103079836Y-80368427D02*
X103175074Y-80320808D01*
X103175074Y-80320808D02*
X103317931Y-80320808D01*
X103317931Y-80320808D02*
X103413169Y-80368427D01*
X103413169Y-80368427D02*
X103460788Y-80416046D01*
X103460788Y-80416046D02*
X103508407Y-80511284D01*
X103508407Y-80511284D02*
X103508407Y-80796998D01*
X103508407Y-80796998D02*
X103460788Y-80892236D01*
X103460788Y-80892236D02*
X103413169Y-80939856D01*
X103413169Y-80939856D02*
X103317931Y-80987475D01*
X103317931Y-80987475D02*
X103175074Y-80987475D01*
X93698884Y-82597419D02*
X93698884Y-81597419D01*
X93698884Y-81597419D02*
X94032217Y-82311704D01*
X94032217Y-82311704D02*
X94365550Y-81597419D01*
X94365550Y-81597419D02*
X94365550Y-82597419D01*
X95270312Y-82597419D02*
X95270312Y-82073609D01*
X95270312Y-82073609D02*
X95222693Y-81978371D01*
X95222693Y-81978371D02*
X95127455Y-81930752D01*
X95127455Y-81930752D02*
X94936979Y-81930752D01*
X94936979Y-81930752D02*
X94841741Y-81978371D01*
X95270312Y-82549800D02*
X95175074Y-82597419D01*
X95175074Y-82597419D02*
X94936979Y-82597419D01*
X94936979Y-82597419D02*
X94841741Y-82549800D01*
X94841741Y-82549800D02*
X94794122Y-82454561D01*
X94794122Y-82454561D02*
X94794122Y-82359323D01*
X94794122Y-82359323D02*
X94841741Y-82264085D01*
X94841741Y-82264085D02*
X94936979Y-82216466D01*
X94936979Y-82216466D02*
X95175074Y-82216466D01*
X95175074Y-82216466D02*
X95270312Y-82168847D01*
X95651265Y-81930752D02*
X95889360Y-82597419D01*
X96127455Y-81930752D02*
X95889360Y-82597419D01*
X95889360Y-82597419D02*
X95794122Y-82835514D01*
X95794122Y-82835514D02*
X95746503Y-82883133D01*
X95746503Y-82883133D02*
X95651265Y-82930752D01*
X97222694Y-81692657D02*
X97270313Y-81645038D01*
X97270313Y-81645038D02*
X97365551Y-81597419D01*
X97365551Y-81597419D02*
X97603646Y-81597419D01*
X97603646Y-81597419D02*
X97698884Y-81645038D01*
X97698884Y-81645038D02*
X97746503Y-81692657D01*
X97746503Y-81692657D02*
X97794122Y-81787895D01*
X97794122Y-81787895D02*
X97794122Y-81883133D01*
X97794122Y-81883133D02*
X97746503Y-82025990D01*
X97746503Y-82025990D02*
X97175075Y-82597419D01*
X97175075Y-82597419D02*
X97794122Y-82597419D01*
X98413170Y-81597419D02*
X98508408Y-81597419D01*
X98508408Y-81597419D02*
X98603646Y-81645038D01*
X98603646Y-81645038D02*
X98651265Y-81692657D01*
X98651265Y-81692657D02*
X98698884Y-81787895D01*
X98698884Y-81787895D02*
X98746503Y-81978371D01*
X98746503Y-81978371D02*
X98746503Y-82216466D01*
X98746503Y-82216466D02*
X98698884Y-82406942D01*
X98698884Y-82406942D02*
X98651265Y-82502180D01*
X98651265Y-82502180D02*
X98603646Y-82549800D01*
X98603646Y-82549800D02*
X98508408Y-82597419D01*
X98508408Y-82597419D02*
X98413170Y-82597419D01*
X98413170Y-82597419D02*
X98317932Y-82549800D01*
X98317932Y-82549800D02*
X98270313Y-82502180D01*
X98270313Y-82502180D02*
X98222694Y-82406942D01*
X98222694Y-82406942D02*
X98175075Y-82216466D01*
X98175075Y-82216466D02*
X98175075Y-81978371D01*
X98175075Y-81978371D02*
X98222694Y-81787895D01*
X98222694Y-81787895D02*
X98270313Y-81692657D01*
X98270313Y-81692657D02*
X98317932Y-81645038D01*
X98317932Y-81645038D02*
X98413170Y-81597419D01*
X99127456Y-81692657D02*
X99175075Y-81645038D01*
X99175075Y-81645038D02*
X99270313Y-81597419D01*
X99270313Y-81597419D02*
X99508408Y-81597419D01*
X99508408Y-81597419D02*
X99603646Y-81645038D01*
X99603646Y-81645038D02*
X99651265Y-81692657D01*
X99651265Y-81692657D02*
X99698884Y-81787895D01*
X99698884Y-81787895D02*
X99698884Y-81883133D01*
X99698884Y-81883133D02*
X99651265Y-82025990D01*
X99651265Y-82025990D02*
X99079837Y-82597419D01*
X99079837Y-82597419D02*
X99698884Y-82597419D01*
X100556027Y-81597419D02*
X100365551Y-81597419D01*
X100365551Y-81597419D02*
X100270313Y-81645038D01*
X100270313Y-81645038D02*
X100222694Y-81692657D01*
X100222694Y-81692657D02*
X100127456Y-81835514D01*
X100127456Y-81835514D02*
X100079837Y-82025990D01*
X100079837Y-82025990D02*
X100079837Y-82406942D01*
X100079837Y-82406942D02*
X100127456Y-82502180D01*
X100127456Y-82502180D02*
X100175075Y-82549800D01*
X100175075Y-82549800D02*
X100270313Y-82597419D01*
X100270313Y-82597419D02*
X100460789Y-82597419D01*
X100460789Y-82597419D02*
X100556027Y-82549800D01*
X100556027Y-82549800D02*
X100603646Y-82502180D01*
X100603646Y-82502180D02*
X100651265Y-82406942D01*
X100651265Y-82406942D02*
X100651265Y-82168847D01*
X100651265Y-82168847D02*
X100603646Y-82073609D01*
X100603646Y-82073609D02*
X100556027Y-82025990D01*
X100556027Y-82025990D02*
X100460789Y-81978371D01*
X100460789Y-81978371D02*
X100270313Y-81978371D01*
X100270313Y-81978371D02*
X100175075Y-82025990D01*
X100175075Y-82025990D02*
X100127456Y-82073609D01*
X100127456Y-82073609D02*
X100079837Y-82168847D01*
D12*
X107787857Y-83025828D02*
X107787857Y-81525828D01*
X107787857Y-81525828D02*
X108359286Y-81525828D01*
X108359286Y-81525828D02*
X108502143Y-81597257D01*
X108502143Y-81597257D02*
X108573572Y-81668685D01*
X108573572Y-81668685D02*
X108645000Y-81811542D01*
X108645000Y-81811542D02*
X108645000Y-82025828D01*
X108645000Y-82025828D02*
X108573572Y-82168685D01*
X108573572Y-82168685D02*
X108502143Y-82240114D01*
X108502143Y-82240114D02*
X108359286Y-82311542D01*
X108359286Y-82311542D02*
X107787857Y-82311542D01*
X110073572Y-83025828D02*
X109216429Y-83025828D01*
X109645000Y-83025828D02*
X109645000Y-81525828D01*
X109645000Y-81525828D02*
X109502143Y-81740114D01*
X109502143Y-81740114D02*
X109359286Y-81882971D01*
X109359286Y-81882971D02*
X109216429Y-81954400D01*
X125787857Y-83025828D02*
X125787857Y-81525828D01*
X125787857Y-81525828D02*
X126359286Y-81525828D01*
X126359286Y-81525828D02*
X126502143Y-81597257D01*
X126502143Y-81597257D02*
X126573572Y-81668685D01*
X126573572Y-81668685D02*
X126645000Y-81811542D01*
X126645000Y-81811542D02*
X126645000Y-82025828D01*
X126645000Y-82025828D02*
X126573572Y-82168685D01*
X126573572Y-82168685D02*
X126502143Y-82240114D01*
X126502143Y-82240114D02*
X126359286Y-82311542D01*
X126359286Y-82311542D02*
X125787857Y-82311542D01*
X127216429Y-81668685D02*
X127287857Y-81597257D01*
X127287857Y-81597257D02*
X127430715Y-81525828D01*
X127430715Y-81525828D02*
X127787857Y-81525828D01*
X127787857Y-81525828D02*
X127930715Y-81597257D01*
X127930715Y-81597257D02*
X128002143Y-81668685D01*
X128002143Y-81668685D02*
X128073572Y-81811542D01*
X128073572Y-81811542D02*
X128073572Y-81954400D01*
X128073572Y-81954400D02*
X128002143Y-82168685D01*
X128002143Y-82168685D02*
X127145000Y-83025828D01*
X127145000Y-83025828D02*
X128073572Y-83025828D01*
X143787857Y-83025828D02*
X143787857Y-81525828D01*
X143787857Y-81525828D02*
X144359286Y-81525828D01*
X144359286Y-81525828D02*
X144502143Y-81597257D01*
X144502143Y-81597257D02*
X144573572Y-81668685D01*
X144573572Y-81668685D02*
X144645000Y-81811542D01*
X144645000Y-81811542D02*
X144645000Y-82025828D01*
X144645000Y-82025828D02*
X144573572Y-82168685D01*
X144573572Y-82168685D02*
X144502143Y-82240114D01*
X144502143Y-82240114D02*
X144359286Y-82311542D01*
X144359286Y-82311542D02*
X143787857Y-82311542D01*
X145145000Y-81525828D02*
X146073572Y-81525828D01*
X146073572Y-81525828D02*
X145573572Y-82097257D01*
X145573572Y-82097257D02*
X145787857Y-82097257D01*
X145787857Y-82097257D02*
X145930715Y-82168685D01*
X145930715Y-82168685D02*
X146002143Y-82240114D01*
X146002143Y-82240114D02*
X146073572Y-82382971D01*
X146073572Y-82382971D02*
X146073572Y-82740114D01*
X146073572Y-82740114D02*
X146002143Y-82882971D01*
X146002143Y-82882971D02*
X145930715Y-82954400D01*
X145930715Y-82954400D02*
X145787857Y-83025828D01*
X145787857Y-83025828D02*
X145359286Y-83025828D01*
X145359286Y-83025828D02*
X145216429Y-82954400D01*
X145216429Y-82954400D02*
X145145000Y-82882971D01*
X161537857Y-83025828D02*
X161537857Y-81525828D01*
X161537857Y-81525828D02*
X162109286Y-81525828D01*
X162109286Y-81525828D02*
X162252143Y-81597257D01*
X162252143Y-81597257D02*
X162323572Y-81668685D01*
X162323572Y-81668685D02*
X162395000Y-81811542D01*
X162395000Y-81811542D02*
X162395000Y-82025828D01*
X162395000Y-82025828D02*
X162323572Y-82168685D01*
X162323572Y-82168685D02*
X162252143Y-82240114D01*
X162252143Y-82240114D02*
X162109286Y-82311542D01*
X162109286Y-82311542D02*
X161537857Y-82311542D01*
X163680715Y-82025828D02*
X163680715Y-83025828D01*
X163323572Y-81454400D02*
X162966429Y-82525828D01*
X162966429Y-82525828D02*
X163895000Y-82525828D01*
D13*
X119478333Y-68334580D02*
X119430714Y-68382200D01*
X119430714Y-68382200D02*
X119287857Y-68429819D01*
X119287857Y-68429819D02*
X119192619Y-68429819D01*
X119192619Y-68429819D02*
X119049762Y-68382200D01*
X119049762Y-68382200D02*
X118954524Y-68286961D01*
X118954524Y-68286961D02*
X118906905Y-68191723D01*
X118906905Y-68191723D02*
X118859286Y-68001247D01*
X118859286Y-68001247D02*
X118859286Y-67858390D01*
X118859286Y-67858390D02*
X118906905Y-67667914D01*
X118906905Y-67667914D02*
X118954524Y-67572676D01*
X118954524Y-67572676D02*
X119049762Y-67477438D01*
X119049762Y-67477438D02*
X119192619Y-67429819D01*
X119192619Y-67429819D02*
X119287857Y-67429819D01*
X119287857Y-67429819D02*
X119430714Y-67477438D01*
X119430714Y-67477438D02*
X119478333Y-67525057D01*
X119811667Y-67429819D02*
X120430714Y-67429819D01*
X120430714Y-67429819D02*
X120097381Y-67810771D01*
X120097381Y-67810771D02*
X120240238Y-67810771D01*
X120240238Y-67810771D02*
X120335476Y-67858390D01*
X120335476Y-67858390D02*
X120383095Y-67906009D01*
X120383095Y-67906009D02*
X120430714Y-68001247D01*
X120430714Y-68001247D02*
X120430714Y-68239342D01*
X120430714Y-68239342D02*
X120383095Y-68334580D01*
X120383095Y-68334580D02*
X120335476Y-68382200D01*
X120335476Y-68382200D02*
X120240238Y-68429819D01*
X120240238Y-68429819D02*
X119954524Y-68429819D01*
X119954524Y-68429819D02*
X119859286Y-68382200D01*
X119859286Y-68382200D02*
X119811667Y-68334580D01*
X125383095Y-56929819D02*
X125383095Y-57739342D01*
X125383095Y-57739342D02*
X125430714Y-57834580D01*
X125430714Y-57834580D02*
X125478333Y-57882200D01*
X125478333Y-57882200D02*
X125573571Y-57929819D01*
X125573571Y-57929819D02*
X125764047Y-57929819D01*
X125764047Y-57929819D02*
X125859285Y-57882200D01*
X125859285Y-57882200D02*
X125906904Y-57834580D01*
X125906904Y-57834580D02*
X125954523Y-57739342D01*
X125954523Y-57739342D02*
X125954523Y-56929819D01*
X126954523Y-57929819D02*
X126383095Y-57929819D01*
X126668809Y-57929819D02*
X126668809Y-56929819D01*
X126668809Y-56929819D02*
X126573571Y-57072676D01*
X126573571Y-57072676D02*
X126478333Y-57167914D01*
X126478333Y-57167914D02*
X126383095Y-57215533D01*
X119478333Y-64334580D02*
X119430714Y-64382200D01*
X119430714Y-64382200D02*
X119287857Y-64429819D01*
X119287857Y-64429819D02*
X119192619Y-64429819D01*
X119192619Y-64429819D02*
X119049762Y-64382200D01*
X119049762Y-64382200D02*
X118954524Y-64286961D01*
X118954524Y-64286961D02*
X118906905Y-64191723D01*
X118906905Y-64191723D02*
X118859286Y-64001247D01*
X118859286Y-64001247D02*
X118859286Y-63858390D01*
X118859286Y-63858390D02*
X118906905Y-63667914D01*
X118906905Y-63667914D02*
X118954524Y-63572676D01*
X118954524Y-63572676D02*
X119049762Y-63477438D01*
X119049762Y-63477438D02*
X119192619Y-63429819D01*
X119192619Y-63429819D02*
X119287857Y-63429819D01*
X119287857Y-63429819D02*
X119430714Y-63477438D01*
X119430714Y-63477438D02*
X119478333Y-63525057D01*
X120335476Y-63763152D02*
X120335476Y-64429819D01*
X120097381Y-63382200D02*
X119859286Y-64096485D01*
X119859286Y-64096485D02*
X120478333Y-64096485D01*
X119478333Y-76334580D02*
X119430714Y-76382200D01*
X119430714Y-76382200D02*
X119287857Y-76429819D01*
X119287857Y-76429819D02*
X119192619Y-76429819D01*
X119192619Y-76429819D02*
X119049762Y-76382200D01*
X119049762Y-76382200D02*
X118954524Y-76286961D01*
X118954524Y-76286961D02*
X118906905Y-76191723D01*
X118906905Y-76191723D02*
X118859286Y-76001247D01*
X118859286Y-76001247D02*
X118859286Y-75858390D01*
X118859286Y-75858390D02*
X118906905Y-75667914D01*
X118906905Y-75667914D02*
X118954524Y-75572676D01*
X118954524Y-75572676D02*
X119049762Y-75477438D01*
X119049762Y-75477438D02*
X119192619Y-75429819D01*
X119192619Y-75429819D02*
X119287857Y-75429819D01*
X119287857Y-75429819D02*
X119430714Y-75477438D01*
X119430714Y-75477438D02*
X119478333Y-75525057D01*
X120430714Y-76429819D02*
X119859286Y-76429819D01*
X120145000Y-76429819D02*
X120145000Y-75429819D01*
X120145000Y-75429819D02*
X120049762Y-75572676D01*
X120049762Y-75572676D02*
X119954524Y-75667914D01*
X119954524Y-75667914D02*
X119859286Y-75715533D01*
X162478333Y-62149819D02*
X162145000Y-61673628D01*
X161906905Y-62149819D02*
X161906905Y-61149819D01*
X161906905Y-61149819D02*
X162287857Y-61149819D01*
X162287857Y-61149819D02*
X162383095Y-61197438D01*
X162383095Y-61197438D02*
X162430714Y-61245057D01*
X162430714Y-61245057D02*
X162478333Y-61340295D01*
X162478333Y-61340295D02*
X162478333Y-61483152D01*
X162478333Y-61483152D02*
X162430714Y-61578390D01*
X162430714Y-61578390D02*
X162383095Y-61626009D01*
X162383095Y-61626009D02*
X162287857Y-61673628D01*
X162287857Y-61673628D02*
X161906905Y-61673628D01*
X163430714Y-62149819D02*
X162859286Y-62149819D01*
X163145000Y-62149819D02*
X163145000Y-61149819D01*
X163145000Y-61149819D02*
X163049762Y-61292676D01*
X163049762Y-61292676D02*
X162954524Y-61387914D01*
X162954524Y-61387914D02*
X162859286Y-61435533D01*
X162778333Y-74149819D02*
X162445000Y-73673628D01*
X162206905Y-74149819D02*
X162206905Y-73149819D01*
X162206905Y-73149819D02*
X162587857Y-73149819D01*
X162587857Y-73149819D02*
X162683095Y-73197438D01*
X162683095Y-73197438D02*
X162730714Y-73245057D01*
X162730714Y-73245057D02*
X162778333Y-73340295D01*
X162778333Y-73340295D02*
X162778333Y-73483152D01*
X162778333Y-73483152D02*
X162730714Y-73578390D01*
X162730714Y-73578390D02*
X162683095Y-73626009D01*
X162683095Y-73626009D02*
X162587857Y-73673628D01*
X162587857Y-73673628D02*
X162206905Y-73673628D01*
X163111667Y-73149819D02*
X163730714Y-73149819D01*
X163730714Y-73149819D02*
X163397381Y-73530771D01*
X163397381Y-73530771D02*
X163540238Y-73530771D01*
X163540238Y-73530771D02*
X163635476Y-73578390D01*
X163635476Y-73578390D02*
X163683095Y-73626009D01*
X163683095Y-73626009D02*
X163730714Y-73721247D01*
X163730714Y-73721247D02*
X163730714Y-73959342D01*
X163730714Y-73959342D02*
X163683095Y-74054580D01*
X163683095Y-74054580D02*
X163635476Y-74102200D01*
X163635476Y-74102200D02*
X163540238Y-74149819D01*
X163540238Y-74149819D02*
X163254524Y-74149819D01*
X163254524Y-74149819D02*
X163159286Y-74102200D01*
X163159286Y-74102200D02*
X163111667Y-74054580D01*
X162778333Y-68149819D02*
X162445000Y-67673628D01*
X162206905Y-68149819D02*
X162206905Y-67149819D01*
X162206905Y-67149819D02*
X162587857Y-67149819D01*
X162587857Y-67149819D02*
X162683095Y-67197438D01*
X162683095Y-67197438D02*
X162730714Y-67245057D01*
X162730714Y-67245057D02*
X162778333Y-67340295D01*
X162778333Y-67340295D02*
X162778333Y-67483152D01*
X162778333Y-67483152D02*
X162730714Y-67578390D01*
X162730714Y-67578390D02*
X162683095Y-67626009D01*
X162683095Y-67626009D02*
X162587857Y-67673628D01*
X162587857Y-67673628D02*
X162206905Y-67673628D01*
X163635476Y-67483152D02*
X163635476Y-68149819D01*
X163397381Y-67102200D02*
X163159286Y-67816485D01*
X163159286Y-67816485D02*
X163778333Y-67816485D01*
X119478333Y-72334580D02*
X119430714Y-72382200D01*
X119430714Y-72382200D02*
X119287857Y-72429819D01*
X119287857Y-72429819D02*
X119192619Y-72429819D01*
X119192619Y-72429819D02*
X119049762Y-72382200D01*
X119049762Y-72382200D02*
X118954524Y-72286961D01*
X118954524Y-72286961D02*
X118906905Y-72191723D01*
X118906905Y-72191723D02*
X118859286Y-72001247D01*
X118859286Y-72001247D02*
X118859286Y-71858390D01*
X118859286Y-71858390D02*
X118906905Y-71667914D01*
X118906905Y-71667914D02*
X118954524Y-71572676D01*
X118954524Y-71572676D02*
X119049762Y-71477438D01*
X119049762Y-71477438D02*
X119192619Y-71429819D01*
X119192619Y-71429819D02*
X119287857Y-71429819D01*
X119287857Y-71429819D02*
X119430714Y-71477438D01*
X119430714Y-71477438D02*
X119478333Y-71525057D01*
X119859286Y-71525057D02*
X119906905Y-71477438D01*
X119906905Y-71477438D02*
X120002143Y-71429819D01*
X120002143Y-71429819D02*
X120240238Y-71429819D01*
X120240238Y-71429819D02*
X120335476Y-71477438D01*
X120335476Y-71477438D02*
X120383095Y-71525057D01*
X120383095Y-71525057D02*
X120430714Y-71620295D01*
X120430714Y-71620295D02*
X120430714Y-71715533D01*
X120430714Y-71715533D02*
X120383095Y-71858390D01*
X120383095Y-71858390D02*
X119811667Y-72429819D01*
X119811667Y-72429819D02*
X120430714Y-72429819D01*
X162778333Y-80149819D02*
X162445000Y-79673628D01*
X162206905Y-80149819D02*
X162206905Y-79149819D01*
X162206905Y-79149819D02*
X162587857Y-79149819D01*
X162587857Y-79149819D02*
X162683095Y-79197438D01*
X162683095Y-79197438D02*
X162730714Y-79245057D01*
X162730714Y-79245057D02*
X162778333Y-79340295D01*
X162778333Y-79340295D02*
X162778333Y-79483152D01*
X162778333Y-79483152D02*
X162730714Y-79578390D01*
X162730714Y-79578390D02*
X162683095Y-79626009D01*
X162683095Y-79626009D02*
X162587857Y-79673628D01*
X162587857Y-79673628D02*
X162206905Y-79673628D01*
X163159286Y-79245057D02*
X163206905Y-79197438D01*
X163206905Y-79197438D02*
X163302143Y-79149819D01*
X163302143Y-79149819D02*
X163540238Y-79149819D01*
X163540238Y-79149819D02*
X163635476Y-79197438D01*
X163635476Y-79197438D02*
X163683095Y-79245057D01*
X163683095Y-79245057D02*
X163730714Y-79340295D01*
X163730714Y-79340295D02*
X163730714Y-79435533D01*
X163730714Y-79435533D02*
X163683095Y-79578390D01*
X163683095Y-79578390D02*
X163111667Y-80149819D01*
X163111667Y-80149819D02*
X163730714Y-80149819D01*
D14*
X121875000Y-66555000D02*
X125915000Y-66555000D01*
X121875000Y-67276000D02*
X121875000Y-66555000D01*
X121875000Y-69395000D02*
X121875000Y-68674000D01*
X125915000Y-66555000D02*
X125915000Y-67276000D01*
X125915000Y-68674000D02*
X125915000Y-69395000D01*
X125915000Y-69395000D02*
X121875000Y-69395000D01*
D15*
X127645000Y-57225000D02*
X127645000Y-78725000D01*
X128645000Y-79725000D02*
X144645000Y-79725000D01*
X144645000Y-56225000D02*
X128645000Y-56225000D01*
X145645000Y-78725000D02*
X145645000Y-57225000D01*
X127645000Y-57225000D02*
G75*
G02*
X128645000Y-56225000I999999J1D01*
G01*
X128645000Y-79725000D02*
G75*
G02*
X127645000Y-78725000I-1J999999D01*
G01*
X144645000Y-56225000D02*
G75*
G02*
X145645000Y-57225000I0J-1000000D01*
G01*
X145645000Y-78725000D02*
G75*
G02*
X144645000Y-79725000I-1000000J0D01*
G01*
D16*
X146495000Y-57815000D02*
G75*
G02*
X146295000Y-57815000I-100000J0D01*
G01*
X146295000Y-57815000D02*
G75*
G02*
X146495000Y-57815000I100000J0D01*
G01*
D14*
X121875000Y-62555000D02*
X125915000Y-62555000D01*
X121875000Y-63276000D02*
X121875000Y-62555000D01*
X121875000Y-65395000D02*
X121875000Y-64674000D01*
X125915000Y-62555000D02*
X125915000Y-63276000D01*
X125915000Y-64674000D02*
X125915000Y-65395000D01*
X125915000Y-65395000D02*
X121875000Y-65395000D01*
X121875000Y-74555000D02*
X125915000Y-74555000D01*
X121875000Y-75276000D02*
X121875000Y-74555000D01*
X121875000Y-77395000D02*
X121875000Y-76674000D01*
X125915000Y-74555000D02*
X125915000Y-75276000D01*
X125915000Y-76674000D02*
X125915000Y-77395000D01*
X125915000Y-77395000D02*
X121875000Y-77395000D01*
D15*
X100645000Y-84095000D02*
X100645000Y-89167000D01*
X100645000Y-89167000D02*
X100645000Y-100579000D01*
X100645000Y-100579000D02*
X117645000Y-100579000D01*
X101145000Y-98048000D02*
X117145000Y-98048000D01*
X102189000Y-84095000D02*
X100645000Y-84095000D01*
X117645000Y-84095000D02*
X102189000Y-84095000D01*
X117645000Y-100579000D02*
X117645000Y-84095000D01*
D14*
X157335000Y-58975000D02*
X158025000Y-58975000D01*
X167955000Y-58975000D02*
X167265000Y-58975000D01*
X158025000Y-57255000D02*
X167265000Y-57255000D01*
X167265000Y-60695000D01*
X158025000Y-60695000D01*
X158025000Y-57255000D01*
X157635000Y-70975000D02*
X158325000Y-70975000D01*
X168255000Y-70975000D02*
X167565000Y-70975000D01*
X158325000Y-69255000D02*
X167565000Y-69255000D01*
X167565000Y-72695000D01*
X158325000Y-72695000D01*
X158325000Y-69255000D01*
D15*
X118645000Y-84095000D02*
X118645000Y-89167000D01*
X118645000Y-89167000D02*
X118645000Y-100579000D01*
X118645000Y-100579000D02*
X135645000Y-100579000D01*
X119145000Y-98048000D02*
X135145000Y-98048000D01*
X120189000Y-84095000D02*
X118645000Y-84095000D01*
X135645000Y-84095000D02*
X120189000Y-84095000D01*
X135645000Y-100579000D02*
X135645000Y-84095000D01*
X136645000Y-84095000D02*
X136645000Y-89167000D01*
X136645000Y-89167000D02*
X136645000Y-100579000D01*
X136645000Y-100579000D02*
X153645000Y-100579000D01*
X137145000Y-98048000D02*
X153145000Y-98048000D01*
X138189000Y-84095000D02*
X136645000Y-84095000D01*
X153645000Y-84095000D02*
X138189000Y-84095000D01*
X153645000Y-100579000D02*
X153645000Y-84095000D01*
D14*
X157635000Y-64975000D02*
X158325000Y-64975000D01*
X168255000Y-64975000D02*
X167565000Y-64975000D01*
X158325000Y-63255000D02*
X167565000Y-63255000D01*
X167565000Y-66695000D01*
X158325000Y-66695000D01*
X158325000Y-63255000D01*
X121875000Y-70555000D02*
X125915000Y-70555000D01*
X121875000Y-71276000D02*
X121875000Y-70555000D01*
X121875000Y-73395000D02*
X121875000Y-72674000D01*
X125915000Y-70555000D02*
X125915000Y-71276000D01*
X125915000Y-72674000D02*
X125915000Y-73395000D01*
X125915000Y-73395000D02*
X121875000Y-73395000D01*
X157635000Y-76975000D02*
X158325000Y-76975000D01*
X168255000Y-76975000D02*
X167565000Y-76975000D01*
X158325000Y-75255000D02*
X167565000Y-75255000D01*
X167565000Y-78695000D01*
X158325000Y-78695000D01*
X158325000Y-75255000D01*
D15*
X154645000Y-84095000D02*
X154645000Y-89167000D01*
X154645000Y-89167000D02*
X154645000Y-100579000D01*
X154645000Y-100579000D02*
X171645000Y-100579000D01*
X155145000Y-98048000D02*
X171145000Y-98048000D01*
X156189000Y-84095000D02*
X154645000Y-84095000D01*
X171645000Y-84095000D02*
X156189000Y-84095000D01*
X171645000Y-100579000D02*
X171645000Y-84095000D01*
%LPC*%
D17*
X122645000Y-67975000D03*
X125145000Y-67975000D03*
D18*
X144265000Y-57815000D03*
D19*
X144265000Y-60355000D03*
X144265000Y-62895000D03*
X144265000Y-65435000D03*
X144265000Y-67975000D03*
X144265000Y-70515000D03*
X144265000Y-73055000D03*
X144265000Y-75595000D03*
X144265000Y-78135000D03*
X141725000Y-78135000D03*
X139185000Y-78135000D03*
X136645000Y-78135000D03*
X134105000Y-78135000D03*
X131565000Y-78135000D03*
X129025000Y-78135000D03*
X129025000Y-75595000D03*
X129025000Y-73055000D03*
X129025000Y-70515000D03*
X129025000Y-67975000D03*
X129025000Y-65435000D03*
X129025000Y-62895000D03*
X129025000Y-60355000D03*
X129025000Y-57815000D03*
D17*
X122645000Y-63975000D03*
X125145000Y-63975000D03*
X122645000Y-75975000D03*
X125145000Y-75975000D03*
D20*
X95645000Y-94975000D03*
X177645000Y-94975000D03*
D21*
X103145000Y-94873000D03*
X115145000Y-94873000D03*
D22*
X108645000Y-92475000D03*
D23*
X107645000Y-89975000D03*
X110645000Y-92475000D03*
X109645000Y-89975000D03*
D17*
X168995000Y-58975000D03*
X156295000Y-58975000D03*
D20*
X95645000Y-59975000D03*
D17*
X169295000Y-70975000D03*
X156595000Y-70975000D03*
D21*
X121145000Y-94873000D03*
X133145000Y-94873000D03*
D22*
X126645000Y-92475000D03*
D23*
X125645000Y-89975000D03*
X128645000Y-92475000D03*
X127645000Y-89975000D03*
D21*
X139145000Y-94873000D03*
X151145000Y-94873000D03*
D22*
X144645000Y-92475000D03*
D23*
X143645000Y-89975000D03*
X146645000Y-92475000D03*
X145645000Y-89975000D03*
D17*
X169295000Y-64975000D03*
X156595000Y-64975000D03*
X122645000Y-71975000D03*
X125145000Y-71975000D03*
D20*
X177645000Y-59975000D03*
D17*
X169295000Y-76975000D03*
X156595000Y-76975000D03*
D21*
X157145000Y-94873000D03*
X169145000Y-94873000D03*
D22*
X162645000Y-92475000D03*
D23*
X161645000Y-89975000D03*
X164645000Y-92475000D03*
X163645000Y-89975000D03*
%LPD*%
M02*
