%TF.GenerationSoftware,KiCad,Pcbnew,10.0.2*%
%TF.CreationDate,2026-05-16T20:56:20-04:00*%
%TF.ProjectId,usbPaddleKicad,75736250-6164-4646-9c65-4b696361642e,rev?*%
%TF.SameCoordinates,Original*%
%TF.FileFunction,Soldermask,Top*%
%TF.FilePolarity,Negative*%
%FSLAX46Y46*%
G04 Gerber Fmt 4.6, Leading zero omitted, Abs format (unit mm)*
G04 Created by KiCad (PCBNEW 10.0.2) date 2026-05-16 20:56:20*
%MOMM*%
%LPD*%
G01*
G04 APERTURE LIST*
G04 Aperture macros list*
%AMRoundRect*
0 Rectangle with rounded corners*
0 $1 Rounding radius*
0 $2 $3 $4 $5 $6 $7 $8 $9 X,Y pos of 4 corners*
0 Add a 4 corners polygon primitive as box body*
4,1,4,$2,$3,$4,$5,$6,$7,$8,$9,$2,$3,0*
0 Add four circle primitives for the rounded corners*
1,1,$1+$1,$2,$3*
1,1,$1+$1,$4,$5*
1,1,$1+$1,$6,$7*
1,1,$1+$1,$8,$9*
0 Add four rect primitives between the rounded corners*
20,1,$1+$1,$2,$3,$4,$5,0*
20,1,$1+$1,$4,$5,$6,$7,0*
20,1,$1+$1,$6,$7,$8,$9,0*
20,1,$1+$1,$8,$9,$2,$3,0*%
G04 Aperture macros list end*
%ADD10C,1.600000*%
%ADD11RoundRect,0.102000X-0.754000X-0.754000X0.754000X-0.754000X0.754000X0.754000X-0.754000X0.754000X0*%
%ADD12C,1.712000*%
%ADD13C,3.500000*%
%ADD14C,3.200000*%
%ADD15RoundRect,0.102000X-0.704000X-0.704000X0.704000X-0.704000X0.704000X0.704000X-0.704000X0.704000X0*%
%ADD16C,1.612000*%
G04 APERTURE END LIST*
D10*
X122645000Y-67975000D03*
X125145000Y-67975000D03*
D11*
X144265000Y-57815000D03*
D12*
X144265000Y-60355000D03*
X144265000Y-62895000D03*
X144265000Y-65435000D03*
X144265000Y-67975000D03*
X144265000Y-70515000D03*
X144265000Y-73055000D03*
X144265000Y-75595000D03*
X144265000Y-78135000D03*
X141725000Y-78135000D03*
X139185000Y-78135000D03*
X136645000Y-78135000D03*
X134105000Y-78135000D03*
X131565000Y-78135000D03*
X129025000Y-78135000D03*
X129025000Y-75595000D03*
X129025000Y-73055000D03*
X129025000Y-70515000D03*
X129025000Y-67975000D03*
X129025000Y-65435000D03*
X129025000Y-62895000D03*
X129025000Y-60355000D03*
X129025000Y-57815000D03*
D10*
X122645000Y-63975000D03*
X125145000Y-63975000D03*
X122645000Y-75975000D03*
X125145000Y-75975000D03*
D13*
X95645000Y-94975000D03*
X177645000Y-94975000D03*
D14*
X103145000Y-94873000D03*
X115145000Y-94873000D03*
D15*
X108645000Y-92475000D03*
D16*
X107645000Y-89975000D03*
X110645000Y-92475000D03*
X109645000Y-89975000D03*
D10*
X168995000Y-58975000D03*
X156295000Y-58975000D03*
D13*
X95645000Y-59975000D03*
D10*
X169295000Y-70975000D03*
X156595000Y-70975000D03*
D14*
X121145000Y-94873000D03*
X133145000Y-94873000D03*
D15*
X126645000Y-92475000D03*
D16*
X125645000Y-89975000D03*
X128645000Y-92475000D03*
X127645000Y-89975000D03*
D14*
X139145000Y-94873000D03*
X151145000Y-94873000D03*
D15*
X144645000Y-92475000D03*
D16*
X143645000Y-89975000D03*
X146645000Y-92475000D03*
X145645000Y-89975000D03*
D10*
X169295000Y-64975000D03*
X156595000Y-64975000D03*
X122645000Y-71975000D03*
X125145000Y-71975000D03*
D13*
X177645000Y-59975000D03*
D10*
X169295000Y-76975000D03*
X156595000Y-76975000D03*
D14*
X157145000Y-94873000D03*
X169145000Y-94873000D03*
D15*
X162645000Y-92475000D03*
D16*
X161645000Y-89975000D03*
X164645000Y-92475000D03*
X163645000Y-89975000D03*
M02*
