%TF.GenerationSoftware,KiCad,Pcbnew,10.0.2*%
%TF.CreationDate,2026-05-22T20:50:10-04:00*%
%TF.ProjectId,usbPaddleSingleKicad,75736250-6164-4646-9c65-53696e676c65,rev?*%
%TF.SameCoordinates,Original*%
%TF.FileFunction,Legend,Top*%
%TF.FilePolarity,Positive*%
%FSLAX46Y46*%
G04 Gerber Fmt 4.6, Leading zero omitted, Abs format (unit mm)*
G04 Created by KiCad (PCBNEW 10.0.2) date 2026-05-22 20:50:10*
%MOMM*%
%LPD*%
G01*
G04 APERTURE LIST*
G04 Aperture macros list*
%AMRoundRect*
0 Rectangle with rounded corners*
0 $1 Rounding radius*
0 $2 $3 $4 $5 $6 $7 $8 $9 X,Y pos of 4 corners*
0 Add a 4 corners polygon primitive as box body*
4,1,4,$2,$3,$4,$5,$6,$7,$8,$9,$2,$3,0*
0 Add four circle primitives for the rounded corners*
1,1,$1+$1,$2,$3*
1,1,$1+$1,$4,$5*
1,1,$1+$1,$6,$7*
1,1,$1+$1,$8,$9*
0 Add four rect primitives between the rounded corners*
20,1,$1+$1,$2,$3,$4,$5,0*
20,1,$1+$1,$4,$5,$6,$7,0*
20,1,$1+$1,$6,$7,$8,$9,0*
20,1,$1+$1,$8,$9,$2,$3,0*%
G04 Aperture macros list end*
%ADD10C,0.000000*%
%ADD11C,0.100000*%
%ADD12C,0.150000*%
%ADD13C,0.120000*%
%ADD14C,0.127000*%
%ADD15C,0.200000*%
%ADD16C,3.500000*%
%ADD17R,1.800000X1.800000*%
%ADD18C,1.800000*%
%ADD19RoundRect,0.750000X-0.750000X1.250000X-0.750000X-1.250000X0.750000X-1.250000X0.750000X1.250000X0*%
%ADD20RoundRect,0.102000X-0.754000X-0.754000X0.754000X-0.754000X0.754000X0.754000X-0.754000X0.754000X0*%
%ADD21C,1.712000*%
%ADD22C,1.600000*%
%ADD23C,3.000000*%
%ADD24R,1.700000X1.700000*%
%ADD25C,1.700000*%
%ADD26C,4.000000*%
%ADD27C,2.200000*%
G04 APERTURE END LIST*
D10*
G36*
X134456643Y-106318496D02*
G01*
X134018982Y-106318496D01*
X134018982Y-106099662D01*
X134456643Y-106099662D01*
X134456643Y-106318496D01*
G37*
G36*
X137520334Y-106975000D02*
G01*
X137082664Y-106975000D01*
X137082664Y-105880828D01*
X137520334Y-105880828D01*
X137520334Y-106975000D01*
G37*
G36*
X142115861Y-106099662D02*
G01*
X141897030Y-106099662D01*
X141897030Y-106318496D01*
X141678195Y-106318496D01*
X141678195Y-105880828D01*
X142115861Y-105880828D01*
X142115861Y-106099662D01*
G37*
G36*
X142115861Y-106975000D02*
G01*
X141678195Y-106975000D01*
X141678195Y-106537333D01*
X141897030Y-106537333D01*
X141897030Y-106318496D01*
X142115861Y-106318496D01*
X142115861Y-106975000D01*
G37*
G36*
X143647704Y-106099662D02*
G01*
X143428871Y-106099662D01*
X143428871Y-106318496D01*
X143210038Y-106318496D01*
X143210038Y-105880828D01*
X143647704Y-105880828D01*
X143647704Y-106099662D01*
G37*
G36*
X143647704Y-106975000D02*
G01*
X143210038Y-106975000D01*
X143210038Y-106537333D01*
X143428871Y-106537333D01*
X143428871Y-106318496D01*
X143647704Y-106318496D01*
X143647704Y-106975000D01*
G37*
G36*
X145179545Y-106099662D02*
G01*
X144960713Y-106099662D01*
X144960713Y-106318496D01*
X144741878Y-106318496D01*
X144741878Y-105880828D01*
X145179545Y-105880828D01*
X145179545Y-106099662D01*
G37*
G36*
X145179546Y-106975000D02*
G01*
X144741878Y-106975000D01*
X144741878Y-106537333D01*
X144960713Y-106537333D01*
X144960713Y-106318496D01*
X145179546Y-106318496D01*
X145179546Y-106975000D01*
G37*
G36*
X146141366Y-107672680D02*
G01*
X127197282Y-107672680D01*
X127197282Y-106318497D01*
X127672777Y-106318497D01*
X127891610Y-106318497D01*
X127891610Y-106537333D01*
X128548118Y-106537333D01*
X128548118Y-106975000D01*
X128110440Y-106975000D01*
X128110440Y-106756169D01*
X127672777Y-106756169D01*
X127672777Y-106975000D01*
X127891610Y-106975000D01*
X127891610Y-107193838D01*
X128766948Y-107193838D01*
X129204621Y-107193838D01*
X129642288Y-107193838D01*
X129642288Y-106537333D01*
X130079963Y-106537333D01*
X130079963Y-107193838D01*
X130517627Y-107193838D01*
X130517627Y-106975000D01*
X130736458Y-106975000D01*
X130736458Y-107193838D01*
X131611802Y-107193838D01*
X131830638Y-107193838D01*
X132268307Y-107193838D01*
X132268307Y-106318496D01*
X132487139Y-106318496D01*
X132487139Y-106537333D01*
X132705970Y-106537333D01*
X132705970Y-106318496D01*
X132924810Y-106318496D01*
X132924810Y-107193838D01*
X133362476Y-107193838D01*
X133581310Y-107193838D01*
X134018984Y-107193838D01*
X134018984Y-106537333D01*
X134456650Y-106537333D01*
X134456650Y-107193838D01*
X134894321Y-107193838D01*
X134894321Y-106756169D01*
X134894321Y-106099662D01*
X134675485Y-106099662D01*
X134675485Y-105880828D01*
X134456650Y-105880828D01*
X134456650Y-105661993D01*
X135113153Y-105661993D01*
X135113153Y-106756169D01*
X135331988Y-106756169D01*
X135331988Y-106975000D01*
X135550826Y-106975000D01*
X135550826Y-107193838D01*
X135988491Y-107193838D01*
X135988491Y-106975000D01*
X136207328Y-106975000D01*
X136645000Y-106975000D01*
X136863830Y-106975000D01*
X136863830Y-107193838D01*
X137739169Y-107193838D01*
X137739169Y-106975000D01*
X137958004Y-106975000D01*
X137958004Y-106756169D01*
X138176843Y-106756169D01*
X138176843Y-107193838D01*
X138614511Y-107193838D01*
X138614511Y-106756169D01*
X139052178Y-106756169D01*
X139052178Y-107193838D01*
X139489849Y-107193838D01*
X139489849Y-106756168D01*
X139271013Y-106756168D01*
X139271013Y-106537333D01*
X139052178Y-106537333D01*
X139052178Y-106318496D01*
X139271013Y-106318496D01*
X139271013Y-106099663D01*
X139708682Y-106099663D01*
X140146357Y-106099663D01*
X140146357Y-105880829D01*
X140584018Y-105880829D01*
X140584018Y-106318497D01*
X140146357Y-106318497D01*
X140146357Y-106537333D01*
X140584018Y-106537333D01*
X140584018Y-106975000D01*
X140146357Y-106975000D01*
X140146357Y-106756169D01*
X139708682Y-106756169D01*
X139708682Y-106975000D01*
X139927517Y-106975000D01*
X139927517Y-107193838D01*
X140802855Y-107193838D01*
X140802855Y-106975000D01*
X141021689Y-106975000D01*
X141240521Y-106975000D01*
X141459362Y-106975000D01*
X141459362Y-107193838D01*
X142334696Y-107193838D01*
X142334696Y-106975000D01*
X142553533Y-106975000D01*
X142772366Y-106975000D01*
X142991204Y-106975000D01*
X142991204Y-107193838D01*
X143866537Y-107193838D01*
X143866537Y-106975000D01*
X144085376Y-106975000D01*
X144304211Y-106975000D01*
X144523045Y-106975000D01*
X144523045Y-107193838D01*
X145398384Y-107193838D01*
X145398384Y-106975000D01*
X145617220Y-106975000D01*
X145617220Y-105880828D01*
X145398384Y-105880828D01*
X145398384Y-105661993D01*
X144523045Y-105661993D01*
X144523045Y-105880828D01*
X144304211Y-105880828D01*
X144304211Y-106975000D01*
X144085376Y-106975000D01*
X144085376Y-105880828D01*
X143866540Y-105880828D01*
X143866540Y-105661993D01*
X142991204Y-105661993D01*
X142991204Y-105880828D01*
X142772366Y-105880828D01*
X142772366Y-106975000D01*
X142553533Y-106975000D01*
X142553533Y-105880828D01*
X142334696Y-105880828D01*
X142334696Y-105661993D01*
X141459362Y-105661993D01*
X141459362Y-105880828D01*
X141240521Y-105880828D01*
X141240521Y-106975000D01*
X141021689Y-106975000D01*
X141021689Y-106537333D01*
X140802855Y-106537333D01*
X140802855Y-106318496D01*
X141021689Y-106318496D01*
X141021689Y-105880828D01*
X140802855Y-105880828D01*
X140802855Y-105661993D01*
X139927517Y-105661993D01*
X139927517Y-105880829D01*
X139708682Y-105880829D01*
X139708682Y-106099663D01*
X139271013Y-106099663D01*
X139271013Y-106099662D01*
X139489849Y-106099662D01*
X139489849Y-105880829D01*
X139489849Y-105661993D01*
X139052178Y-105661993D01*
X139052178Y-106099662D01*
X138614511Y-106099662D01*
X138614511Y-105661993D01*
X138176843Y-105661993D01*
X138176843Y-106099663D01*
X138395676Y-106099663D01*
X138395676Y-106318497D01*
X138614511Y-106318497D01*
X138614511Y-106537333D01*
X138395676Y-106537333D01*
X138395676Y-106756169D01*
X138176843Y-106756169D01*
X137958004Y-106756169D01*
X137958004Y-106099663D01*
X137958004Y-105880828D01*
X137739169Y-105880828D01*
X137739169Y-105661993D01*
X136863830Y-105661993D01*
X136863830Y-105880828D01*
X136645000Y-105880828D01*
X136645000Y-106975000D01*
X136207328Y-106975000D01*
X136207328Y-106756169D01*
X136426162Y-106756169D01*
X136426162Y-105880828D01*
X136426162Y-105661993D01*
X135988491Y-105661993D01*
X135988491Y-106756169D01*
X135550826Y-106756169D01*
X135550826Y-105661993D01*
X135113153Y-105661993D01*
X134456650Y-105661993D01*
X134018982Y-105661993D01*
X134018988Y-105880828D01*
X133800147Y-105880828D01*
X133800147Y-106099662D01*
X133581310Y-106099662D01*
X133581310Y-107193838D01*
X133362476Y-107193838D01*
X133362476Y-106099662D01*
X133362476Y-105661993D01*
X132924810Y-105661993D01*
X132924810Y-105880828D01*
X132705970Y-105880828D01*
X132705970Y-106099662D01*
X132487139Y-106099662D01*
X132487139Y-105880828D01*
X132268307Y-105880828D01*
X132268307Y-105661993D01*
X131830638Y-105661993D01*
X131830638Y-107193838D01*
X131611802Y-107193838D01*
X131611802Y-106975000D01*
X131392961Y-106975000D01*
X131392961Y-105880828D01*
X131611802Y-105880828D01*
X131611802Y-105661993D01*
X130736458Y-105661993D01*
X130736458Y-105880828D01*
X130955299Y-105880828D01*
X130955299Y-106975000D01*
X130736458Y-106975000D01*
X130517627Y-106975000D01*
X130517627Y-105880828D01*
X130517627Y-105661993D01*
X130079963Y-105661993D01*
X130079963Y-106318497D01*
X129642288Y-106318497D01*
X129642288Y-105661993D01*
X129204621Y-105661993D01*
X129204621Y-107193838D01*
X128766948Y-107193838D01*
X128766948Y-106975000D01*
X128985781Y-106975000D01*
X128985781Y-106537333D01*
X128766948Y-106537333D01*
X128766948Y-106318496D01*
X128110440Y-106318496D01*
X128110440Y-105880828D01*
X128548118Y-105880828D01*
X128548118Y-106099662D01*
X128985781Y-106099662D01*
X128985781Y-105880828D01*
X128766948Y-105880828D01*
X128766948Y-105661993D01*
X127891610Y-105661993D01*
X127891609Y-105880829D01*
X127672777Y-105880829D01*
X127672777Y-106318497D01*
X127197282Y-106318497D01*
X127197282Y-105880829D01*
X127197282Y-105171894D01*
X146141366Y-105171894D01*
X146141366Y-107672680D01*
G37*
D11*
X145948884Y-95267587D02*
X145948884Y-96077110D01*
X145948884Y-96077110D02*
X145996503Y-96172348D01*
X145996503Y-96172348D02*
X146044122Y-96219968D01*
X146044122Y-96219968D02*
X146139360Y-96267587D01*
X146139360Y-96267587D02*
X146329836Y-96267587D01*
X146329836Y-96267587D02*
X146425074Y-96219968D01*
X146425074Y-96219968D02*
X146472693Y-96172348D01*
X146472693Y-96172348D02*
X146520312Y-96077110D01*
X146520312Y-96077110D02*
X146520312Y-95267587D01*
X146948884Y-96219968D02*
X147091741Y-96267587D01*
X147091741Y-96267587D02*
X147329836Y-96267587D01*
X147329836Y-96267587D02*
X147425074Y-96219968D01*
X147425074Y-96219968D02*
X147472693Y-96172348D01*
X147472693Y-96172348D02*
X147520312Y-96077110D01*
X147520312Y-96077110D02*
X147520312Y-95981872D01*
X147520312Y-95981872D02*
X147472693Y-95886634D01*
X147472693Y-95886634D02*
X147425074Y-95839015D01*
X147425074Y-95839015D02*
X147329836Y-95791396D01*
X147329836Y-95791396D02*
X147139360Y-95743777D01*
X147139360Y-95743777D02*
X147044122Y-95696158D01*
X147044122Y-95696158D02*
X146996503Y-95648539D01*
X146996503Y-95648539D02*
X146948884Y-95553301D01*
X146948884Y-95553301D02*
X146948884Y-95458063D01*
X146948884Y-95458063D02*
X146996503Y-95362825D01*
X146996503Y-95362825D02*
X147044122Y-95315206D01*
X147044122Y-95315206D02*
X147139360Y-95267587D01*
X147139360Y-95267587D02*
X147377455Y-95267587D01*
X147377455Y-95267587D02*
X147520312Y-95315206D01*
X148282217Y-95743777D02*
X148425074Y-95791396D01*
X148425074Y-95791396D02*
X148472693Y-95839015D01*
X148472693Y-95839015D02*
X148520312Y-95934253D01*
X148520312Y-95934253D02*
X148520312Y-96077110D01*
X148520312Y-96077110D02*
X148472693Y-96172348D01*
X148472693Y-96172348D02*
X148425074Y-96219968D01*
X148425074Y-96219968D02*
X148329836Y-96267587D01*
X148329836Y-96267587D02*
X147948884Y-96267587D01*
X147948884Y-96267587D02*
X147948884Y-95267587D01*
X147948884Y-95267587D02*
X148282217Y-95267587D01*
X148282217Y-95267587D02*
X148377455Y-95315206D01*
X148377455Y-95315206D02*
X148425074Y-95362825D01*
X148425074Y-95362825D02*
X148472693Y-95458063D01*
X148472693Y-95458063D02*
X148472693Y-95553301D01*
X148472693Y-95553301D02*
X148425074Y-95648539D01*
X148425074Y-95648539D02*
X148377455Y-95696158D01*
X148377455Y-95696158D02*
X148282217Y-95743777D01*
X148282217Y-95743777D02*
X147948884Y-95743777D01*
X149710789Y-96267587D02*
X149710789Y-95267587D01*
X149710789Y-95267587D02*
X150091741Y-95267587D01*
X150091741Y-95267587D02*
X150186979Y-95315206D01*
X150186979Y-95315206D02*
X150234598Y-95362825D01*
X150234598Y-95362825D02*
X150282217Y-95458063D01*
X150282217Y-95458063D02*
X150282217Y-95600920D01*
X150282217Y-95600920D02*
X150234598Y-95696158D01*
X150234598Y-95696158D02*
X150186979Y-95743777D01*
X150186979Y-95743777D02*
X150091741Y-95791396D01*
X150091741Y-95791396D02*
X149710789Y-95791396D01*
X151139360Y-96267587D02*
X151139360Y-95743777D01*
X151139360Y-95743777D02*
X151091741Y-95648539D01*
X151091741Y-95648539D02*
X150996503Y-95600920D01*
X150996503Y-95600920D02*
X150806027Y-95600920D01*
X150806027Y-95600920D02*
X150710789Y-95648539D01*
X151139360Y-96219968D02*
X151044122Y-96267587D01*
X151044122Y-96267587D02*
X150806027Y-96267587D01*
X150806027Y-96267587D02*
X150710789Y-96219968D01*
X150710789Y-96219968D02*
X150663170Y-96124729D01*
X150663170Y-96124729D02*
X150663170Y-96029491D01*
X150663170Y-96029491D02*
X150710789Y-95934253D01*
X150710789Y-95934253D02*
X150806027Y-95886634D01*
X150806027Y-95886634D02*
X151044122Y-95886634D01*
X151044122Y-95886634D02*
X151139360Y-95839015D01*
X152044122Y-96267587D02*
X152044122Y-95267587D01*
X152044122Y-96219968D02*
X151948884Y-96267587D01*
X151948884Y-96267587D02*
X151758408Y-96267587D01*
X151758408Y-96267587D02*
X151663170Y-96219968D01*
X151663170Y-96219968D02*
X151615551Y-96172348D01*
X151615551Y-96172348D02*
X151567932Y-96077110D01*
X151567932Y-96077110D02*
X151567932Y-95791396D01*
X151567932Y-95791396D02*
X151615551Y-95696158D01*
X151615551Y-95696158D02*
X151663170Y-95648539D01*
X151663170Y-95648539D02*
X151758408Y-95600920D01*
X151758408Y-95600920D02*
X151948884Y-95600920D01*
X151948884Y-95600920D02*
X152044122Y-95648539D01*
X152948884Y-96267587D02*
X152948884Y-95267587D01*
X152948884Y-96219968D02*
X152853646Y-96267587D01*
X152853646Y-96267587D02*
X152663170Y-96267587D01*
X152663170Y-96267587D02*
X152567932Y-96219968D01*
X152567932Y-96219968D02*
X152520313Y-96172348D01*
X152520313Y-96172348D02*
X152472694Y-96077110D01*
X152472694Y-96077110D02*
X152472694Y-95791396D01*
X152472694Y-95791396D02*
X152520313Y-95696158D01*
X152520313Y-95696158D02*
X152567932Y-95648539D01*
X152567932Y-95648539D02*
X152663170Y-95600920D01*
X152663170Y-95600920D02*
X152853646Y-95600920D01*
X152853646Y-95600920D02*
X152948884Y-95648539D01*
X153567932Y-96267587D02*
X153472694Y-96219968D01*
X153472694Y-96219968D02*
X153425075Y-96124729D01*
X153425075Y-96124729D02*
X153425075Y-95267587D01*
X154329837Y-96219968D02*
X154234599Y-96267587D01*
X154234599Y-96267587D02*
X154044123Y-96267587D01*
X154044123Y-96267587D02*
X153948885Y-96219968D01*
X153948885Y-96219968D02*
X153901266Y-96124729D01*
X153901266Y-96124729D02*
X153901266Y-95743777D01*
X153901266Y-95743777D02*
X153948885Y-95648539D01*
X153948885Y-95648539D02*
X154044123Y-95600920D01*
X154044123Y-95600920D02*
X154234599Y-95600920D01*
X154234599Y-95600920D02*
X154329837Y-95648539D01*
X154329837Y-95648539D02*
X154377456Y-95743777D01*
X154377456Y-95743777D02*
X154377456Y-95839015D01*
X154377456Y-95839015D02*
X153901266Y-95934253D01*
X145853646Y-97210864D02*
X146091741Y-97877531D01*
X146091741Y-97877531D02*
X146329836Y-97210864D01*
X147091741Y-97829912D02*
X146996503Y-97877531D01*
X146996503Y-97877531D02*
X146806027Y-97877531D01*
X146806027Y-97877531D02*
X146710789Y-97829912D01*
X146710789Y-97829912D02*
X146663170Y-97734673D01*
X146663170Y-97734673D02*
X146663170Y-97353721D01*
X146663170Y-97353721D02*
X146710789Y-97258483D01*
X146710789Y-97258483D02*
X146806027Y-97210864D01*
X146806027Y-97210864D02*
X146996503Y-97210864D01*
X146996503Y-97210864D02*
X147091741Y-97258483D01*
X147091741Y-97258483D02*
X147139360Y-97353721D01*
X147139360Y-97353721D02*
X147139360Y-97448959D01*
X147139360Y-97448959D02*
X146663170Y-97544197D01*
X147567932Y-97877531D02*
X147567932Y-97210864D01*
X147567932Y-97401340D02*
X147615551Y-97306102D01*
X147615551Y-97306102D02*
X147663170Y-97258483D01*
X147663170Y-97258483D02*
X147758408Y-97210864D01*
X147758408Y-97210864D02*
X147853646Y-97210864D01*
X148139361Y-97829912D02*
X148234599Y-97877531D01*
X148234599Y-97877531D02*
X148425075Y-97877531D01*
X148425075Y-97877531D02*
X148520313Y-97829912D01*
X148520313Y-97829912D02*
X148567932Y-97734673D01*
X148567932Y-97734673D02*
X148567932Y-97687054D01*
X148567932Y-97687054D02*
X148520313Y-97591816D01*
X148520313Y-97591816D02*
X148425075Y-97544197D01*
X148425075Y-97544197D02*
X148282218Y-97544197D01*
X148282218Y-97544197D02*
X148186980Y-97496578D01*
X148186980Y-97496578D02*
X148139361Y-97401340D01*
X148139361Y-97401340D02*
X148139361Y-97353721D01*
X148139361Y-97353721D02*
X148186980Y-97258483D01*
X148186980Y-97258483D02*
X148282218Y-97210864D01*
X148282218Y-97210864D02*
X148425075Y-97210864D01*
X148425075Y-97210864D02*
X148520313Y-97258483D01*
X148996504Y-97877531D02*
X148996504Y-97210864D01*
X148996504Y-96877531D02*
X148948885Y-96925150D01*
X148948885Y-96925150D02*
X148996504Y-96972769D01*
X148996504Y-96972769D02*
X149044123Y-96925150D01*
X149044123Y-96925150D02*
X148996504Y-96877531D01*
X148996504Y-96877531D02*
X148996504Y-96972769D01*
X149615551Y-97877531D02*
X149520313Y-97829912D01*
X149520313Y-97829912D02*
X149472694Y-97782292D01*
X149472694Y-97782292D02*
X149425075Y-97687054D01*
X149425075Y-97687054D02*
X149425075Y-97401340D01*
X149425075Y-97401340D02*
X149472694Y-97306102D01*
X149472694Y-97306102D02*
X149520313Y-97258483D01*
X149520313Y-97258483D02*
X149615551Y-97210864D01*
X149615551Y-97210864D02*
X149758408Y-97210864D01*
X149758408Y-97210864D02*
X149853646Y-97258483D01*
X149853646Y-97258483D02*
X149901265Y-97306102D01*
X149901265Y-97306102D02*
X149948884Y-97401340D01*
X149948884Y-97401340D02*
X149948884Y-97687054D01*
X149948884Y-97687054D02*
X149901265Y-97782292D01*
X149901265Y-97782292D02*
X149853646Y-97829912D01*
X149853646Y-97829912D02*
X149758408Y-97877531D01*
X149758408Y-97877531D02*
X149615551Y-97877531D01*
X150377456Y-97210864D02*
X150377456Y-97877531D01*
X150377456Y-97306102D02*
X150425075Y-97258483D01*
X150425075Y-97258483D02*
X150520313Y-97210864D01*
X150520313Y-97210864D02*
X150663170Y-97210864D01*
X150663170Y-97210864D02*
X150758408Y-97258483D01*
X150758408Y-97258483D02*
X150806027Y-97353721D01*
X150806027Y-97353721D02*
X150806027Y-97877531D01*
X152567932Y-97877531D02*
X151996504Y-97877531D01*
X152282218Y-97877531D02*
X152282218Y-96877531D01*
X152282218Y-96877531D02*
X152186980Y-97020388D01*
X152186980Y-97020388D02*
X152091742Y-97115626D01*
X152091742Y-97115626D02*
X151996504Y-97163245D01*
X152996504Y-97782292D02*
X153044123Y-97829912D01*
X153044123Y-97829912D02*
X152996504Y-97877531D01*
X152996504Y-97877531D02*
X152948885Y-97829912D01*
X152948885Y-97829912D02*
X152996504Y-97782292D01*
X152996504Y-97782292D02*
X152996504Y-97877531D01*
X153663170Y-96877531D02*
X153758408Y-96877531D01*
X153758408Y-96877531D02*
X153853646Y-96925150D01*
X153853646Y-96925150D02*
X153901265Y-96972769D01*
X153901265Y-96972769D02*
X153948884Y-97068007D01*
X153948884Y-97068007D02*
X153996503Y-97258483D01*
X153996503Y-97258483D02*
X153996503Y-97496578D01*
X153996503Y-97496578D02*
X153948884Y-97687054D01*
X153948884Y-97687054D02*
X153901265Y-97782292D01*
X153901265Y-97782292D02*
X153853646Y-97829912D01*
X153853646Y-97829912D02*
X153758408Y-97877531D01*
X153758408Y-97877531D02*
X153663170Y-97877531D01*
X153663170Y-97877531D02*
X153567932Y-97829912D01*
X153567932Y-97829912D02*
X153520313Y-97782292D01*
X153520313Y-97782292D02*
X153472694Y-97687054D01*
X153472694Y-97687054D02*
X153425075Y-97496578D01*
X153425075Y-97496578D02*
X153425075Y-97258483D01*
X153425075Y-97258483D02*
X153472694Y-97068007D01*
X153472694Y-97068007D02*
X153520313Y-96972769D01*
X153520313Y-96972769D02*
X153567932Y-96925150D01*
X153567932Y-96925150D02*
X153663170Y-96877531D01*
X145948884Y-99487475D02*
X145948884Y-98487475D01*
X145948884Y-98487475D02*
X146186979Y-98487475D01*
X146186979Y-98487475D02*
X146329836Y-98535094D01*
X146329836Y-98535094D02*
X146425074Y-98630332D01*
X146425074Y-98630332D02*
X146472693Y-98725570D01*
X146472693Y-98725570D02*
X146520312Y-98916046D01*
X146520312Y-98916046D02*
X146520312Y-99058903D01*
X146520312Y-99058903D02*
X146472693Y-99249379D01*
X146472693Y-99249379D02*
X146425074Y-99344617D01*
X146425074Y-99344617D02*
X146329836Y-99439856D01*
X146329836Y-99439856D02*
X146186979Y-99487475D01*
X146186979Y-99487475D02*
X145948884Y-99487475D01*
X147377455Y-99487475D02*
X147377455Y-98963665D01*
X147377455Y-98963665D02*
X147329836Y-98868427D01*
X147329836Y-98868427D02*
X147234598Y-98820808D01*
X147234598Y-98820808D02*
X147044122Y-98820808D01*
X147044122Y-98820808D02*
X146948884Y-98868427D01*
X147377455Y-99439856D02*
X147282217Y-99487475D01*
X147282217Y-99487475D02*
X147044122Y-99487475D01*
X147044122Y-99487475D02*
X146948884Y-99439856D01*
X146948884Y-99439856D02*
X146901265Y-99344617D01*
X146901265Y-99344617D02*
X146901265Y-99249379D01*
X146901265Y-99249379D02*
X146948884Y-99154141D01*
X146948884Y-99154141D02*
X147044122Y-99106522D01*
X147044122Y-99106522D02*
X147282217Y-99106522D01*
X147282217Y-99106522D02*
X147377455Y-99058903D01*
X147853646Y-98820808D02*
X147853646Y-99487475D01*
X147853646Y-98916046D02*
X147901265Y-98868427D01*
X147901265Y-98868427D02*
X147996503Y-98820808D01*
X147996503Y-98820808D02*
X148139360Y-98820808D01*
X148139360Y-98820808D02*
X148234598Y-98868427D01*
X148234598Y-98868427D02*
X148282217Y-98963665D01*
X148282217Y-98963665D02*
X148282217Y-99487475D01*
X149472694Y-99439856D02*
X149615551Y-99487475D01*
X149615551Y-99487475D02*
X149853646Y-99487475D01*
X149853646Y-99487475D02*
X149948884Y-99439856D01*
X149948884Y-99439856D02*
X149996503Y-99392236D01*
X149996503Y-99392236D02*
X150044122Y-99296998D01*
X150044122Y-99296998D02*
X150044122Y-99201760D01*
X150044122Y-99201760D02*
X149996503Y-99106522D01*
X149996503Y-99106522D02*
X149948884Y-99058903D01*
X149948884Y-99058903D02*
X149853646Y-99011284D01*
X149853646Y-99011284D02*
X149663170Y-98963665D01*
X149663170Y-98963665D02*
X149567932Y-98916046D01*
X149567932Y-98916046D02*
X149520313Y-98868427D01*
X149520313Y-98868427D02*
X149472694Y-98773189D01*
X149472694Y-98773189D02*
X149472694Y-98677951D01*
X149472694Y-98677951D02*
X149520313Y-98582713D01*
X149520313Y-98582713D02*
X149567932Y-98535094D01*
X149567932Y-98535094D02*
X149663170Y-98487475D01*
X149663170Y-98487475D02*
X149901265Y-98487475D01*
X149901265Y-98487475D02*
X150044122Y-98535094D01*
X150472694Y-99487475D02*
X150472694Y-98487475D01*
X150901265Y-99487475D02*
X150901265Y-98963665D01*
X150901265Y-98963665D02*
X150853646Y-98868427D01*
X150853646Y-98868427D02*
X150758408Y-98820808D01*
X150758408Y-98820808D02*
X150615551Y-98820808D01*
X150615551Y-98820808D02*
X150520313Y-98868427D01*
X150520313Y-98868427D02*
X150472694Y-98916046D01*
X151377456Y-99487475D02*
X151377456Y-98820808D01*
X151377456Y-98487475D02*
X151329837Y-98535094D01*
X151329837Y-98535094D02*
X151377456Y-98582713D01*
X151377456Y-98582713D02*
X151425075Y-98535094D01*
X151425075Y-98535094D02*
X151377456Y-98487475D01*
X151377456Y-98487475D02*
X151377456Y-98582713D01*
X151853646Y-99487475D02*
X151853646Y-98820808D01*
X151853646Y-98916046D02*
X151901265Y-98868427D01*
X151901265Y-98868427D02*
X151996503Y-98820808D01*
X151996503Y-98820808D02*
X152139360Y-98820808D01*
X152139360Y-98820808D02*
X152234598Y-98868427D01*
X152234598Y-98868427D02*
X152282217Y-98963665D01*
X152282217Y-98963665D02*
X152282217Y-99487475D01*
X152282217Y-98963665D02*
X152329836Y-98868427D01*
X152329836Y-98868427D02*
X152425074Y-98820808D01*
X152425074Y-98820808D02*
X152567931Y-98820808D01*
X152567931Y-98820808D02*
X152663170Y-98868427D01*
X152663170Y-98868427D02*
X152710789Y-98963665D01*
X152710789Y-98963665D02*
X152710789Y-99487475D01*
X153186979Y-99487475D02*
X153186979Y-98820808D01*
X153186979Y-98916046D02*
X153234598Y-98868427D01*
X153234598Y-98868427D02*
X153329836Y-98820808D01*
X153329836Y-98820808D02*
X153472693Y-98820808D01*
X153472693Y-98820808D02*
X153567931Y-98868427D01*
X153567931Y-98868427D02*
X153615550Y-98963665D01*
X153615550Y-98963665D02*
X153615550Y-99487475D01*
X153615550Y-98963665D02*
X153663169Y-98868427D01*
X153663169Y-98868427D02*
X153758407Y-98820808D01*
X153758407Y-98820808D02*
X153901264Y-98820808D01*
X153901264Y-98820808D02*
X153996503Y-98868427D01*
X153996503Y-98868427D02*
X154044122Y-98963665D01*
X154044122Y-98963665D02*
X154044122Y-99487475D01*
X154425074Y-98820808D02*
X154663169Y-99487475D01*
X154901264Y-98820808D02*
X154663169Y-99487475D01*
X154663169Y-99487475D02*
X154567931Y-99725570D01*
X154567931Y-99725570D02*
X154520312Y-99773189D01*
X154520312Y-99773189D02*
X154425074Y-99820808D01*
X155425074Y-99487475D02*
X155329836Y-99439856D01*
X155329836Y-99439856D02*
X155282217Y-99392236D01*
X155282217Y-99392236D02*
X155234598Y-99296998D01*
X155234598Y-99296998D02*
X155234598Y-99011284D01*
X155234598Y-99011284D02*
X155282217Y-98916046D01*
X155282217Y-98916046D02*
X155329836Y-98868427D01*
X155329836Y-98868427D02*
X155425074Y-98820808D01*
X155425074Y-98820808D02*
X155567931Y-98820808D01*
X155567931Y-98820808D02*
X155663169Y-98868427D01*
X155663169Y-98868427D02*
X155710788Y-98916046D01*
X155710788Y-98916046D02*
X155758407Y-99011284D01*
X155758407Y-99011284D02*
X155758407Y-99296998D01*
X155758407Y-99296998D02*
X155710788Y-99392236D01*
X155710788Y-99392236D02*
X155663169Y-99439856D01*
X155663169Y-99439856D02*
X155567931Y-99487475D01*
X155567931Y-99487475D02*
X155425074Y-99487475D01*
X145948884Y-101097419D02*
X145948884Y-100097419D01*
X145948884Y-100097419D02*
X146282217Y-100811704D01*
X146282217Y-100811704D02*
X146615550Y-100097419D01*
X146615550Y-100097419D02*
X146615550Y-101097419D01*
X147520312Y-101097419D02*
X147520312Y-100573609D01*
X147520312Y-100573609D02*
X147472693Y-100478371D01*
X147472693Y-100478371D02*
X147377455Y-100430752D01*
X147377455Y-100430752D02*
X147186979Y-100430752D01*
X147186979Y-100430752D02*
X147091741Y-100478371D01*
X147520312Y-101049800D02*
X147425074Y-101097419D01*
X147425074Y-101097419D02*
X147186979Y-101097419D01*
X147186979Y-101097419D02*
X147091741Y-101049800D01*
X147091741Y-101049800D02*
X147044122Y-100954561D01*
X147044122Y-100954561D02*
X147044122Y-100859323D01*
X147044122Y-100859323D02*
X147091741Y-100764085D01*
X147091741Y-100764085D02*
X147186979Y-100716466D01*
X147186979Y-100716466D02*
X147425074Y-100716466D01*
X147425074Y-100716466D02*
X147520312Y-100668847D01*
X147901265Y-100430752D02*
X148139360Y-101097419D01*
X148377455Y-100430752D02*
X148139360Y-101097419D01*
X148139360Y-101097419D02*
X148044122Y-101335514D01*
X148044122Y-101335514D02*
X147996503Y-101383133D01*
X147996503Y-101383133D02*
X147901265Y-101430752D01*
X149472694Y-100192657D02*
X149520313Y-100145038D01*
X149520313Y-100145038D02*
X149615551Y-100097419D01*
X149615551Y-100097419D02*
X149853646Y-100097419D01*
X149853646Y-100097419D02*
X149948884Y-100145038D01*
X149948884Y-100145038D02*
X149996503Y-100192657D01*
X149996503Y-100192657D02*
X150044122Y-100287895D01*
X150044122Y-100287895D02*
X150044122Y-100383133D01*
X150044122Y-100383133D02*
X149996503Y-100525990D01*
X149996503Y-100525990D02*
X149425075Y-101097419D01*
X149425075Y-101097419D02*
X150044122Y-101097419D01*
X150663170Y-100097419D02*
X150758408Y-100097419D01*
X150758408Y-100097419D02*
X150853646Y-100145038D01*
X150853646Y-100145038D02*
X150901265Y-100192657D01*
X150901265Y-100192657D02*
X150948884Y-100287895D01*
X150948884Y-100287895D02*
X150996503Y-100478371D01*
X150996503Y-100478371D02*
X150996503Y-100716466D01*
X150996503Y-100716466D02*
X150948884Y-100906942D01*
X150948884Y-100906942D02*
X150901265Y-101002180D01*
X150901265Y-101002180D02*
X150853646Y-101049800D01*
X150853646Y-101049800D02*
X150758408Y-101097419D01*
X150758408Y-101097419D02*
X150663170Y-101097419D01*
X150663170Y-101097419D02*
X150567932Y-101049800D01*
X150567932Y-101049800D02*
X150520313Y-101002180D01*
X150520313Y-101002180D02*
X150472694Y-100906942D01*
X150472694Y-100906942D02*
X150425075Y-100716466D01*
X150425075Y-100716466D02*
X150425075Y-100478371D01*
X150425075Y-100478371D02*
X150472694Y-100287895D01*
X150472694Y-100287895D02*
X150520313Y-100192657D01*
X150520313Y-100192657D02*
X150567932Y-100145038D01*
X150567932Y-100145038D02*
X150663170Y-100097419D01*
X151377456Y-100192657D02*
X151425075Y-100145038D01*
X151425075Y-100145038D02*
X151520313Y-100097419D01*
X151520313Y-100097419D02*
X151758408Y-100097419D01*
X151758408Y-100097419D02*
X151853646Y-100145038D01*
X151853646Y-100145038D02*
X151901265Y-100192657D01*
X151901265Y-100192657D02*
X151948884Y-100287895D01*
X151948884Y-100287895D02*
X151948884Y-100383133D01*
X151948884Y-100383133D02*
X151901265Y-100525990D01*
X151901265Y-100525990D02*
X151329837Y-101097419D01*
X151329837Y-101097419D02*
X151948884Y-101097419D01*
X152806027Y-100097419D02*
X152615551Y-100097419D01*
X152615551Y-100097419D02*
X152520313Y-100145038D01*
X152520313Y-100145038D02*
X152472694Y-100192657D01*
X152472694Y-100192657D02*
X152377456Y-100335514D01*
X152377456Y-100335514D02*
X152329837Y-100525990D01*
X152329837Y-100525990D02*
X152329837Y-100906942D01*
X152329837Y-100906942D02*
X152377456Y-101002180D01*
X152377456Y-101002180D02*
X152425075Y-101049800D01*
X152425075Y-101049800D02*
X152520313Y-101097419D01*
X152520313Y-101097419D02*
X152710789Y-101097419D01*
X152710789Y-101097419D02*
X152806027Y-101049800D01*
X152806027Y-101049800D02*
X152853646Y-101002180D01*
X152853646Y-101002180D02*
X152901265Y-100906942D01*
X152901265Y-100906942D02*
X152901265Y-100668847D01*
X152901265Y-100668847D02*
X152853646Y-100573609D01*
X152853646Y-100573609D02*
X152806027Y-100525990D01*
X152806027Y-100525990D02*
X152710789Y-100478371D01*
X152710789Y-100478371D02*
X152520313Y-100478371D01*
X152520313Y-100478371D02*
X152425075Y-100525990D01*
X152425075Y-100525990D02*
X152377456Y-100573609D01*
X152377456Y-100573609D02*
X152329837Y-100668847D01*
D12*
X144749819Y-93570238D02*
X144273628Y-93903571D01*
X144749819Y-94141666D02*
X143749819Y-94141666D01*
X143749819Y-94141666D02*
X143749819Y-93760714D01*
X143749819Y-93760714D02*
X143797438Y-93665476D01*
X143797438Y-93665476D02*
X143845057Y-93617857D01*
X143845057Y-93617857D02*
X143940295Y-93570238D01*
X143940295Y-93570238D02*
X144083152Y-93570238D01*
X144083152Y-93570238D02*
X144178390Y-93617857D01*
X144178390Y-93617857D02*
X144226009Y-93665476D01*
X144226009Y-93665476D02*
X144273628Y-93760714D01*
X144273628Y-93760714D02*
X144273628Y-94141666D01*
X143749819Y-93284523D02*
X144749819Y-92951190D01*
X144749819Y-92951190D02*
X143749819Y-92617857D01*
X144749819Y-91760714D02*
X144749819Y-92332142D01*
X144749819Y-92046428D02*
X143749819Y-92046428D01*
X143749819Y-92046428D02*
X143892676Y-92141666D01*
X143892676Y-92141666D02*
X143987914Y-92236904D01*
X143987914Y-92236904D02*
X144035533Y-92332142D01*
X137308095Y-35794819D02*
X137308095Y-36604342D01*
X137308095Y-36604342D02*
X137355714Y-36699580D01*
X137355714Y-36699580D02*
X137403333Y-36747200D01*
X137403333Y-36747200D02*
X137498571Y-36794819D01*
X137498571Y-36794819D02*
X137689047Y-36794819D01*
X137689047Y-36794819D02*
X137784285Y-36747200D01*
X137784285Y-36747200D02*
X137831904Y-36699580D01*
X137831904Y-36699580D02*
X137879523Y-36604342D01*
X137879523Y-36604342D02*
X137879523Y-35794819D01*
X138879523Y-36794819D02*
X138308095Y-36794819D01*
X138593809Y-36794819D02*
X138593809Y-35794819D01*
X138593809Y-35794819D02*
X138498571Y-35937676D01*
X138498571Y-35937676D02*
X138403333Y-36032914D01*
X138403333Y-36032914D02*
X138308095Y-36080533D01*
X143728333Y-64959819D02*
X143395000Y-64483628D01*
X143156905Y-64959819D02*
X143156905Y-63959819D01*
X143156905Y-63959819D02*
X143537857Y-63959819D01*
X143537857Y-63959819D02*
X143633095Y-64007438D01*
X143633095Y-64007438D02*
X143680714Y-64055057D01*
X143680714Y-64055057D02*
X143728333Y-64150295D01*
X143728333Y-64150295D02*
X143728333Y-64293152D01*
X143728333Y-64293152D02*
X143680714Y-64388390D01*
X143680714Y-64388390D02*
X143633095Y-64436009D01*
X143633095Y-64436009D02*
X143537857Y-64483628D01*
X143537857Y-64483628D02*
X143156905Y-64483628D01*
X144680714Y-64959819D02*
X144109286Y-64959819D01*
X144395000Y-64959819D02*
X144395000Y-63959819D01*
X144395000Y-63959819D02*
X144299762Y-64102676D01*
X144299762Y-64102676D02*
X144204524Y-64197914D01*
X144204524Y-64197914D02*
X144109286Y-64245533D01*
X137478333Y-81584580D02*
X137430714Y-81632200D01*
X137430714Y-81632200D02*
X137287857Y-81679819D01*
X137287857Y-81679819D02*
X137192619Y-81679819D01*
X137192619Y-81679819D02*
X137049762Y-81632200D01*
X137049762Y-81632200D02*
X136954524Y-81536961D01*
X136954524Y-81536961D02*
X136906905Y-81441723D01*
X136906905Y-81441723D02*
X136859286Y-81251247D01*
X136859286Y-81251247D02*
X136859286Y-81108390D01*
X136859286Y-81108390D02*
X136906905Y-80917914D01*
X136906905Y-80917914D02*
X136954524Y-80822676D01*
X136954524Y-80822676D02*
X137049762Y-80727438D01*
X137049762Y-80727438D02*
X137192619Y-80679819D01*
X137192619Y-80679819D02*
X137287857Y-80679819D01*
X137287857Y-80679819D02*
X137430714Y-80727438D01*
X137430714Y-80727438D02*
X137478333Y-80775057D01*
X138430714Y-81679819D02*
X137859286Y-81679819D01*
X138145000Y-81679819D02*
X138145000Y-80679819D01*
X138145000Y-80679819D02*
X138049762Y-80822676D01*
X138049762Y-80822676D02*
X137954524Y-80917914D01*
X137954524Y-80917914D02*
X137859286Y-80965533D01*
X119179819Y-67058333D02*
X119894104Y-67058333D01*
X119894104Y-67058333D02*
X120036961Y-67105952D01*
X120036961Y-67105952D02*
X120132200Y-67201190D01*
X120132200Y-67201190D02*
X120179819Y-67344047D01*
X120179819Y-67344047D02*
X120179819Y-67439285D01*
X120179819Y-66058333D02*
X120179819Y-66629761D01*
X120179819Y-66344047D02*
X119179819Y-66344047D01*
X119179819Y-66344047D02*
X119322676Y-66439285D01*
X119322676Y-66439285D02*
X119417914Y-66534523D01*
X119417914Y-66534523D02*
X119465533Y-66629761D01*
X121883095Y-47808200D02*
X122025952Y-47855819D01*
X122025952Y-47855819D02*
X122264047Y-47855819D01*
X122264047Y-47855819D02*
X122359285Y-47808200D01*
X122359285Y-47808200D02*
X122406904Y-47760580D01*
X122406904Y-47760580D02*
X122454523Y-47665342D01*
X122454523Y-47665342D02*
X122454523Y-47570104D01*
X122454523Y-47570104D02*
X122406904Y-47474866D01*
X122406904Y-47474866D02*
X122359285Y-47427247D01*
X122359285Y-47427247D02*
X122264047Y-47379628D01*
X122264047Y-47379628D02*
X122073571Y-47332009D01*
X122073571Y-47332009D02*
X121978333Y-47284390D01*
X121978333Y-47284390D02*
X121930714Y-47236771D01*
X121930714Y-47236771D02*
X121883095Y-47141533D01*
X121883095Y-47141533D02*
X121883095Y-47046295D01*
X121883095Y-47046295D02*
X121930714Y-46951057D01*
X121930714Y-46951057D02*
X121978333Y-46903438D01*
X121978333Y-46903438D02*
X122073571Y-46855819D01*
X122073571Y-46855819D02*
X122311666Y-46855819D01*
X122311666Y-46855819D02*
X122454523Y-46903438D01*
X123406904Y-47855819D02*
X122835476Y-47855819D01*
X123121190Y-47855819D02*
X123121190Y-46855819D01*
X123121190Y-46855819D02*
X123025952Y-46998676D01*
X123025952Y-46998676D02*
X122930714Y-47093914D01*
X122930714Y-47093914D02*
X122835476Y-47141533D01*
D13*
X131625000Y-87805000D02*
X131625000Y-91742000D01*
X131625000Y-96109000D02*
X131625000Y-100045000D01*
X133275000Y-87805000D02*
X131625000Y-87805000D01*
X135774000Y-87805000D02*
X135015000Y-87805000D01*
X137895000Y-87805000D02*
X137515000Y-87805000D01*
X141666000Y-87805000D02*
X140345000Y-87805000D01*
X141666000Y-87805000D02*
X141666000Y-91742000D01*
X141666000Y-96109000D02*
X141666000Y-100045000D01*
X141666000Y-100045000D02*
X131625000Y-100045000D01*
D14*
X134895000Y-39725000D02*
X134895000Y-61225000D01*
X135895000Y-62225000D02*
X151895000Y-62225000D01*
X151895000Y-38725000D02*
X135895000Y-38725000D01*
X152895000Y-61225000D02*
X152895000Y-39725000D01*
X134895000Y-39725000D02*
G75*
G02*
X135895000Y-38725000I999999J1D01*
G01*
X135895000Y-62225000D02*
G75*
G02*
X134895000Y-61225000I-1J999999D01*
G01*
X151895000Y-38725000D02*
G75*
G02*
X152895000Y-39725000I0J-1000000D01*
G01*
X152895000Y-61225000D02*
G75*
G02*
X151895000Y-62225000I-1000000J0D01*
G01*
D15*
X153745000Y-40315000D02*
G75*
G02*
X153545000Y-40315000I-100000J0D01*
G01*
X153545000Y-40315000D02*
G75*
G02*
X153745000Y-40315000I100000J0D01*
G01*
D13*
X138585000Y-67225000D02*
X139275000Y-67225000D01*
X149205000Y-67225000D02*
X148515000Y-67225000D01*
X139275000Y-65505000D02*
X148515000Y-65505000D01*
X148515000Y-68945000D01*
X139275000Y-68945000D01*
X139275000Y-65505000D01*
X135825000Y-81955000D02*
X139865000Y-81955000D01*
X135825000Y-82676000D02*
X135825000Y-81955000D01*
X135825000Y-84795000D02*
X135825000Y-84074000D01*
X139865000Y-81955000D02*
X139865000Y-82676000D01*
X139865000Y-84074000D02*
X139865000Y-84795000D01*
X139865000Y-84795000D02*
X135825000Y-84795000D01*
X120725000Y-68105000D02*
X120725000Y-66725000D01*
X122105000Y-68105000D02*
X120725000Y-68105000D01*
X123375000Y-65345000D02*
X126025000Y-65345000D01*
X123375000Y-68105000D02*
X123375000Y-65345000D01*
X123375000Y-68105000D02*
X126025000Y-68105000D01*
X126025000Y-68105000D02*
X126025000Y-65345000D01*
X115660000Y-48290000D02*
X129630000Y-48290000D01*
X115660000Y-62260000D02*
X115660000Y-48290000D01*
X129630000Y-48290000D02*
X129630000Y-62260000D01*
X129630000Y-62260000D02*
X115660000Y-62260000D01*
%LPC*%
D16*
X156645000Y-43475000D03*
D17*
X139145000Y-86925000D03*
D18*
X136645000Y-86925000D03*
X134145000Y-86925000D03*
D19*
X141045000Y-93925000D03*
X132245000Y-93925000D03*
D20*
X151515000Y-40315000D03*
D21*
X151515000Y-42855000D03*
X151515000Y-45395000D03*
X151515000Y-47935000D03*
X151515000Y-50475000D03*
X151515000Y-53015000D03*
X151515000Y-55555000D03*
X151515000Y-58095000D03*
X151515000Y-60635000D03*
X148975000Y-60635000D03*
X146435000Y-60635000D03*
X143895000Y-60635000D03*
X141355000Y-60635000D03*
X138815000Y-60635000D03*
X136275000Y-60635000D03*
X136275000Y-58095000D03*
X136275000Y-55555000D03*
X136275000Y-53015000D03*
X136275000Y-50475000D03*
X136275000Y-47935000D03*
X136275000Y-45395000D03*
X136275000Y-42855000D03*
X136275000Y-40315000D03*
D22*
X137545000Y-67225000D03*
X150245000Y-67225000D03*
X139095000Y-83375000D03*
X136595000Y-83375000D03*
D16*
X116645000Y-43475000D03*
D23*
X121145000Y-106475000D03*
D24*
X122105000Y-66725000D03*
D25*
X124645000Y-66725000D03*
D23*
X152145000Y-106475000D03*
D26*
X122645000Y-55275000D03*
D27*
X125185000Y-50195000D03*
X118835000Y-52735000D03*
%LPD*%
M02*
