%TF.GenerationSoftware,KiCad,Pcbnew,10.0.2*%
%TF.CreationDate,2026-05-22T20:50:10-04:00*%
%TF.ProjectId,usbPaddleSingleKicad,75736250-6164-4646-9c65-53696e676c65,rev?*%
%TF.SameCoordinates,Original*%
%TF.FileFunction,Copper,L2,Bot*%
%TF.FilePolarity,Positive*%
%FSLAX46Y46*%
G04 Gerber Fmt 4.6, Leading zero omitted, Abs format (unit mm)*
G04 Created by KiCad (PCBNEW 10.0.2) date 2026-05-22 20:50:10*
%MOMM*%
%LPD*%
G01*
G04 APERTURE LIST*
G04 Aperture macros list*
%AMRoundRect*
0 Rectangle with rounded corners*
0 $1 Rounding radius*
0 $2 $3 $4 $5 $6 $7 $8 $9 X,Y pos of 4 corners*
0 Add a 4 corners polygon primitive as box body*
4,1,4,$2,$3,$4,$5,$6,$7,$8,$9,$2,$3,0*
0 Add four circle primitives for the rounded corners*
1,1,$1+$1,$2,$3*
1,1,$1+$1,$4,$5*
1,1,$1+$1,$6,$7*
1,1,$1+$1,$8,$9*
0 Add four rect primitives between the rounded corners*
20,1,$1+$1,$2,$3,$4,$5,0*
20,1,$1+$1,$4,$5,$6,$7,0*
20,1,$1+$1,$6,$7,$8,$9,0*
20,1,$1+$1,$8,$9,$2,$3,0*%
G04 Aperture macros list end*
%TA.AperFunction,ComponentPad*%
%ADD10R,1.800000X1.800000*%
%TD*%
%TA.AperFunction,ComponentPad*%
%ADD11C,1.800000*%
%TD*%
%TA.AperFunction,ComponentPad*%
%ADD12RoundRect,0.750000X-0.750000X1.250000X-0.750000X-1.250000X0.750000X-1.250000X0.750000X1.250000X0*%
%TD*%
%TA.AperFunction,ComponentPad*%
%ADD13R,1.508000X1.508000*%
%TD*%
%TA.AperFunction,ComponentPad*%
%ADD14C,1.508000*%
%TD*%
%TA.AperFunction,ComponentPad*%
%ADD15C,1.600000*%
%TD*%
%TA.AperFunction,ComponentPad*%
%ADD16R,1.700000X1.700000*%
%TD*%
%TA.AperFunction,ComponentPad*%
%ADD17C,1.700000*%
%TD*%
%TA.AperFunction,ComponentPad*%
%ADD18C,2.200000*%
%TD*%
%TA.AperFunction,ViaPad*%
%ADD19C,0.600000*%
%TD*%
%TA.AperFunction,Conductor*%
%ADD20C,0.400000*%
%TD*%
G04 APERTURE END LIST*
D10*
X139145000Y-86925000D03*
D11*
X136645000Y-86925000D03*
X134145000Y-86925000D03*
D12*
X141045000Y-93925000D03*
X132245000Y-93925000D03*
D13*
X151515000Y-40315000D03*
D14*
X151515000Y-42855000D03*
X151515000Y-45395000D03*
X151515000Y-47935000D03*
X151515000Y-50475000D03*
X151515000Y-53015000D03*
X151515000Y-55555000D03*
X151515000Y-58095000D03*
X151515000Y-60635000D03*
X148975000Y-60635000D03*
X146435000Y-60635000D03*
X143895000Y-60635000D03*
X141355000Y-60635000D03*
X138815000Y-60635000D03*
X136275000Y-60635000D03*
X136275000Y-58095000D03*
X136275000Y-55555000D03*
X136275000Y-53015000D03*
X136275000Y-50475000D03*
X136275000Y-47935000D03*
X136275000Y-45395000D03*
X136275000Y-42855000D03*
X136275000Y-40315000D03*
D15*
X137545000Y-67225000D03*
X150245000Y-67225000D03*
X139095000Y-83375000D03*
X136595000Y-83375000D03*
D16*
X122105000Y-66725000D03*
D17*
X124645000Y-66725000D03*
D18*
X125185000Y-50195000D03*
X118835000Y-52735000D03*
D19*
X139145000Y-44475000D03*
X127895000Y-52475000D03*
X138895000Y-41975000D03*
X125145000Y-60725000D03*
X138445000Y-90775000D03*
X141262960Y-86419970D03*
X140545000Y-85075000D03*
X127645000Y-50225000D03*
X141262960Y-88469396D03*
X128645000Y-66725000D03*
X133895000Y-41225000D03*
D20*
X116895000Y-51975000D02*
X123475000Y-45395000D01*
X123475000Y-45395000D02*
X136275000Y-45395000D01*
X133645000Y-48025000D02*
X133645000Y-63325000D01*
X133645000Y-63325000D02*
X137545000Y-67225000D01*
X116895000Y-69675000D02*
X116895000Y-51975000D01*
X136275000Y-45395000D02*
X133645000Y-48025000D01*
X134145000Y-86925000D02*
X116895000Y-69675000D01*
X150129000Y-67109000D02*
X150245000Y-67225000D01*
%TA.AperFunction,Conductor*%
G36*
X135691186Y-38995185D02*
G01*
X135736941Y-39047989D01*
X135746885Y-39117147D01*
X135717860Y-39180703D01*
X135680443Y-39209983D01*
X135652008Y-39224472D01*
X135617494Y-39242058D01*
X135457753Y-39358115D01*
X135318115Y-39497753D01*
X135202058Y-39657495D01*
X135112408Y-39833441D01*
X135051389Y-40021236D01*
X135020500Y-40216263D01*
X135020500Y-40413736D01*
X135051389Y-40608763D01*
X135112408Y-40796558D01*
X135112409Y-40796561D01*
X135202056Y-40972501D01*
X135202058Y-40972504D01*
X135318115Y-41132246D01*
X135457753Y-41271884D01*
X135617494Y-41387941D01*
X135617496Y-41387942D01*
X135617499Y-41387944D01*
X135787956Y-41474797D01*
X135838749Y-41522768D01*
X135855544Y-41590589D01*
X135833007Y-41656724D01*
X135787954Y-41695763D01*
X135617767Y-41782479D01*
X135617760Y-41782483D01*
X135582010Y-41808456D01*
X135582010Y-41808457D01*
X136145591Y-42372037D01*
X136082007Y-42389075D01*
X135967993Y-42454901D01*
X135874901Y-42547993D01*
X135809075Y-42662007D01*
X135792037Y-42725590D01*
X135228457Y-42162010D01*
X135228456Y-42162010D01*
X135202483Y-42197760D01*
X135202482Y-42197762D01*
X135112873Y-42373626D01*
X135051876Y-42561353D01*
X135021000Y-42756302D01*
X135021000Y-42953697D01*
X135051876Y-43148646D01*
X135112873Y-43336373D01*
X135202483Y-43512239D01*
X135228457Y-43547988D01*
X135228457Y-43547989D01*
X135792037Y-42984408D01*
X135809075Y-43047993D01*
X135874901Y-43162007D01*
X135967993Y-43255099D01*
X136082007Y-43320925D01*
X136145590Y-43337962D01*
X135582009Y-43901541D01*
X135582010Y-43901542D01*
X135617755Y-43927512D01*
X135617768Y-43927520D01*
X135787953Y-44014235D01*
X135838749Y-44062210D01*
X135855544Y-44130031D01*
X135833006Y-44196166D01*
X135787954Y-44235203D01*
X135626189Y-44317627D01*
X135617495Y-44322058D01*
X135457753Y-44438115D01*
X135318117Y-44577751D01*
X135270434Y-44643384D01*
X135215104Y-44686051D01*
X135170115Y-44694500D01*
X123406003Y-44694500D01*
X123297590Y-44716065D01*
X123297589Y-44716065D01*
X123270671Y-44721420D01*
X123143190Y-44774224D01*
X123028454Y-44850887D01*
X116350888Y-51528453D01*
X116350882Y-51528461D01*
X116277967Y-51637585D01*
X116277968Y-51637586D01*
X116274224Y-51643189D01*
X116274222Y-51643192D01*
X116221421Y-51770667D01*
X116221418Y-51770677D01*
X116194500Y-51906004D01*
X116194500Y-51906007D01*
X116194500Y-69606006D01*
X116194500Y-69743994D01*
X116194500Y-69743996D01*
X116194499Y-69743996D01*
X116221418Y-69879322D01*
X116221421Y-69879332D01*
X116274222Y-70006807D01*
X116350887Y-70121545D01*
X116350888Y-70121546D01*
X132740791Y-86511448D01*
X132774276Y-86572771D01*
X132775583Y-86618527D01*
X132744500Y-86814778D01*
X132744500Y-87035221D01*
X132778985Y-87252952D01*
X132847103Y-87462603D01*
X132847104Y-87462606D01*
X132947187Y-87659025D01*
X133076752Y-87837358D01*
X133076756Y-87837363D01*
X133232636Y-87993243D01*
X133232641Y-87993247D01*
X133388192Y-88106260D01*
X133410978Y-88122815D01*
X133527501Y-88182187D01*
X133607393Y-88222895D01*
X133607396Y-88222896D01*
X133668293Y-88242682D01*
X133817049Y-88291015D01*
X134034778Y-88325500D01*
X134034779Y-88325500D01*
X134255221Y-88325500D01*
X134255222Y-88325500D01*
X134472951Y-88291015D01*
X134682606Y-88222895D01*
X134879022Y-88122815D01*
X135057365Y-87993242D01*
X135213242Y-87837365D01*
X135294682Y-87725270D01*
X135350011Y-87682606D01*
X135419624Y-87676627D01*
X135481420Y-87709232D01*
X135495313Y-87725265D01*
X135576753Y-87837358D01*
X135576758Y-87837365D01*
X135732636Y-87993243D01*
X135732641Y-87993247D01*
X135888192Y-88106260D01*
X135910978Y-88122815D01*
X136027501Y-88182187D01*
X136107393Y-88222895D01*
X136107396Y-88222896D01*
X136168293Y-88242682D01*
X136317049Y-88291015D01*
X136534778Y-88325500D01*
X136534779Y-88325500D01*
X136755221Y-88325500D01*
X136755222Y-88325500D01*
X136972951Y-88291015D01*
X137182606Y-88222895D01*
X137379022Y-88122815D01*
X137557365Y-87993242D01*
X137578790Y-87971816D01*
X137640110Y-87938331D01*
X137709802Y-87943314D01*
X137765737Y-87985185D01*
X137782653Y-88016164D01*
X137801645Y-88067086D01*
X137801649Y-88067093D01*
X137887809Y-88182187D01*
X137887812Y-88182190D01*
X138002906Y-88268350D01*
X138002913Y-88268354D01*
X138137620Y-88318596D01*
X138137627Y-88318598D01*
X138197155Y-88324999D01*
X138197172Y-88325000D01*
X138895000Y-88325000D01*
X138895000Y-87358012D01*
X138952007Y-87390925D01*
X139079174Y-87425000D01*
X139210826Y-87425000D01*
X139337993Y-87390925D01*
X139395000Y-87358012D01*
X139395000Y-88325000D01*
X140092828Y-88325000D01*
X140092844Y-88324999D01*
X140152372Y-88318598D01*
X140152379Y-88318596D01*
X140287086Y-88268354D01*
X140287093Y-88268350D01*
X140402187Y-88182190D01*
X140402190Y-88182187D01*
X140488350Y-88067093D01*
X140488354Y-88067086D01*
X140538596Y-87932379D01*
X140538598Y-87932372D01*
X140544999Y-87872844D01*
X140545000Y-87872827D01*
X140545000Y-87175000D01*
X139578012Y-87175000D01*
X139610925Y-87117993D01*
X139645000Y-86990826D01*
X139645000Y-86859174D01*
X139610925Y-86732007D01*
X139578012Y-86675000D01*
X140545000Y-86675000D01*
X140545000Y-85977172D01*
X140544999Y-85977155D01*
X140538598Y-85917627D01*
X140538596Y-85917620D01*
X140488354Y-85782913D01*
X140488350Y-85782906D01*
X140402190Y-85667812D01*
X140402187Y-85667809D01*
X140287093Y-85581649D01*
X140287086Y-85581645D01*
X140152379Y-85531403D01*
X140152372Y-85531401D01*
X140092844Y-85525000D01*
X139395000Y-85525000D01*
X139395000Y-86491988D01*
X139337993Y-86459075D01*
X139210826Y-86425000D01*
X139079174Y-86425000D01*
X138952007Y-86459075D01*
X138895000Y-86491988D01*
X138895000Y-85525000D01*
X138197155Y-85525000D01*
X138137627Y-85531401D01*
X138137620Y-85531403D01*
X138002913Y-85581645D01*
X138002906Y-85581649D01*
X137887812Y-85667809D01*
X137887809Y-85667812D01*
X137801649Y-85782906D01*
X137801645Y-85782913D01*
X137782653Y-85833835D01*
X137740782Y-85889769D01*
X137675317Y-85914186D01*
X137607044Y-85899334D01*
X137578790Y-85878183D01*
X137557363Y-85856756D01*
X137557358Y-85856752D01*
X137379025Y-85727187D01*
X137379024Y-85727186D01*
X137379022Y-85727185D01*
X137316096Y-85695122D01*
X137182606Y-85627104D01*
X137182603Y-85627103D01*
X136972952Y-85558985D01*
X136864086Y-85541742D01*
X136755222Y-85524500D01*
X136534778Y-85524500D01*
X136462201Y-85535995D01*
X136317047Y-85558985D01*
X136107396Y-85627103D01*
X136107393Y-85627104D01*
X135910974Y-85727187D01*
X135732641Y-85856752D01*
X135732636Y-85856756D01*
X135576756Y-86012636D01*
X135576752Y-86012641D01*
X135495318Y-86124727D01*
X135439989Y-86167393D01*
X135370375Y-86173372D01*
X135308580Y-86140767D01*
X135294682Y-86124727D01*
X135213247Y-86012641D01*
X135213243Y-86012636D01*
X135057363Y-85856756D01*
X135057358Y-85856752D01*
X134879025Y-85727187D01*
X134879024Y-85727186D01*
X134879022Y-85727185D01*
X134816096Y-85695122D01*
X134682606Y-85627104D01*
X134682603Y-85627103D01*
X134472952Y-85558985D01*
X134364086Y-85541742D01*
X134255222Y-85524500D01*
X134034778Y-85524500D01*
X133949877Y-85537946D01*
X133838527Y-85555583D01*
X133769233Y-85546628D01*
X133731448Y-85520791D01*
X131483305Y-83272648D01*
X135294500Y-83272648D01*
X135294500Y-83477351D01*
X135326522Y-83679534D01*
X135389781Y-83874223D01*
X135432248Y-83957567D01*
X135482585Y-84056359D01*
X135482715Y-84056613D01*
X135603028Y-84222213D01*
X135747786Y-84366971D01*
X135868226Y-84454474D01*
X135913390Y-84487287D01*
X136029607Y-84546503D01*
X136095776Y-84580218D01*
X136095778Y-84580218D01*
X136095781Y-84580220D01*
X136200137Y-84614127D01*
X136290465Y-84643477D01*
X136391557Y-84659488D01*
X136492648Y-84675500D01*
X136492649Y-84675500D01*
X136697351Y-84675500D01*
X136697352Y-84675500D01*
X136899534Y-84643477D01*
X137094219Y-84580220D01*
X137276610Y-84487287D01*
X137369590Y-84419732D01*
X137442213Y-84366971D01*
X137442215Y-84366968D01*
X137442219Y-84366966D01*
X137586966Y-84222219D01*
X137586968Y-84222215D01*
X137586971Y-84222213D01*
X137707286Y-84056611D01*
X137707415Y-84056359D01*
X137734795Y-84002621D01*
X137782769Y-83951826D01*
X137850589Y-83935030D01*
X137916725Y-83957567D01*
X137955765Y-84002621D01*
X137983141Y-84056350D01*
X137983147Y-84056359D01*
X138015523Y-84100921D01*
X138015524Y-84100922D01*
X138695000Y-83421446D01*
X138695000Y-83427661D01*
X138722259Y-83529394D01*
X138774920Y-83620606D01*
X138849394Y-83695080D01*
X138940606Y-83747741D01*
X139042339Y-83775000D01*
X139048553Y-83775000D01*
X138369076Y-84454474D01*
X138413650Y-84486859D01*
X138595968Y-84579755D01*
X138790582Y-84642990D01*
X138992683Y-84675000D01*
X139197317Y-84675000D01*
X139399417Y-84642990D01*
X139594031Y-84579755D01*
X139776349Y-84486859D01*
X139820921Y-84454474D01*
X139141447Y-83775000D01*
X139147661Y-83775000D01*
X139249394Y-83747741D01*
X139340606Y-83695080D01*
X139415080Y-83620606D01*
X139467741Y-83529394D01*
X139495000Y-83427661D01*
X139495000Y-83421447D01*
X140174474Y-84100921D01*
X140206859Y-84056349D01*
X140299755Y-83874031D01*
X140362990Y-83679417D01*
X140395000Y-83477317D01*
X140395000Y-83272682D01*
X140362990Y-83070582D01*
X140299755Y-82875968D01*
X140206859Y-82693650D01*
X140174474Y-82649077D01*
X140174474Y-82649076D01*
X139495000Y-83328551D01*
X139495000Y-83322339D01*
X139467741Y-83220606D01*
X139415080Y-83129394D01*
X139340606Y-83054920D01*
X139249394Y-83002259D01*
X139147661Y-82975000D01*
X139141446Y-82975000D01*
X139820922Y-82295524D01*
X139820921Y-82295523D01*
X139776359Y-82263147D01*
X139776350Y-82263141D01*
X139594031Y-82170244D01*
X139399417Y-82107009D01*
X139197317Y-82075000D01*
X138992683Y-82075000D01*
X138790582Y-82107009D01*
X138595968Y-82170244D01*
X138413644Y-82263143D01*
X138369077Y-82295523D01*
X138369077Y-82295524D01*
X139048554Y-82975000D01*
X139042339Y-82975000D01*
X138940606Y-83002259D01*
X138849394Y-83054920D01*
X138774920Y-83129394D01*
X138722259Y-83220606D01*
X138695000Y-83322339D01*
X138695000Y-83328553D01*
X138015524Y-82649077D01*
X138015523Y-82649077D01*
X137983143Y-82693644D01*
X137955765Y-82747378D01*
X137907790Y-82798174D01*
X137839969Y-82814969D01*
X137773834Y-82792431D01*
X137734795Y-82747378D01*
X137707284Y-82693385D01*
X137586971Y-82527786D01*
X137442213Y-82383028D01*
X137276613Y-82262715D01*
X137276612Y-82262714D01*
X137276610Y-82262713D01*
X137219653Y-82233691D01*
X137094223Y-82169781D01*
X136899534Y-82106522D01*
X136724995Y-82078878D01*
X136697352Y-82074500D01*
X136492648Y-82074500D01*
X136468329Y-82078351D01*
X136290465Y-82106522D01*
X136095776Y-82169781D01*
X135913386Y-82262715D01*
X135747786Y-82383028D01*
X135603028Y-82527786D01*
X135482715Y-82693386D01*
X135389781Y-82875776D01*
X135326522Y-83070465D01*
X135294500Y-83272648D01*
X131483305Y-83272648D01*
X117631819Y-69421162D01*
X117598334Y-69359839D01*
X117595500Y-69333481D01*
X117595500Y-65827135D01*
X120754500Y-65827135D01*
X120754500Y-67622870D01*
X120754501Y-67622876D01*
X120760908Y-67682483D01*
X120811202Y-67817328D01*
X120811206Y-67817335D01*
X120897452Y-67932544D01*
X120897455Y-67932547D01*
X121012664Y-68018793D01*
X121012671Y-68018797D01*
X121147517Y-68069091D01*
X121147516Y-68069091D01*
X121154444Y-68069835D01*
X121207127Y-68075500D01*
X123002872Y-68075499D01*
X123062483Y-68069091D01*
X123197331Y-68018796D01*
X123312546Y-67932546D01*
X123398796Y-67817331D01*
X123449091Y-67682483D01*
X123455500Y-67622873D01*
X123455499Y-67598979D01*
X123458330Y-67585963D01*
X123468940Y-67566525D01*
X123475179Y-67545275D01*
X123491803Y-67524643D01*
X123491808Y-67524636D01*
X123491811Y-67524634D01*
X123491818Y-67524626D01*
X124162037Y-66854408D01*
X124179075Y-66917993D01*
X124244901Y-67032007D01*
X124337993Y-67125099D01*
X124452007Y-67190925D01*
X124515590Y-67207962D01*
X123883282Y-67840269D01*
X123883282Y-67840270D01*
X123937449Y-67879624D01*
X124126782Y-67976095D01*
X124328870Y-68041757D01*
X124538754Y-68075000D01*
X124751246Y-68075000D01*
X124961127Y-68041757D01*
X124961130Y-68041757D01*
X125163217Y-67976095D01*
X125352554Y-67879622D01*
X125406716Y-67840270D01*
X125406717Y-67840270D01*
X124774408Y-67207962D01*
X124837993Y-67190925D01*
X124952007Y-67125099D01*
X125045099Y-67032007D01*
X125110925Y-66917993D01*
X125127962Y-66854408D01*
X125760270Y-67486717D01*
X125760270Y-67486716D01*
X125799622Y-67432554D01*
X125896095Y-67243217D01*
X125961757Y-67041130D01*
X125961757Y-67041127D01*
X125995000Y-66831246D01*
X125995000Y-66618753D01*
X125961757Y-66408872D01*
X125961757Y-66408869D01*
X125896095Y-66206782D01*
X125799624Y-66017449D01*
X125760270Y-65963282D01*
X125760269Y-65963282D01*
X125127962Y-66595590D01*
X125110925Y-66532007D01*
X125045099Y-66417993D01*
X124952007Y-66324901D01*
X124837993Y-66259075D01*
X124774409Y-66242037D01*
X125406716Y-65609728D01*
X125352550Y-65570375D01*
X125163217Y-65473904D01*
X124961129Y-65408242D01*
X124751246Y-65375000D01*
X124538754Y-65375000D01*
X124328872Y-65408242D01*
X124328869Y-65408242D01*
X124126782Y-65473904D01*
X123937439Y-65570380D01*
X123883282Y-65609727D01*
X123883282Y-65609728D01*
X124515591Y-66242037D01*
X124452007Y-66259075D01*
X124337993Y-66324901D01*
X124244901Y-66417993D01*
X124179075Y-66532007D01*
X124162037Y-66595591D01*
X123491818Y-65925372D01*
X123458333Y-65864049D01*
X123458330Y-65864036D01*
X123455499Y-65851015D01*
X123455499Y-65827128D01*
X123449091Y-65767517D01*
X123420926Y-65692002D01*
X123398798Y-65632673D01*
X123398793Y-65632664D01*
X123312547Y-65517455D01*
X123312544Y-65517452D01*
X123197335Y-65431206D01*
X123197328Y-65431202D01*
X123062482Y-65380908D01*
X123062483Y-65380908D01*
X123002883Y-65374501D01*
X123002881Y-65374500D01*
X123002873Y-65374500D01*
X123002864Y-65374500D01*
X121207129Y-65374500D01*
X121207123Y-65374501D01*
X121147516Y-65380908D01*
X121012671Y-65431202D01*
X121012664Y-65431206D01*
X120897455Y-65517452D01*
X120897452Y-65517455D01*
X120811206Y-65632664D01*
X120811202Y-65632671D01*
X120760908Y-65767517D01*
X120754501Y-65827116D01*
X120754500Y-65827135D01*
X117595500Y-65827135D01*
X117595500Y-55127486D01*
X120394500Y-55127486D01*
X120394500Y-55422513D01*
X120424942Y-55653731D01*
X120433007Y-55714993D01*
X120509361Y-55999951D01*
X120509364Y-55999961D01*
X120622254Y-56272500D01*
X120622258Y-56272510D01*
X120769761Y-56527993D01*
X120949352Y-56762040D01*
X120949358Y-56762047D01*
X121157952Y-56970641D01*
X121157959Y-56970647D01*
X121392006Y-57150238D01*
X121647489Y-57297741D01*
X121647490Y-57297741D01*
X121647493Y-57297743D01*
X121920048Y-57410639D01*
X122205007Y-57486993D01*
X122497494Y-57525500D01*
X122497501Y-57525500D01*
X122792499Y-57525500D01*
X122792506Y-57525500D01*
X123084993Y-57486993D01*
X123369952Y-57410639D01*
X123642507Y-57297743D01*
X123897994Y-57150238D01*
X124132042Y-56970646D01*
X124340646Y-56762042D01*
X124520238Y-56527994D01*
X124667743Y-56272507D01*
X124780639Y-55999952D01*
X124856993Y-55714993D01*
X124895500Y-55422506D01*
X124895500Y-55127494D01*
X124856993Y-54835007D01*
X124780639Y-54550048D01*
X124667743Y-54277493D01*
X124663128Y-54269500D01*
X124520238Y-54022006D01*
X124340647Y-53787959D01*
X124340641Y-53787952D01*
X124132047Y-53579358D01*
X124132040Y-53579352D01*
X123897993Y-53399761D01*
X123642510Y-53252258D01*
X123642500Y-53252254D01*
X123369961Y-53139364D01*
X123369954Y-53139362D01*
X123369952Y-53139361D01*
X123084993Y-53063007D01*
X123036113Y-53056571D01*
X122792513Y-53024500D01*
X122792506Y-53024500D01*
X122497494Y-53024500D01*
X122497486Y-53024500D01*
X122219085Y-53061153D01*
X122205007Y-53063007D01*
X121920048Y-53139361D01*
X121920038Y-53139364D01*
X121647499Y-53252254D01*
X121647489Y-53252258D01*
X121392006Y-53399761D01*
X121157959Y-53579352D01*
X121157952Y-53579358D01*
X120949358Y-53787952D01*
X120949352Y-53787959D01*
X120769761Y-54022006D01*
X120622258Y-54277489D01*
X120622254Y-54277499D01*
X120509364Y-54550038D01*
X120509361Y-54550048D01*
X120433008Y-54835004D01*
X120433006Y-54835015D01*
X120394500Y-55127486D01*
X117595500Y-55127486D01*
X117595500Y-54056141D01*
X117615185Y-53989102D01*
X117667989Y-53943347D01*
X117737147Y-53933403D01*
X117792385Y-53955823D01*
X117930462Y-54056141D01*
X117996155Y-54103870D01*
X118134804Y-54174515D01*
X118220616Y-54218239D01*
X118220618Y-54218239D01*
X118220621Y-54218241D01*
X118460215Y-54296090D01*
X118709038Y-54335500D01*
X118709039Y-54335500D01*
X118960961Y-54335500D01*
X118960962Y-54335500D01*
X119209785Y-54296090D01*
X119449379Y-54218241D01*
X119673845Y-54103870D01*
X119877656Y-53955793D01*
X120055793Y-53777656D01*
X120203870Y-53573845D01*
X120318241Y-53349379D01*
X120396090Y-53109785D01*
X120435500Y-52860962D01*
X120435500Y-52609038D01*
X120396090Y-52360215D01*
X120318241Y-52120621D01*
X120318239Y-52120618D01*
X120318239Y-52120616D01*
X120276747Y-52039184D01*
X120203870Y-51896155D01*
X120112705Y-51770677D01*
X120055798Y-51692350D01*
X120055794Y-51692345D01*
X119877654Y-51514205D01*
X119877649Y-51514201D01*
X119673848Y-51366132D01*
X119673847Y-51366131D01*
X119673845Y-51366130D01*
X119603747Y-51330413D01*
X119449383Y-51251760D01*
X119209785Y-51173909D01*
X118998628Y-51140465D01*
X118935493Y-51110536D01*
X118898562Y-51051224D01*
X118899560Y-50981361D01*
X118930343Y-50930313D01*
X119791585Y-50069071D01*
X123585000Y-50069071D01*
X123585000Y-50320928D01*
X123624397Y-50569669D01*
X123702219Y-50809184D01*
X123816557Y-51033583D01*
X123890748Y-51135697D01*
X123890748Y-51135698D01*
X124507421Y-50519024D01*
X124520359Y-50550258D01*
X124602437Y-50673097D01*
X124706903Y-50777563D01*
X124829742Y-50859641D01*
X124860974Y-50872577D01*
X124244300Y-51489250D01*
X124346416Y-51563442D01*
X124570815Y-51677780D01*
X124810330Y-51755602D01*
X125059072Y-51795000D01*
X125310928Y-51795000D01*
X125559669Y-51755602D01*
X125799184Y-51677780D01*
X126023575Y-51563446D01*
X126023581Y-51563442D01*
X126125697Y-51489250D01*
X126125698Y-51489250D01*
X125509025Y-50872578D01*
X125540258Y-50859641D01*
X125663097Y-50777563D01*
X125767563Y-50673097D01*
X125849641Y-50550258D01*
X125862577Y-50519025D01*
X126479250Y-51135698D01*
X126479250Y-51135697D01*
X126553442Y-51033581D01*
X126553446Y-51033575D01*
X126667780Y-50809184D01*
X126745602Y-50569669D01*
X126785000Y-50320928D01*
X126785000Y-50069071D01*
X126745602Y-49820330D01*
X126667780Y-49580815D01*
X126553442Y-49356416D01*
X126479250Y-49254301D01*
X126479250Y-49254300D01*
X125862577Y-49870973D01*
X125849641Y-49839742D01*
X125767563Y-49716903D01*
X125663097Y-49612437D01*
X125540258Y-49530359D01*
X125509024Y-49517421D01*
X126125698Y-48900748D01*
X126023583Y-48826557D01*
X125799184Y-48712219D01*
X125559669Y-48634397D01*
X125310928Y-48595000D01*
X125059072Y-48595000D01*
X124810330Y-48634397D01*
X124570815Y-48712219D01*
X124346413Y-48826559D01*
X124244301Y-48900747D01*
X124244300Y-48900748D01*
X124860974Y-49517421D01*
X124829742Y-49530359D01*
X124706903Y-49612437D01*
X124602437Y-49716903D01*
X124520359Y-49839742D01*
X124507421Y-49870974D01*
X123890748Y-49254300D01*
X123890747Y-49254301D01*
X123816559Y-49356413D01*
X123702219Y-49580815D01*
X123624397Y-49820330D01*
X123585000Y-50069071D01*
X119791585Y-50069071D01*
X123728838Y-46131819D01*
X123790161Y-46098334D01*
X123816519Y-46095500D01*
X134284481Y-46095500D01*
X134351520Y-46115185D01*
X134397275Y-46167989D01*
X134407219Y-46237147D01*
X134378194Y-46300703D01*
X134372162Y-46307181D01*
X133100888Y-47578453D01*
X133100884Y-47578458D01*
X133067305Y-47628714D01*
X133058938Y-47641237D01*
X133041521Y-47667302D01*
X133024223Y-47693191D01*
X132971421Y-47820667D01*
X132971418Y-47820677D01*
X132944500Y-47956004D01*
X132944500Y-47956007D01*
X132944500Y-63256006D01*
X132944500Y-63393994D01*
X132944500Y-63393996D01*
X132944499Y-63393996D01*
X132971418Y-63529322D01*
X132971421Y-63529332D01*
X133024222Y-63656807D01*
X133100887Y-63771545D01*
X133100888Y-63771546D01*
X136228194Y-66898851D01*
X136261679Y-66960174D01*
X136262986Y-67005929D01*
X136244500Y-67122647D01*
X136244500Y-67327351D01*
X136276522Y-67529534D01*
X136339781Y-67724223D01*
X136432715Y-67906613D01*
X136553028Y-68072213D01*
X136697786Y-68216971D01*
X136852749Y-68329556D01*
X136863390Y-68337287D01*
X136979607Y-68396503D01*
X137045776Y-68430218D01*
X137045778Y-68430218D01*
X137045781Y-68430220D01*
X137150137Y-68464127D01*
X137240465Y-68493477D01*
X137341557Y-68509488D01*
X137442648Y-68525500D01*
X137442649Y-68525500D01*
X137647351Y-68525500D01*
X137647352Y-68525500D01*
X137849534Y-68493477D01*
X138044219Y-68430220D01*
X138226610Y-68337287D01*
X138319590Y-68269732D01*
X138392213Y-68216971D01*
X138392215Y-68216968D01*
X138392219Y-68216966D01*
X138536966Y-68072219D01*
X138536968Y-68072215D01*
X138536971Y-68072213D01*
X138589732Y-67999590D01*
X138657287Y-67906610D01*
X138750220Y-67724219D01*
X138813477Y-67529534D01*
X138845500Y-67327352D01*
X138845500Y-67122648D01*
X148944500Y-67122648D01*
X148944500Y-67327351D01*
X148976522Y-67529534D01*
X149039781Y-67724223D01*
X149132715Y-67906613D01*
X149253028Y-68072213D01*
X149397786Y-68216971D01*
X149552749Y-68329556D01*
X149563390Y-68337287D01*
X149679607Y-68396503D01*
X149745776Y-68430218D01*
X149745778Y-68430218D01*
X149745781Y-68430220D01*
X149850137Y-68464127D01*
X149940465Y-68493477D01*
X150041557Y-68509488D01*
X150142648Y-68525500D01*
X150142649Y-68525500D01*
X150347351Y-68525500D01*
X150347352Y-68525500D01*
X150549534Y-68493477D01*
X150744219Y-68430220D01*
X150926610Y-68337287D01*
X151019590Y-68269732D01*
X151092213Y-68216971D01*
X151092215Y-68216968D01*
X151092219Y-68216966D01*
X151236966Y-68072219D01*
X151236968Y-68072215D01*
X151236971Y-68072213D01*
X151289732Y-67999590D01*
X151357287Y-67906610D01*
X151450220Y-67724219D01*
X151513477Y-67529534D01*
X151545500Y-67327352D01*
X151545500Y-67122648D01*
X151513477Y-66920466D01*
X151512673Y-66917993D01*
X151450218Y-66725776D01*
X151395686Y-66618753D01*
X151357287Y-66543390D01*
X151349017Y-66532007D01*
X151236971Y-66377786D01*
X151092213Y-66233028D01*
X150926613Y-66112715D01*
X150926612Y-66112714D01*
X150926610Y-66112713D01*
X150869653Y-66083691D01*
X150744223Y-66019781D01*
X150549534Y-65956522D01*
X150374995Y-65928878D01*
X150347352Y-65924500D01*
X150142648Y-65924500D01*
X150118329Y-65928351D01*
X149940465Y-65956522D01*
X149745776Y-66019781D01*
X149563386Y-66112715D01*
X149397786Y-66233028D01*
X149253028Y-66377786D01*
X149132715Y-66543386D01*
X149039781Y-66725776D01*
X148976522Y-66920465D01*
X148944500Y-67122648D01*
X138845500Y-67122648D01*
X138813477Y-66920466D01*
X138812673Y-66917993D01*
X138750218Y-66725776D01*
X138695686Y-66618753D01*
X138657287Y-66543390D01*
X138649017Y-66532007D01*
X138536971Y-66377786D01*
X138392213Y-66233028D01*
X138226613Y-66112715D01*
X138226612Y-66112714D01*
X138226610Y-66112713D01*
X138169653Y-66083691D01*
X138044223Y-66019781D01*
X137849534Y-65956522D01*
X137674995Y-65928878D01*
X137647352Y-65924500D01*
X137442648Y-65924500D01*
X137325929Y-65942986D01*
X137256636Y-65934031D01*
X137218851Y-65908194D01*
X134381819Y-63071162D01*
X134348334Y-63009839D01*
X134345500Y-62983481D01*
X134345500Y-48366518D01*
X134365185Y-48299479D01*
X134381815Y-48278841D01*
X134808819Y-47851836D01*
X134870142Y-47818352D01*
X134939834Y-47823336D01*
X134995767Y-47865208D01*
X135020184Y-47930672D01*
X135020500Y-47939518D01*
X135020500Y-48033736D01*
X135051389Y-48228763D01*
X135096149Y-48366518D01*
X135112409Y-48416561D01*
X135202056Y-48592501D01*
X135202058Y-48592504D01*
X135318115Y-48752246D01*
X135457753Y-48891884D01*
X135607234Y-49000486D01*
X135617499Y-49007944D01*
X135787404Y-49094516D01*
X135838199Y-49142490D01*
X135854994Y-49210311D01*
X135832456Y-49276446D01*
X135787404Y-49315483D01*
X135630321Y-49395522D01*
X135617495Y-49402058D01*
X135457753Y-49518115D01*
X135318115Y-49657753D01*
X135202058Y-49817495D01*
X135112408Y-49993441D01*
X135051389Y-50181236D01*
X135020500Y-50376263D01*
X135020500Y-50573736D01*
X135051389Y-50768763D01*
X135099288Y-50916178D01*
X135112409Y-50956561D01*
X135202056Y-51132501D01*
X135202058Y-51132504D01*
X135318115Y-51292246D01*
X135457753Y-51431884D01*
X135590672Y-51528453D01*
X135617499Y-51547944D01*
X135787404Y-51634516D01*
X135838199Y-51682490D01*
X135854994Y-51750311D01*
X135832456Y-51816446D01*
X135787404Y-51855483D01*
X135630321Y-51935522D01*
X135617495Y-51942058D01*
X135457753Y-52058115D01*
X135318115Y-52197753D01*
X135202058Y-52357495D01*
X135112408Y-52533441D01*
X135051389Y-52721236D01*
X135020500Y-52916263D01*
X135020500Y-53113736D01*
X135051389Y-53308763D01*
X135080957Y-53399762D01*
X135112409Y-53496561D01*
X135154594Y-53579352D01*
X135202058Y-53672504D01*
X135318115Y-53832246D01*
X135457753Y-53971884D01*
X135607234Y-54080486D01*
X135617499Y-54087944D01*
X135787404Y-54174516D01*
X135838199Y-54222490D01*
X135854994Y-54290311D01*
X135832456Y-54356446D01*
X135787404Y-54395483D01*
X135630321Y-54475522D01*
X135617495Y-54482058D01*
X135457753Y-54598115D01*
X135318115Y-54737753D01*
X135202058Y-54897495D01*
X135112408Y-55073441D01*
X135051389Y-55261236D01*
X135020500Y-55456263D01*
X135020500Y-55653736D01*
X135051389Y-55848763D01*
X135100514Y-55999951D01*
X135112409Y-56036561D01*
X135202056Y-56212501D01*
X135202058Y-56212504D01*
X135318115Y-56372246D01*
X135457753Y-56511884D01*
X135607234Y-56620486D01*
X135617499Y-56627944D01*
X135787404Y-56714516D01*
X135838199Y-56762490D01*
X135854994Y-56830311D01*
X135832456Y-56896446D01*
X135787404Y-56935483D01*
X135718396Y-56970646D01*
X135617495Y-57022058D01*
X135457753Y-57138115D01*
X135318115Y-57277753D01*
X135202058Y-57437495D01*
X135112408Y-57613441D01*
X135051389Y-57801236D01*
X135020500Y-57996263D01*
X135020500Y-58193736D01*
X135051389Y-58388763D01*
X135112408Y-58576558D01*
X135112409Y-58576561D01*
X135202056Y-58752501D01*
X135202058Y-58752504D01*
X135318115Y-58912246D01*
X135457753Y-59051884D01*
X135607234Y-59160486D01*
X135617499Y-59167944D01*
X135787404Y-59254516D01*
X135838199Y-59302490D01*
X135854994Y-59370311D01*
X135832456Y-59436446D01*
X135787404Y-59475483D01*
X135630321Y-59555522D01*
X135617495Y-59562058D01*
X135457753Y-59678115D01*
X135318115Y-59817753D01*
X135202058Y-59977495D01*
X135112408Y-60153441D01*
X135051389Y-60341236D01*
X135020500Y-60536263D01*
X135020500Y-60733736D01*
X135051389Y-60928763D01*
X135092408Y-61055005D01*
X135112409Y-61116561D01*
X135202056Y-61292501D01*
X135202058Y-61292504D01*
X135318115Y-61452246D01*
X135457753Y-61591884D01*
X135607234Y-61700486D01*
X135617499Y-61707944D01*
X135793439Y-61797591D01*
X135918637Y-61838270D01*
X135981236Y-61858610D01*
X136176264Y-61889500D01*
X136176269Y-61889500D01*
X136373736Y-61889500D01*
X136568763Y-61858610D01*
X136756561Y-61797591D01*
X136932501Y-61707944D01*
X137022192Y-61642779D01*
X137092246Y-61591884D01*
X137092248Y-61591881D01*
X137092252Y-61591879D01*
X137231879Y-61452252D01*
X137231881Y-61452248D01*
X137231884Y-61452246D01*
X137347941Y-61292505D01*
X137347942Y-61292504D01*
X137347944Y-61292501D01*
X137434517Y-61122593D01*
X137482490Y-61071800D01*
X137550311Y-61055005D01*
X137616446Y-61077542D01*
X137655482Y-61122593D01*
X137738804Y-61286119D01*
X137742058Y-61292505D01*
X137858115Y-61452246D01*
X137997753Y-61591884D01*
X138147234Y-61700486D01*
X138157499Y-61707944D01*
X138333439Y-61797591D01*
X138458637Y-61838270D01*
X138521236Y-61858610D01*
X138716264Y-61889500D01*
X138716269Y-61889500D01*
X138913736Y-61889500D01*
X139108763Y-61858610D01*
X139296561Y-61797591D01*
X139472501Y-61707944D01*
X139562192Y-61642779D01*
X139632246Y-61591884D01*
X139632248Y-61591881D01*
X139632252Y-61591879D01*
X139771879Y-61452252D01*
X139771881Y-61452248D01*
X139771884Y-61452246D01*
X139887941Y-61292505D01*
X139887942Y-61292504D01*
X139887944Y-61292501D01*
X139974517Y-61122593D01*
X140022490Y-61071800D01*
X140090311Y-61055005D01*
X140156446Y-61077542D01*
X140195482Y-61122593D01*
X140278804Y-61286119D01*
X140282058Y-61292505D01*
X140398115Y-61452246D01*
X140537753Y-61591884D01*
X140687234Y-61700486D01*
X140697499Y-61707944D01*
X140873439Y-61797591D01*
X140998637Y-61838270D01*
X141061236Y-61858610D01*
X141256264Y-61889500D01*
X141256269Y-61889500D01*
X141453736Y-61889500D01*
X141648763Y-61858610D01*
X141836561Y-61797591D01*
X142012501Y-61707944D01*
X142102192Y-61642779D01*
X142172246Y-61591884D01*
X142172248Y-61591881D01*
X142172252Y-61591879D01*
X142311879Y-61452252D01*
X142311881Y-61452248D01*
X142311884Y-61452246D01*
X142427941Y-61292505D01*
X142427942Y-61292504D01*
X142427944Y-61292501D01*
X142514517Y-61122593D01*
X142562490Y-61071800D01*
X142630311Y-61055005D01*
X142696446Y-61077542D01*
X142735482Y-61122593D01*
X142818804Y-61286119D01*
X142822058Y-61292505D01*
X142938115Y-61452246D01*
X143077753Y-61591884D01*
X143227234Y-61700486D01*
X143237499Y-61707944D01*
X143413439Y-61797591D01*
X143538637Y-61838270D01*
X143601236Y-61858610D01*
X143796264Y-61889500D01*
X143796269Y-61889500D01*
X143993736Y-61889500D01*
X144188763Y-61858610D01*
X144376561Y-61797591D01*
X144552501Y-61707944D01*
X144642192Y-61642779D01*
X144712246Y-61591884D01*
X144712248Y-61591881D01*
X144712252Y-61591879D01*
X144851879Y-61452252D01*
X144851881Y-61452248D01*
X144851884Y-61452246D01*
X144967941Y-61292505D01*
X144967942Y-61292504D01*
X144967944Y-61292501D01*
X145054517Y-61122593D01*
X145102490Y-61071800D01*
X145170311Y-61055005D01*
X145236446Y-61077542D01*
X145275482Y-61122593D01*
X145358804Y-61286119D01*
X145362058Y-61292505D01*
X145478115Y-61452246D01*
X145617753Y-61591884D01*
X145767234Y-61700486D01*
X145777499Y-61707944D01*
X145953439Y-61797591D01*
X146078637Y-61838270D01*
X146141236Y-61858610D01*
X146336264Y-61889500D01*
X146336269Y-61889500D01*
X146533736Y-61889500D01*
X146728763Y-61858610D01*
X146916561Y-61797591D01*
X147092501Y-61707944D01*
X147182192Y-61642779D01*
X147252246Y-61591884D01*
X147252248Y-61591881D01*
X147252252Y-61591879D01*
X147391879Y-61452252D01*
X147391881Y-61452248D01*
X147391884Y-61452246D01*
X147507941Y-61292505D01*
X147507942Y-61292504D01*
X147507944Y-61292501D01*
X147594517Y-61122593D01*
X147642490Y-61071800D01*
X147710311Y-61055005D01*
X147776446Y-61077542D01*
X147815482Y-61122593D01*
X147898804Y-61286119D01*
X147902058Y-61292505D01*
X148018115Y-61452246D01*
X148157753Y-61591884D01*
X148307234Y-61700486D01*
X148317499Y-61707944D01*
X148493439Y-61797591D01*
X148618637Y-61838270D01*
X148681236Y-61858610D01*
X148876264Y-61889500D01*
X148876269Y-61889500D01*
X149073736Y-61889500D01*
X149268763Y-61858610D01*
X149456561Y-61797591D01*
X149632501Y-61707944D01*
X149722192Y-61642779D01*
X149792246Y-61591884D01*
X149792248Y-61591881D01*
X149792252Y-61591879D01*
X149931879Y-61452252D01*
X149931881Y-61452248D01*
X149931884Y-61452246D01*
X150047941Y-61292505D01*
X150047942Y-61292504D01*
X150047944Y-61292501D01*
X150134517Y-61122593D01*
X150182490Y-61071800D01*
X150250311Y-61055005D01*
X150316446Y-61077542D01*
X150355482Y-61122593D01*
X150438804Y-61286119D01*
X150442058Y-61292505D01*
X150558115Y-61452246D01*
X150697753Y-61591884D01*
X150847234Y-61700486D01*
X150857499Y-61707944D01*
X151033439Y-61797591D01*
X151158637Y-61838270D01*
X151221236Y-61858610D01*
X151416264Y-61889500D01*
X151416269Y-61889500D01*
X151613736Y-61889500D01*
X151808763Y-61858610D01*
X151996561Y-61797591D01*
X152172501Y-61707944D01*
X152262192Y-61642779D01*
X152332246Y-61591884D01*
X152332248Y-61591881D01*
X152332252Y-61591879D01*
X152471879Y-61452252D01*
X152471881Y-61452248D01*
X152471884Y-61452246D01*
X152522779Y-61382192D01*
X152587944Y-61292501D01*
X152677591Y-61116561D01*
X152738610Y-60928763D01*
X152769500Y-60733736D01*
X152769500Y-60536263D01*
X152738610Y-60341236D01*
X152690268Y-60192456D01*
X152677591Y-60153439D01*
X152587944Y-59977499D01*
X152580486Y-59967234D01*
X152471884Y-59817753D01*
X152332246Y-59678115D01*
X152172505Y-59562058D01*
X152166119Y-59558804D01*
X152002593Y-59475482D01*
X151951800Y-59427510D01*
X151935005Y-59359689D01*
X151957542Y-59293554D01*
X152002593Y-59254517D01*
X152172501Y-59167944D01*
X152192912Y-59153114D01*
X152332246Y-59051884D01*
X152332248Y-59051881D01*
X152332252Y-59051879D01*
X152471879Y-58912252D01*
X152471881Y-58912248D01*
X152471884Y-58912246D01*
X152522779Y-58842192D01*
X152587944Y-58752501D01*
X152677591Y-58576561D01*
X152738610Y-58388763D01*
X152769500Y-58193736D01*
X152769500Y-57996263D01*
X152738610Y-57801236D01*
X152718270Y-57738637D01*
X152677591Y-57613439D01*
X152587944Y-57437499D01*
X152568429Y-57410639D01*
X152471884Y-57277753D01*
X152332246Y-57138115D01*
X152172505Y-57022058D01*
X152166119Y-57018804D01*
X152002593Y-56935482D01*
X151951800Y-56887510D01*
X151935005Y-56819689D01*
X151957542Y-56753554D01*
X152002593Y-56714517D01*
X152172501Y-56627944D01*
X152192912Y-56613114D01*
X152332246Y-56511884D01*
X152332248Y-56511881D01*
X152332252Y-56511879D01*
X152471879Y-56372252D01*
X152471881Y-56372248D01*
X152471884Y-56372246D01*
X152544347Y-56272507D01*
X152587944Y-56212501D01*
X152677591Y-56036561D01*
X152738610Y-55848763D01*
X152759797Y-55714995D01*
X152769500Y-55653736D01*
X152769500Y-55456263D01*
X152738610Y-55261236D01*
X152695154Y-55127494D01*
X152677591Y-55073439D01*
X152587944Y-54897499D01*
X152580486Y-54887234D01*
X152471884Y-54737753D01*
X152332246Y-54598115D01*
X152172505Y-54482058D01*
X152166119Y-54478804D01*
X152002593Y-54395482D01*
X151951800Y-54347510D01*
X151935005Y-54279689D01*
X151957542Y-54213554D01*
X152002593Y-54174517D01*
X152172501Y-54087944D01*
X152192912Y-54073114D01*
X152332246Y-53971884D01*
X152332248Y-53971881D01*
X152332252Y-53971879D01*
X152471879Y-53832252D01*
X152471881Y-53832248D01*
X152471884Y-53832246D01*
X152530253Y-53751907D01*
X152587944Y-53672501D01*
X152677591Y-53496561D01*
X152738610Y-53308763D01*
X152747560Y-53252254D01*
X152769500Y-53113736D01*
X152769500Y-52916263D01*
X152738610Y-52721236D01*
X152702154Y-52609038D01*
X152677591Y-52533439D01*
X152587944Y-52357499D01*
X152580486Y-52347234D01*
X152471884Y-52197753D01*
X152332246Y-52058115D01*
X152172505Y-51942058D01*
X152166119Y-51938804D01*
X152002593Y-51855482D01*
X151951800Y-51807510D01*
X151935005Y-51739689D01*
X151957542Y-51673554D01*
X152002593Y-51634517D01*
X152172501Y-51547944D01*
X152199328Y-51528453D01*
X152332246Y-51431884D01*
X152332248Y-51431881D01*
X152332252Y-51431879D01*
X152471879Y-51292252D01*
X152471881Y-51292248D01*
X152471884Y-51292246D01*
X152522779Y-51222192D01*
X152587944Y-51132501D01*
X152677591Y-50956561D01*
X152738610Y-50768763D01*
X152753762Y-50673097D01*
X152769500Y-50573736D01*
X152769500Y-50376263D01*
X152738610Y-50181236D01*
X152702165Y-50069071D01*
X152677591Y-49993439D01*
X152587944Y-49817499D01*
X152580486Y-49807234D01*
X152471884Y-49657753D01*
X152332246Y-49518115D01*
X152172505Y-49402058D01*
X152166119Y-49398804D01*
X152002593Y-49315482D01*
X151951800Y-49267510D01*
X151935005Y-49199689D01*
X151957542Y-49133554D01*
X152002593Y-49094517D01*
X152172501Y-49007944D01*
X152192912Y-48993114D01*
X152332246Y-48891884D01*
X152332248Y-48891881D01*
X152332252Y-48891879D01*
X152471879Y-48752252D01*
X152471881Y-48752248D01*
X152471884Y-48752246D01*
X152586128Y-48595000D01*
X152587944Y-48592501D01*
X152677591Y-48416561D01*
X152738610Y-48228763D01*
X152769500Y-48033736D01*
X152769500Y-47836263D01*
X152738610Y-47641236D01*
X152718210Y-47578453D01*
X152677591Y-47453439D01*
X152587944Y-47277499D01*
X152580486Y-47267234D01*
X152471884Y-47117753D01*
X152332246Y-46978115D01*
X152172505Y-46862058D01*
X152166119Y-46858804D01*
X152002593Y-46775482D01*
X151951800Y-46727510D01*
X151935005Y-46659689D01*
X151957542Y-46593554D01*
X152002593Y-46554517D01*
X152172501Y-46467944D01*
X152192912Y-46453114D01*
X152332246Y-46351884D01*
X152332248Y-46351881D01*
X152332252Y-46351879D01*
X152471879Y-46212252D01*
X152471881Y-46212248D01*
X152471884Y-46212246D01*
X152522779Y-46142192D01*
X152587944Y-46052501D01*
X152677591Y-45876561D01*
X152738610Y-45688763D01*
X152769500Y-45493736D01*
X152769500Y-45296263D01*
X152738610Y-45101236D01*
X152699959Y-44982281D01*
X152677591Y-44913439D01*
X152587944Y-44737499D01*
X152572372Y-44716066D01*
X152471884Y-44577753D01*
X152332246Y-44438115D01*
X152172505Y-44322058D01*
X152166119Y-44318804D01*
X152002593Y-44235482D01*
X151951800Y-44187510D01*
X151935005Y-44119689D01*
X151957542Y-44053554D01*
X152002593Y-44014517D01*
X152172501Y-43927944D01*
X152257601Y-43866116D01*
X152332246Y-43811884D01*
X152332248Y-43811881D01*
X152332252Y-43811879D01*
X152471879Y-43672252D01*
X152471881Y-43672248D01*
X152471884Y-43672246D01*
X152542899Y-43574500D01*
X152587944Y-43512501D01*
X152673866Y-43343872D01*
X154644500Y-43343872D01*
X154644500Y-43606127D01*
X154667631Y-43781814D01*
X154678730Y-43866116D01*
X154746602Y-44119418D01*
X154746605Y-44119428D01*
X154846953Y-44361690D01*
X154846958Y-44361700D01*
X154978075Y-44588803D01*
X155137718Y-44796851D01*
X155137726Y-44796860D01*
X155323140Y-44982274D01*
X155323148Y-44982281D01*
X155531196Y-45141924D01*
X155758299Y-45273041D01*
X155758309Y-45273046D01*
X156000571Y-45373394D01*
X156000581Y-45373398D01*
X156253884Y-45441270D01*
X156513880Y-45475500D01*
X156513887Y-45475500D01*
X156776113Y-45475500D01*
X156776120Y-45475500D01*
X157036116Y-45441270D01*
X157289419Y-45373398D01*
X157531697Y-45273043D01*
X157758803Y-45141924D01*
X157966851Y-44982282D01*
X157966855Y-44982277D01*
X157966860Y-44982274D01*
X158152274Y-44796860D01*
X158152277Y-44796855D01*
X158152282Y-44796851D01*
X158311924Y-44588803D01*
X158443043Y-44361697D01*
X158543398Y-44119419D01*
X158611270Y-43866116D01*
X158645500Y-43606120D01*
X158645500Y-43343880D01*
X158611270Y-43083884D01*
X158543398Y-42830581D01*
X158512617Y-42756269D01*
X158443046Y-42588309D01*
X158443041Y-42588299D01*
X158311924Y-42361196D01*
X158159081Y-42162010D01*
X158152282Y-42153149D01*
X158152281Y-42153148D01*
X158152274Y-42153140D01*
X157966860Y-41967726D01*
X157966851Y-41967718D01*
X157758803Y-41808075D01*
X157531700Y-41676958D01*
X157531690Y-41676953D01*
X157289428Y-41576605D01*
X157289421Y-41576603D01*
X157289419Y-41576602D01*
X157036116Y-41508730D01*
X156978339Y-41501123D01*
X156776127Y-41474500D01*
X156776120Y-41474500D01*
X156513880Y-41474500D01*
X156513872Y-41474500D01*
X156282772Y-41504926D01*
X156253884Y-41508730D01*
X156142370Y-41538610D01*
X156000581Y-41576602D01*
X156000571Y-41576605D01*
X155758309Y-41676953D01*
X155758299Y-41676958D01*
X155531196Y-41808075D01*
X155323148Y-41967718D01*
X155137718Y-42153148D01*
X154978075Y-42361196D01*
X154846958Y-42588299D01*
X154846953Y-42588309D01*
X154746605Y-42830571D01*
X154746602Y-42830581D01*
X154678730Y-43083885D01*
X154644500Y-43343872D01*
X152673866Y-43343872D01*
X152677591Y-43336561D01*
X152738610Y-43148763D01*
X152748886Y-43083884D01*
X152769500Y-42953736D01*
X152769500Y-42756263D01*
X152738610Y-42561236D01*
X152682671Y-42389075D01*
X152677591Y-42373439D01*
X152587944Y-42197499D01*
X152555722Y-42153149D01*
X152471884Y-42037753D01*
X152332252Y-41898121D01*
X152332249Y-41898119D01*
X152188687Y-41793816D01*
X152146023Y-41738488D01*
X152140044Y-41668875D01*
X152172649Y-41607079D01*
X152233488Y-41572722D01*
X152261573Y-41569499D01*
X152316872Y-41569499D01*
X152376483Y-41563091D01*
X152511331Y-41512796D01*
X152626546Y-41426546D01*
X152712796Y-41311331D01*
X152763091Y-41176483D01*
X152769500Y-41116873D01*
X152769499Y-39513128D01*
X152763091Y-39453517D01*
X152727508Y-39358115D01*
X152712797Y-39318671D01*
X152712793Y-39318664D01*
X152626548Y-39203456D01*
X152626546Y-39203455D01*
X152626546Y-39203454D01*
X152620282Y-39198765D01*
X152578413Y-39142833D01*
X152573429Y-39073141D01*
X152606914Y-39011818D01*
X152668237Y-38978334D01*
X152694595Y-38975500D01*
X156386324Y-38975500D01*
X156453363Y-38995185D01*
X156474005Y-39011819D01*
X161608181Y-44145995D01*
X161641666Y-44207318D01*
X161644500Y-44233676D01*
X161644500Y-76216324D01*
X161624815Y-76283363D01*
X161608181Y-76304005D01*
X160244502Y-77667683D01*
X160244500Y-77667686D01*
X160178608Y-77781812D01*
X160144500Y-77909108D01*
X160144500Y-88216324D01*
X160124815Y-88283363D01*
X160108181Y-88304005D01*
X156744502Y-91667683D01*
X156744500Y-91667686D01*
X156678608Y-91781812D01*
X156644500Y-91909108D01*
X156644500Y-106716324D01*
X156624815Y-106783363D01*
X156608181Y-106804005D01*
X152974005Y-110438181D01*
X152912682Y-110471666D01*
X152886324Y-110474500D01*
X120403675Y-110474500D01*
X120336636Y-110454815D01*
X120315994Y-110438181D01*
X116681819Y-106804005D01*
X116648334Y-106742682D01*
X116645500Y-106716324D01*
X116645500Y-106343872D01*
X119144500Y-106343872D01*
X119144500Y-106606127D01*
X119159009Y-106716324D01*
X119178730Y-106866116D01*
X119190250Y-106909108D01*
X119246602Y-107119418D01*
X119246605Y-107119428D01*
X119346953Y-107361690D01*
X119346958Y-107361700D01*
X119478075Y-107588803D01*
X119637718Y-107796851D01*
X119637726Y-107796860D01*
X119823140Y-107982274D01*
X119823148Y-107982281D01*
X120031196Y-108141924D01*
X120258299Y-108273041D01*
X120258309Y-108273046D01*
X120500571Y-108373394D01*
X120500581Y-108373398D01*
X120753884Y-108441270D01*
X121013880Y-108475500D01*
X121013887Y-108475500D01*
X121276113Y-108475500D01*
X121276120Y-108475500D01*
X121536116Y-108441270D01*
X121789419Y-108373398D01*
X122031697Y-108273043D01*
X122258803Y-108141924D01*
X122466851Y-107982282D01*
X122466855Y-107982277D01*
X122466860Y-107982274D01*
X122652274Y-107796860D01*
X122652277Y-107796855D01*
X122652282Y-107796851D01*
X122811924Y-107588803D01*
X122943043Y-107361697D01*
X123043398Y-107119419D01*
X123111270Y-106866116D01*
X123145500Y-106606120D01*
X123145500Y-106343880D01*
X123145499Y-106343872D01*
X150144500Y-106343872D01*
X150144500Y-106606127D01*
X150159009Y-106716324D01*
X150178730Y-106866116D01*
X150190250Y-106909108D01*
X150246602Y-107119418D01*
X150246605Y-107119428D01*
X150346953Y-107361690D01*
X150346958Y-107361700D01*
X150478075Y-107588803D01*
X150637718Y-107796851D01*
X150637726Y-107796860D01*
X150823140Y-107982274D01*
X150823148Y-107982281D01*
X151031196Y-108141924D01*
X151258299Y-108273041D01*
X151258309Y-108273046D01*
X151500571Y-108373394D01*
X151500581Y-108373398D01*
X151753884Y-108441270D01*
X152013880Y-108475500D01*
X152013887Y-108475500D01*
X152276113Y-108475500D01*
X152276120Y-108475500D01*
X152536116Y-108441270D01*
X152789419Y-108373398D01*
X153031697Y-108273043D01*
X153258803Y-108141924D01*
X153466851Y-107982282D01*
X153466855Y-107982277D01*
X153466860Y-107982274D01*
X153652274Y-107796860D01*
X153652277Y-107796855D01*
X153652282Y-107796851D01*
X153811924Y-107588803D01*
X153943043Y-107361697D01*
X154043398Y-107119419D01*
X154111270Y-106866116D01*
X154145500Y-106606120D01*
X154145500Y-106343880D01*
X154111270Y-106083884D01*
X154043398Y-105830581D01*
X154043394Y-105830571D01*
X153943046Y-105588309D01*
X153943041Y-105588299D01*
X153811924Y-105361196D01*
X153652281Y-105153148D01*
X153652274Y-105153140D01*
X153466860Y-104967726D01*
X153466851Y-104967718D01*
X153258803Y-104808075D01*
X153031700Y-104676958D01*
X153031690Y-104676953D01*
X152789428Y-104576605D01*
X152789421Y-104576603D01*
X152789419Y-104576602D01*
X152536116Y-104508730D01*
X152478339Y-104501123D01*
X152276127Y-104474500D01*
X152276120Y-104474500D01*
X152013880Y-104474500D01*
X152013872Y-104474500D01*
X151782772Y-104504926D01*
X151753884Y-104508730D01*
X151500581Y-104576602D01*
X151500571Y-104576605D01*
X151258309Y-104676953D01*
X151258299Y-104676958D01*
X151031196Y-104808075D01*
X150823148Y-104967718D01*
X150637718Y-105153148D01*
X150478075Y-105361196D01*
X150346958Y-105588299D01*
X150346953Y-105588309D01*
X150246605Y-105830571D01*
X150246602Y-105830581D01*
X150178730Y-106083885D01*
X150144500Y-106343872D01*
X123145499Y-106343872D01*
X123111270Y-106083884D01*
X123043398Y-105830581D01*
X123043394Y-105830571D01*
X122943046Y-105588309D01*
X122943041Y-105588299D01*
X122811924Y-105361196D01*
X122652281Y-105153148D01*
X122652274Y-105153140D01*
X122466860Y-104967726D01*
X122466851Y-104967718D01*
X122258803Y-104808075D01*
X122031700Y-104676958D01*
X122031690Y-104676953D01*
X121789428Y-104576605D01*
X121789421Y-104576603D01*
X121789419Y-104576602D01*
X121536116Y-104508730D01*
X121478339Y-104501123D01*
X121276127Y-104474500D01*
X121276120Y-104474500D01*
X121013880Y-104474500D01*
X121013872Y-104474500D01*
X120782772Y-104504926D01*
X120753884Y-104508730D01*
X120500581Y-104576602D01*
X120500571Y-104576605D01*
X120258309Y-104676953D01*
X120258299Y-104676958D01*
X120031196Y-104808075D01*
X119823148Y-104967718D01*
X119637718Y-105153148D01*
X119478075Y-105361196D01*
X119346958Y-105588299D01*
X119346953Y-105588309D01*
X119246605Y-105830571D01*
X119246602Y-105830581D01*
X119178730Y-106083885D01*
X119144500Y-106343872D01*
X116645500Y-106343872D01*
X116645500Y-92610777D01*
X130244500Y-92610777D01*
X130244500Y-95239208D01*
X130244501Y-95239223D01*
X130254904Y-95371413D01*
X130254905Y-95371420D01*
X130309902Y-95589678D01*
X130309903Y-95589681D01*
X130402991Y-95794622D01*
X130402997Y-95794632D01*
X130531174Y-95979645D01*
X130531178Y-95979650D01*
X130531181Y-95979654D01*
X130690346Y-96138819D01*
X130690350Y-96138822D01*
X130690354Y-96138825D01*
X130829603Y-96235297D01*
X130875374Y-96267007D01*
X131080317Y-96360096D01*
X131080321Y-96360097D01*
X131298579Y-96415094D01*
X131298581Y-96415094D01*
X131298588Y-96415096D01*
X131430783Y-96425500D01*
X133059216Y-96425499D01*
X133191412Y-96415096D01*
X133409683Y-96360096D01*
X133614626Y-96267007D01*
X133799654Y-96138819D01*
X133958819Y-95979654D01*
X134087007Y-95794626D01*
X134180096Y-95589683D01*
X134235096Y-95371412D01*
X134245500Y-95239217D01*
X134245499Y-92610784D01*
X134245498Y-92610777D01*
X139044500Y-92610777D01*
X139044500Y-95239208D01*
X139044501Y-95239223D01*
X139054904Y-95371413D01*
X139054905Y-95371420D01*
X139109902Y-95589678D01*
X139109903Y-95589681D01*
X139202991Y-95794622D01*
X139202997Y-95794632D01*
X139331174Y-95979645D01*
X139331178Y-95979650D01*
X139331181Y-95979654D01*
X139490346Y-96138819D01*
X139490350Y-96138822D01*
X139490354Y-96138825D01*
X139629603Y-96235297D01*
X139675374Y-96267007D01*
X139880317Y-96360096D01*
X139880321Y-96360097D01*
X140098579Y-96415094D01*
X140098581Y-96415094D01*
X140098588Y-96415096D01*
X140230783Y-96425500D01*
X141859216Y-96425499D01*
X141991412Y-96415096D01*
X142209683Y-96360096D01*
X142414626Y-96267007D01*
X142599654Y-96138819D01*
X142758819Y-95979654D01*
X142887007Y-95794626D01*
X142980096Y-95589683D01*
X143035096Y-95371412D01*
X143045500Y-95239217D01*
X143045499Y-92610784D01*
X143035096Y-92478588D01*
X142980096Y-92260317D01*
X142887007Y-92055374D01*
X142785675Y-91909110D01*
X142758825Y-91870354D01*
X142758822Y-91870350D01*
X142758819Y-91870346D01*
X142599654Y-91711181D01*
X142599650Y-91711178D01*
X142599645Y-91711174D01*
X142414632Y-91582997D01*
X142414630Y-91582995D01*
X142414626Y-91582993D01*
X142209683Y-91489904D01*
X142209681Y-91489903D01*
X142209678Y-91489902D01*
X141991420Y-91434905D01*
X141991413Y-91434904D01*
X141947347Y-91431436D01*
X141859217Y-91424500D01*
X141859215Y-91424500D01*
X140230791Y-91424500D01*
X140230776Y-91424501D01*
X140098586Y-91434904D01*
X140098579Y-91434905D01*
X139880321Y-91489902D01*
X139880318Y-91489903D01*
X139675377Y-91582991D01*
X139675367Y-91582997D01*
X139490354Y-91711174D01*
X139490342Y-91711184D01*
X139331184Y-91870342D01*
X139331174Y-91870354D01*
X139202997Y-92055367D01*
X139202991Y-92055377D01*
X139109903Y-92260318D01*
X139109902Y-92260321D01*
X139054905Y-92478579D01*
X139054904Y-92478586D01*
X139044500Y-92610777D01*
X134245498Y-92610777D01*
X134235096Y-92478588D01*
X134180096Y-92260317D01*
X134087007Y-92055374D01*
X133985675Y-91909110D01*
X133958825Y-91870354D01*
X133958822Y-91870350D01*
X133958819Y-91870346D01*
X133799654Y-91711181D01*
X133799650Y-91711178D01*
X133799645Y-91711174D01*
X133614632Y-91582997D01*
X133614630Y-91582995D01*
X133614626Y-91582993D01*
X133409683Y-91489904D01*
X133409681Y-91489903D01*
X133409678Y-91489902D01*
X133191420Y-91434905D01*
X133191413Y-91434904D01*
X133147347Y-91431436D01*
X133059217Y-91424500D01*
X133059215Y-91424500D01*
X131430791Y-91424500D01*
X131430776Y-91424501D01*
X131298586Y-91434904D01*
X131298579Y-91434905D01*
X131080321Y-91489902D01*
X131080318Y-91489903D01*
X130875377Y-91582991D01*
X130875367Y-91582997D01*
X130690354Y-91711174D01*
X130690342Y-91711184D01*
X130531184Y-91870342D01*
X130531174Y-91870354D01*
X130402997Y-92055367D01*
X130402991Y-92055377D01*
X130309903Y-92260318D01*
X130309902Y-92260321D01*
X130254905Y-92478579D01*
X130254904Y-92478586D01*
X130244500Y-92610777D01*
X116645500Y-92610777D01*
X116645500Y-91909110D01*
X116645500Y-91909108D01*
X116611392Y-91781814D01*
X116545500Y-91667686D01*
X116452314Y-91574500D01*
X113181819Y-88304005D01*
X113148334Y-88242682D01*
X113145500Y-88216324D01*
X113145500Y-77909110D01*
X113145500Y-77909108D01*
X113111392Y-77781814D01*
X113045500Y-77667686D01*
X112952314Y-77574500D01*
X111681819Y-76304005D01*
X111648334Y-76242682D01*
X111645500Y-76216324D01*
X111645500Y-44233676D01*
X111665185Y-44166637D01*
X111681819Y-44145995D01*
X112483942Y-43343872D01*
X114644500Y-43343872D01*
X114644500Y-43606127D01*
X114667631Y-43781814D01*
X114678730Y-43866116D01*
X114746602Y-44119418D01*
X114746605Y-44119428D01*
X114846953Y-44361690D01*
X114846958Y-44361700D01*
X114978075Y-44588803D01*
X115137718Y-44796851D01*
X115137726Y-44796860D01*
X115323140Y-44982274D01*
X115323148Y-44982281D01*
X115531196Y-45141924D01*
X115758299Y-45273041D01*
X115758309Y-45273046D01*
X116000571Y-45373394D01*
X116000581Y-45373398D01*
X116253884Y-45441270D01*
X116513880Y-45475500D01*
X116513887Y-45475500D01*
X116776113Y-45475500D01*
X116776120Y-45475500D01*
X117036116Y-45441270D01*
X117289419Y-45373398D01*
X117531697Y-45273043D01*
X117758803Y-45141924D01*
X117966851Y-44982282D01*
X117966855Y-44982277D01*
X117966860Y-44982274D01*
X118152274Y-44796860D01*
X118152277Y-44796855D01*
X118152282Y-44796851D01*
X118311924Y-44588803D01*
X118443043Y-44361697D01*
X118543398Y-44119419D01*
X118611270Y-43866116D01*
X118645500Y-43606120D01*
X118645500Y-43343880D01*
X118611270Y-43083884D01*
X118543398Y-42830581D01*
X118512617Y-42756269D01*
X118443046Y-42588309D01*
X118443041Y-42588299D01*
X118311924Y-42361196D01*
X118159081Y-42162010D01*
X118152282Y-42153149D01*
X118152281Y-42153148D01*
X118152274Y-42153140D01*
X117966860Y-41967726D01*
X117966851Y-41967718D01*
X117758803Y-41808075D01*
X117531700Y-41676958D01*
X117531690Y-41676953D01*
X117289428Y-41576605D01*
X117289421Y-41576603D01*
X117289419Y-41576602D01*
X117036116Y-41508730D01*
X116978339Y-41501123D01*
X116776127Y-41474500D01*
X116776120Y-41474500D01*
X116513880Y-41474500D01*
X116513872Y-41474500D01*
X116282772Y-41504926D01*
X116253884Y-41508730D01*
X116142370Y-41538610D01*
X116000581Y-41576602D01*
X116000571Y-41576605D01*
X115758309Y-41676953D01*
X115758299Y-41676958D01*
X115531196Y-41808075D01*
X115323148Y-41967718D01*
X115137718Y-42153148D01*
X114978075Y-42361196D01*
X114846958Y-42588299D01*
X114846953Y-42588309D01*
X114746605Y-42830571D01*
X114746602Y-42830581D01*
X114678730Y-43083885D01*
X114644500Y-43343872D01*
X112483942Y-43343872D01*
X116815995Y-39011819D01*
X116877318Y-38978334D01*
X116903676Y-38975500D01*
X135624147Y-38975500D01*
X135691186Y-38995185D01*
G37*
%TD.AperFunction*%
%TA.AperFunction,Conductor*%
G36*
X150402444Y-38995185D02*
G01*
X150448199Y-39047989D01*
X150458143Y-39117147D01*
X150429118Y-39180703D01*
X150409720Y-39198763D01*
X150405019Y-39202282D01*
X150403451Y-39203456D01*
X150317206Y-39318664D01*
X150317202Y-39318671D01*
X150266908Y-39453517D01*
X150262153Y-39497748D01*
X150260501Y-39513123D01*
X150260500Y-39513135D01*
X150260500Y-41116870D01*
X150260501Y-41116876D01*
X150266908Y-41176483D01*
X150317202Y-41311328D01*
X150317206Y-41311335D01*
X150403452Y-41426544D01*
X150403455Y-41426547D01*
X150518664Y-41512793D01*
X150518671Y-41512797D01*
X150653517Y-41563091D01*
X150653516Y-41563091D01*
X150660444Y-41563835D01*
X150713127Y-41569500D01*
X150768424Y-41569499D01*
X150835461Y-41589182D01*
X150881216Y-41641986D01*
X150891161Y-41711144D01*
X150862137Y-41774700D01*
X150841309Y-41793817D01*
X150697749Y-41898119D01*
X150558115Y-42037753D01*
X150442058Y-42197495D01*
X150352408Y-42373441D01*
X150291389Y-42561236D01*
X150260500Y-42756263D01*
X150260500Y-42953736D01*
X150291389Y-43148763D01*
X150352348Y-43336373D01*
X150352409Y-43336561D01*
X150441923Y-43512239D01*
X150442058Y-43512504D01*
X150558115Y-43672246D01*
X150697753Y-43811884D01*
X150821158Y-43901541D01*
X150857499Y-43927944D01*
X151027404Y-44014516D01*
X151078199Y-44062490D01*
X151094994Y-44130311D01*
X151072456Y-44196446D01*
X151027404Y-44235483D01*
X150870321Y-44315522D01*
X150857495Y-44322058D01*
X150697753Y-44438115D01*
X150558115Y-44577753D01*
X150442058Y-44737495D01*
X150352408Y-44913441D01*
X150291389Y-45101236D01*
X150260500Y-45296263D01*
X150260500Y-45493736D01*
X150291389Y-45688763D01*
X150352408Y-45876558D01*
X150352409Y-45876561D01*
X150442056Y-46052501D01*
X150442058Y-46052504D01*
X150558115Y-46212246D01*
X150697753Y-46351884D01*
X150847234Y-46460486D01*
X150857499Y-46467944D01*
X151027404Y-46554516D01*
X151078199Y-46602490D01*
X151094994Y-46670311D01*
X151072456Y-46736446D01*
X151027404Y-46775483D01*
X150870321Y-46855522D01*
X150857495Y-46862058D01*
X150697753Y-46978115D01*
X150558115Y-47117753D01*
X150442058Y-47277495D01*
X150352408Y-47453441D01*
X150291389Y-47641236D01*
X150260500Y-47836263D01*
X150260500Y-48033736D01*
X150291389Y-48228763D01*
X150336149Y-48366518D01*
X150352409Y-48416561D01*
X150442056Y-48592501D01*
X150442058Y-48592504D01*
X150558115Y-48752246D01*
X150697753Y-48891884D01*
X150847234Y-49000486D01*
X150857499Y-49007944D01*
X151027404Y-49094516D01*
X151078199Y-49142490D01*
X151094994Y-49210311D01*
X151072456Y-49276446D01*
X151027404Y-49315483D01*
X150870321Y-49395522D01*
X150857495Y-49402058D01*
X150697753Y-49518115D01*
X150558115Y-49657753D01*
X150442058Y-49817495D01*
X150352408Y-49993441D01*
X150291389Y-50181236D01*
X150260500Y-50376263D01*
X150260500Y-50573736D01*
X150291389Y-50768763D01*
X150339288Y-50916178D01*
X150352409Y-50956561D01*
X150442056Y-51132501D01*
X150442058Y-51132504D01*
X150558115Y-51292246D01*
X150697753Y-51431884D01*
X150830672Y-51528453D01*
X150857499Y-51547944D01*
X151027404Y-51634516D01*
X151078199Y-51682490D01*
X151094994Y-51750311D01*
X151072456Y-51816446D01*
X151027404Y-51855483D01*
X150870321Y-51935522D01*
X150857495Y-51942058D01*
X150697753Y-52058115D01*
X150558115Y-52197753D01*
X150442058Y-52357495D01*
X150352408Y-52533441D01*
X150291389Y-52721236D01*
X150260500Y-52916263D01*
X150260500Y-53113736D01*
X150291389Y-53308763D01*
X150320957Y-53399762D01*
X150352409Y-53496561D01*
X150394594Y-53579352D01*
X150442058Y-53672504D01*
X150558115Y-53832246D01*
X150697753Y-53971884D01*
X150847234Y-54080486D01*
X150857499Y-54087944D01*
X151027404Y-54174516D01*
X151078199Y-54222490D01*
X151094994Y-54290311D01*
X151072456Y-54356446D01*
X151027404Y-54395483D01*
X150870321Y-54475522D01*
X150857495Y-54482058D01*
X150697753Y-54598115D01*
X150558115Y-54737753D01*
X150442058Y-54897495D01*
X150352408Y-55073441D01*
X150291389Y-55261236D01*
X150260500Y-55456263D01*
X150260500Y-55653736D01*
X150291389Y-55848763D01*
X150340514Y-55999951D01*
X150352409Y-56036561D01*
X150442056Y-56212501D01*
X150442058Y-56212504D01*
X150558115Y-56372246D01*
X150697753Y-56511884D01*
X150847234Y-56620486D01*
X150857499Y-56627944D01*
X151027404Y-56714516D01*
X151078199Y-56762490D01*
X151094994Y-56830311D01*
X151072456Y-56896446D01*
X151027404Y-56935483D01*
X150958396Y-56970646D01*
X150857495Y-57022058D01*
X150697753Y-57138115D01*
X150558115Y-57277753D01*
X150442058Y-57437495D01*
X150352408Y-57613441D01*
X150291389Y-57801236D01*
X150260500Y-57996263D01*
X150260500Y-58193736D01*
X150291389Y-58388763D01*
X150352408Y-58576558D01*
X150352409Y-58576561D01*
X150442056Y-58752501D01*
X150442058Y-58752504D01*
X150558115Y-58912246D01*
X150697753Y-59051884D01*
X150847234Y-59160486D01*
X150857499Y-59167944D01*
X151027404Y-59254516D01*
X151078199Y-59302490D01*
X151094994Y-59370311D01*
X151072456Y-59436446D01*
X151027404Y-59475483D01*
X150870321Y-59555522D01*
X150857495Y-59562058D01*
X150697753Y-59678115D01*
X150558115Y-59817753D01*
X150442058Y-59977495D01*
X150355485Y-60147403D01*
X150307510Y-60198199D01*
X150239689Y-60214994D01*
X150173554Y-60192456D01*
X150134515Y-60147403D01*
X150047944Y-59977499D01*
X150040486Y-59967234D01*
X149931884Y-59817753D01*
X149792246Y-59678115D01*
X149632504Y-59562058D01*
X149632503Y-59562057D01*
X149632501Y-59562056D01*
X149456561Y-59472409D01*
X149456558Y-59472408D01*
X149268763Y-59411389D01*
X149073736Y-59380500D01*
X149073731Y-59380500D01*
X148876269Y-59380500D01*
X148876264Y-59380500D01*
X148681236Y-59411389D01*
X148493441Y-59472408D01*
X148317495Y-59562058D01*
X148157753Y-59678115D01*
X148018115Y-59817753D01*
X147902058Y-59977495D01*
X147815485Y-60147403D01*
X147767510Y-60198199D01*
X147699689Y-60214994D01*
X147633554Y-60192456D01*
X147594515Y-60147403D01*
X147507944Y-59977499D01*
X147500486Y-59967234D01*
X147391884Y-59817753D01*
X147252246Y-59678115D01*
X147092504Y-59562058D01*
X147092503Y-59562057D01*
X147092501Y-59562056D01*
X146916561Y-59472409D01*
X146916558Y-59472408D01*
X146728763Y-59411389D01*
X146533736Y-59380500D01*
X146533731Y-59380500D01*
X146336269Y-59380500D01*
X146336264Y-59380500D01*
X146141236Y-59411389D01*
X145953441Y-59472408D01*
X145777495Y-59562058D01*
X145617753Y-59678115D01*
X145478115Y-59817753D01*
X145362058Y-59977495D01*
X145275485Y-60147403D01*
X145227510Y-60198199D01*
X145159689Y-60214994D01*
X145093554Y-60192456D01*
X145054515Y-60147403D01*
X144967944Y-59977499D01*
X144960486Y-59967234D01*
X144851884Y-59817753D01*
X144712246Y-59678115D01*
X144552504Y-59562058D01*
X144552503Y-59562057D01*
X144552501Y-59562056D01*
X144376561Y-59472409D01*
X144376558Y-59472408D01*
X144188763Y-59411389D01*
X143993736Y-59380500D01*
X143993731Y-59380500D01*
X143796269Y-59380500D01*
X143796264Y-59380500D01*
X143601236Y-59411389D01*
X143413441Y-59472408D01*
X143237495Y-59562058D01*
X143077753Y-59678115D01*
X142938115Y-59817753D01*
X142822058Y-59977495D01*
X142735485Y-60147403D01*
X142687510Y-60198199D01*
X142619689Y-60214994D01*
X142553554Y-60192456D01*
X142514515Y-60147403D01*
X142427944Y-59977499D01*
X142420486Y-59967234D01*
X142311884Y-59817753D01*
X142172246Y-59678115D01*
X142012504Y-59562058D01*
X142012503Y-59562057D01*
X142012501Y-59562056D01*
X141836561Y-59472409D01*
X141836558Y-59472408D01*
X141648763Y-59411389D01*
X141453736Y-59380500D01*
X141453731Y-59380500D01*
X141256269Y-59380500D01*
X141256264Y-59380500D01*
X141061236Y-59411389D01*
X140873441Y-59472408D01*
X140697495Y-59562058D01*
X140537753Y-59678115D01*
X140398115Y-59817753D01*
X140282058Y-59977495D01*
X140195485Y-60147403D01*
X140147510Y-60198199D01*
X140079689Y-60214994D01*
X140013554Y-60192456D01*
X139974515Y-60147403D01*
X139887944Y-59977499D01*
X139880486Y-59967234D01*
X139771884Y-59817753D01*
X139632246Y-59678115D01*
X139472504Y-59562058D01*
X139472503Y-59562057D01*
X139472501Y-59562056D01*
X139296561Y-59472409D01*
X139296558Y-59472408D01*
X139108763Y-59411389D01*
X138913736Y-59380500D01*
X138913731Y-59380500D01*
X138716269Y-59380500D01*
X138716264Y-59380500D01*
X138521236Y-59411389D01*
X138333441Y-59472408D01*
X138157495Y-59562058D01*
X137997753Y-59678115D01*
X137858115Y-59817753D01*
X137742058Y-59977495D01*
X137655485Y-60147403D01*
X137607510Y-60198199D01*
X137539689Y-60214994D01*
X137473554Y-60192456D01*
X137434515Y-60147403D01*
X137347944Y-59977499D01*
X137340486Y-59967234D01*
X137231884Y-59817753D01*
X137092246Y-59678115D01*
X136932505Y-59562058D01*
X136926119Y-59558804D01*
X136762593Y-59475482D01*
X136711800Y-59427510D01*
X136695005Y-59359689D01*
X136717542Y-59293554D01*
X136762593Y-59254517D01*
X136932501Y-59167944D01*
X136952912Y-59153114D01*
X137092246Y-59051884D01*
X137092248Y-59051881D01*
X137092252Y-59051879D01*
X137231879Y-58912252D01*
X137231881Y-58912248D01*
X137231884Y-58912246D01*
X137282779Y-58842192D01*
X137347944Y-58752501D01*
X137437591Y-58576561D01*
X137498610Y-58388763D01*
X137529500Y-58193736D01*
X137529500Y-57996263D01*
X137498610Y-57801236D01*
X137478270Y-57738637D01*
X137437591Y-57613439D01*
X137347944Y-57437499D01*
X137328429Y-57410639D01*
X137231884Y-57277753D01*
X137092246Y-57138115D01*
X136932505Y-57022058D01*
X136926119Y-57018804D01*
X136762593Y-56935482D01*
X136711800Y-56887510D01*
X136695005Y-56819689D01*
X136717542Y-56753554D01*
X136762593Y-56714517D01*
X136932501Y-56627944D01*
X136952912Y-56613114D01*
X137092246Y-56511884D01*
X137092248Y-56511881D01*
X137092252Y-56511879D01*
X137231879Y-56372252D01*
X137231881Y-56372248D01*
X137231884Y-56372246D01*
X137304347Y-56272507D01*
X137347944Y-56212501D01*
X137437591Y-56036561D01*
X137498610Y-55848763D01*
X137519797Y-55714995D01*
X137529500Y-55653736D01*
X137529500Y-55456263D01*
X137498610Y-55261236D01*
X137455154Y-55127494D01*
X137437591Y-55073439D01*
X137347944Y-54897499D01*
X137340486Y-54887234D01*
X137231884Y-54737753D01*
X137092246Y-54598115D01*
X136932505Y-54482058D01*
X136926119Y-54478804D01*
X136762593Y-54395482D01*
X136711800Y-54347510D01*
X136695005Y-54279689D01*
X136717542Y-54213554D01*
X136762593Y-54174517D01*
X136932501Y-54087944D01*
X136952912Y-54073114D01*
X137092246Y-53971884D01*
X137092248Y-53971881D01*
X137092252Y-53971879D01*
X137231879Y-53832252D01*
X137231881Y-53832248D01*
X137231884Y-53832246D01*
X137290253Y-53751907D01*
X137347944Y-53672501D01*
X137437591Y-53496561D01*
X137498610Y-53308763D01*
X137507560Y-53252254D01*
X137529500Y-53113736D01*
X137529500Y-52916263D01*
X137498610Y-52721236D01*
X137462154Y-52609038D01*
X137437591Y-52533439D01*
X137347944Y-52357499D01*
X137340486Y-52347234D01*
X137231884Y-52197753D01*
X137092246Y-52058115D01*
X136932505Y-51942058D01*
X136926119Y-51938804D01*
X136762593Y-51855482D01*
X136711800Y-51807510D01*
X136695005Y-51739689D01*
X136717542Y-51673554D01*
X136762593Y-51634517D01*
X136932501Y-51547944D01*
X136959328Y-51528453D01*
X137092246Y-51431884D01*
X137092248Y-51431881D01*
X137092252Y-51431879D01*
X137231879Y-51292252D01*
X137231881Y-51292248D01*
X137231884Y-51292246D01*
X137282779Y-51222192D01*
X137347944Y-51132501D01*
X137437591Y-50956561D01*
X137498610Y-50768763D01*
X137513762Y-50673097D01*
X137529500Y-50573736D01*
X137529500Y-50376263D01*
X137498610Y-50181236D01*
X137462165Y-50069071D01*
X137437591Y-49993439D01*
X137347944Y-49817499D01*
X137340486Y-49807234D01*
X137231884Y-49657753D01*
X137092246Y-49518115D01*
X136932505Y-49402058D01*
X136926119Y-49398804D01*
X136762593Y-49315482D01*
X136711800Y-49267510D01*
X136695005Y-49199689D01*
X136717542Y-49133554D01*
X136762593Y-49094517D01*
X136932501Y-49007944D01*
X136952912Y-48993114D01*
X137092246Y-48891884D01*
X137092248Y-48891881D01*
X137092252Y-48891879D01*
X137231879Y-48752252D01*
X137231881Y-48752248D01*
X137231884Y-48752246D01*
X137346128Y-48595000D01*
X137347944Y-48592501D01*
X137437591Y-48416561D01*
X137498610Y-48228763D01*
X137529500Y-48033736D01*
X137529500Y-47836263D01*
X137498610Y-47641236D01*
X137478210Y-47578453D01*
X137437591Y-47453439D01*
X137347944Y-47277499D01*
X137340486Y-47267234D01*
X137231884Y-47117753D01*
X137092246Y-46978115D01*
X136932505Y-46862058D01*
X136926119Y-46858804D01*
X136762593Y-46775482D01*
X136711800Y-46727510D01*
X136695005Y-46659689D01*
X136717542Y-46593554D01*
X136762593Y-46554517D01*
X136932501Y-46467944D01*
X136952912Y-46453114D01*
X137092246Y-46351884D01*
X137092248Y-46351881D01*
X137092252Y-46351879D01*
X137231879Y-46212252D01*
X137231881Y-46212248D01*
X137231884Y-46212246D01*
X137282779Y-46142192D01*
X137347944Y-46052501D01*
X137437591Y-45876561D01*
X137498610Y-45688763D01*
X137529500Y-45493736D01*
X137529500Y-45296263D01*
X137498610Y-45101236D01*
X137459959Y-44982281D01*
X137437591Y-44913439D01*
X137347944Y-44737499D01*
X137332372Y-44716066D01*
X137231884Y-44577753D01*
X137092246Y-44438115D01*
X136932505Y-44322058D01*
X136927334Y-44319423D01*
X136762043Y-44235202D01*
X136711250Y-44187230D01*
X136694455Y-44119409D01*
X136716992Y-44053275D01*
X136762046Y-44014235D01*
X136932241Y-43927516D01*
X136967988Y-43901543D01*
X136967988Y-43901541D01*
X136404410Y-43337962D01*
X136467993Y-43320925D01*
X136582007Y-43255099D01*
X136675099Y-43162007D01*
X136740925Y-43047993D01*
X136757962Y-42984409D01*
X137321541Y-43547988D01*
X137321543Y-43547988D01*
X137347516Y-43512241D01*
X137437126Y-43336373D01*
X137498123Y-43148646D01*
X137529000Y-42953697D01*
X137529000Y-42756302D01*
X137498123Y-42561353D01*
X137437126Y-42373626D01*
X137347520Y-42197768D01*
X137347512Y-42197755D01*
X137321542Y-42162010D01*
X137321541Y-42162009D01*
X136757962Y-42725589D01*
X136740925Y-42662007D01*
X136675099Y-42547993D01*
X136582007Y-42454901D01*
X136467993Y-42389075D01*
X136404409Y-42372037D01*
X136967989Y-41808457D01*
X136932236Y-41782481D01*
X136762045Y-41695763D01*
X136711250Y-41647789D01*
X136694455Y-41579968D01*
X136716993Y-41513833D01*
X136762042Y-41474798D01*
X136932501Y-41387944D01*
X136980283Y-41353228D01*
X137092246Y-41271884D01*
X137092248Y-41271881D01*
X137092252Y-41271879D01*
X137231879Y-41132252D01*
X137231881Y-41132248D01*
X137231884Y-41132246D01*
X137282779Y-41062192D01*
X137347944Y-40972501D01*
X137437591Y-40796561D01*
X137498610Y-40608763D01*
X137529500Y-40413736D01*
X137529500Y-40216263D01*
X137498610Y-40021236D01*
X137478270Y-39958637D01*
X137437591Y-39833439D01*
X137347944Y-39657499D01*
X137340486Y-39647234D01*
X137231884Y-39497753D01*
X137092246Y-39358115D01*
X136932505Y-39242058D01*
X136927600Y-39239558D01*
X136869556Y-39209984D01*
X136818762Y-39162010D01*
X136801967Y-39094189D01*
X136824504Y-39028054D01*
X136879220Y-38984603D01*
X136925853Y-38975500D01*
X150335405Y-38975500D01*
X150402444Y-38995185D01*
G37*
%TD.AperFunction*%
M02*
