M48
; DRILL file KiCad 10.0.2 date 2026-05-22T20:50:38
; FORMAT={-:-/ absolute / metric / decimal}
; #@! TF.CreationDate,2026-05-22T20:50:38-04:00
; #@! TF.GenerationSoftware,Kicad,Pcbnew,10.0.2
; #@! TF.FileFunction,Plated,1,2,PTH
FMAT,2
METRIC
; #@! TA.AperFunction,Plated,PTH,ViaDrill
T1C0.300
; #@! TA.AperFunction,Plated,PTH,ComponentDrill
T2C0.800
; #@! TA.AperFunction,Plated,PTH,ComponentDrill
T3C1.000
; #@! TA.AperFunction,Plated,PTH,ComponentDrill
T4C1.500
; #@! TA.AperFunction,Plated,PTH,ComponentDrill
T5C1.800
%
G90
G05
T1
X125.145Y-60.725
X127.645Y-50.225
X127.895Y-52.475
X128.645Y-66.725
X133.895Y-41.225
X138.445Y-90.775
X138.895Y-41.975
X139.145Y-44.475
X140.545Y-85.075
X141.263Y-86.42
X141.263Y-88.469
T2
X136.595Y-83.375
X137.545Y-67.225
X139.095Y-83.375
X150.245Y-67.225
T3
X122.105Y-66.725
X124.645Y-66.725
X134.145Y-86.925
X136.275Y-40.315
X136.275Y-42.855
X136.275Y-45.395
X136.275Y-47.935
X136.275Y-50.475
X136.275Y-53.015
X136.275Y-55.555
X136.275Y-58.095
X136.275Y-60.635
X136.645Y-86.925
X138.815Y-60.635
X139.145Y-86.925
X141.355Y-60.635
X143.895Y-60.635
X146.435Y-60.635
X148.975Y-60.635
X151.515Y-40.315
X151.515Y-42.855
X151.515Y-45.395
X151.515Y-47.935
X151.515Y-50.475
X151.515Y-53.015
X151.515Y-55.555
X151.515Y-58.095
X151.515Y-60.635
T4
X118.835Y-52.735
X125.185Y-50.195
T5
G00X132.245Y-93.775
M15
G01X132.245Y-94.075
M16
G05
G00X141.045Y-93.775
M15
G01X141.045Y-94.075
M16
G05
M30
